<?xml version="1.0" standalone="no"?>
<!DOCTYPE svg PUBLIC "-//W3C//DTD SVG 1.1//EN" "http://www.w3.org/Graphics/SVG/1.1/DTD/svg11.dtd" >
<svg>
<metadata>
Created by FontForge 20090622 at Tue Aug 30 16:27:39 2016
 By deploy user
 ITC Franklin Gothic is a trademark of The International Typeface Corporation which may be registered in certain jurisdictions. Portions copyright Microsoft Corporation.  All rights reserved.
</metadata>
<defs>
<font id="FranklinGothic-MediumItalic" horiz-adv-x="1451" >
  <font-face 
    font-family="Franklin Gothic Medium"
    font-weight="400"
    font-style="italic"
    font-stretch="normal"
    units-per-em="2048"
    panose-1="2 11 6 3 2 1 2 9 2 4"
    ascent="1638"
    descent="-410"
    x-height="1017"
    cap-height="1365"
    bbox="-327 -628 2144 1948"
    underline-thickness="102"
    underline-position="-103"
    slope="-9.5"
    unicode-range="U+0020-U+FB02"
  />
<missing-glyph horiz-adv-x="2048" 
d="M256 0v1536h1536v-1536h-1536zM384 128h1280v1280h-1280v-1280z" />
    <glyph glyph-name=".notdef" horiz-adv-x="2048" 
d="M256 0v1536h1536v-1536h-1536zM384 128h1280v1280h-1280v-1280z" />
    <glyph glyph-name=".null" horiz-adv-x="0" 
 />
    <glyph glyph-name="nonmarkingreturn" horiz-adv-x="512" 
 />
    <glyph glyph-name="space" unicode=" " horiz-adv-x="512" 
 />
    <glyph glyph-name="exclam" unicode="!" horiz-adv-x="505" 
d="M276 380h-104l34 985h290zM291 0h-246l42 253h246z" />
    <glyph glyph-name="quotedbl" unicode="&#x22;" horiz-adv-x="768" 
d="M343 823h-150l57 542h217zM680 823h-150l57 542h217z" />
    <glyph glyph-name="numbersign" unicode="#" horiz-adv-x="1201" 
d="M1186 994l-42 -193h-200l-46 -209h200l-43 -193h-201l-89 -399h-185l89 399h-197l-89 -399h-189l90 401h-205l42 191h209l46 209h-207l42 193h208l83 371h185l-82 -371h194l84 371h185l-83 -371h201zM756 801h-194l-47 -209h196z" />
    <glyph glyph-name="dollar" unicode="$" horiz-adv-x="1201" 
d="M533 -153h-133l32 192q-296 62 -379 339l189 67q49 -195 220 -231l67 404q-336 87 -336 356q0 164 119.5 271t296.5 107q18 0 43 -2l24 145h132l-27 -163q246 -47 329 -267l-185 -66q-56 138 -173 161l-59 -352q143 -47 202 -80.5t110 -117.5t51 -181q0 -172 -128 -290
t-322 -118q-19 0 -44 3zM622 1175q-114 0 -169.5 -51.5t-55.5 -120.5q0 -124 169 -167zM591 195q20 -1 30 -1q99 0 163.5 57.5t64.5 140.5q0 153 -194 189z" />
    <glyph glyph-name="percent" unicode="%" horiz-adv-x="1532" 
d="M145 967q0 157 92.5 291.5t244.5 134.5q115 0 196.5 -86t81.5 -242q0 -157 -93 -295t-249 -138q-114 0 -193.5 92.5t-79.5 242.5zM316 922q0 -80 33 -115.5t74 -35.5q48 0 81.5 28.5t58.5 112t25 180.5q0 160 -111 160q-82 0 -121.5 -103.5t-39.5 -226.5zM373 0h-153
l998 1365h150zM834 308q0 177 100 305t237 128q117 0 197 -94.5t80 -244.5q0 -164 -96.5 -294t-241.5 -130q-122 0 -199 90.5t-77 239.5zM1004 286q0 -167 116 -167q77 0 116.5 104t39.5 212q0 165 -114 165q-86 0 -122 -105.5t-36 -208.5z" />
    <glyph glyph-name="ampersand" unicode="&#x26;" horiz-adv-x="1419" 
d="M1289 -35q-40 -4 -66 -4q-102 0 -156.5 30t-124.5 116q-171 -155 -414 -155q-215 0 -347 122.5t-132 303.5q0 310 396 433q-84 130 -84 257q0 133 94.5 235t251.5 102q165 0 264 -90.5t99 -225.5q0 -245 -323 -348l243 -342q186 210 249 434l187 -52q-110 -330 -325 -524
q57 -96 175 -96q16 0 46 1zM662 884l52 23q153 69 153 174q0 57 -41.5 93.5t-104.5 36.5q-68 0 -106 -44.5t-38 -97.5q0 -84 85 -185zM546 662q-257 -94 -257 -278q0 -94 71.5 -163.5t182.5 -69.5q143 0 288 106z" />
    <glyph glyph-name="quotesingle" unicode="'" horiz-adv-x="431" 
d="M343 823h-150l57 542h217z" />
    <glyph glyph-name="parenleft" unicode="(" horiz-adv-x="601" 
d="M400 -355h-127q-211 366 -211 731q0 293 143.5 558t328.5 431h154q-208 -233 -324.5 -514.5t-116.5 -554.5q0 -327 153 -651z" />
    <glyph glyph-name="parenright" unicode=")" horiz-adv-x="601" 
d="M200 1365h127q213 -364 213 -732q0 -296 -146.5 -562t-327.5 -426h-154q205 228 324 509.5t119 559.5q0 324 -155 651z" />
    <glyph glyph-name="asterisk" unicode="*" horiz-adv-x="1201" 
d="M665 1373l158 -27l-72 -341l343 66l24 -159l-347 -37l168 -305l-144 -72l-142 318l-238 -254l-113 114l259 234l-316 148l74 143l303 -174z" />
    <glyph glyph-name="plus" unicode="+" horiz-adv-x="1201" 
d="M1137 785v-191h-411v-425h-190v425h-411v191h411v426h190v-426h411z" />
    <glyph glyph-name="comma" unicode="," horiz-adv-x="493" 
d="M72 -295h-87l170 295h-113l42 249h239l-38 -229z" />
    <glyph glyph-name="hyphen" unicode="-" horiz-adv-x="493" 
d="M476 414h-490l31 183h490z" />
    <glyph glyph-name="period" unicode="." horiz-adv-x="493" 
d="M281 0h-239l42 250h239z" />
    <glyph glyph-name="slash" unicode="/" horiz-adv-x="890" 
d="M-93 -355h-150l1062 1720h154z" />
    <glyph glyph-name="zero" unicode="0" horiz-adv-x="1201" 
d="M566 -38q-237 0 -354 177t-117 421q0 306 163 573.5t452 267.5q191 0 324 -151t133 -456q0 -134 -52 -328t-197 -349t-352 -155zM568 149q191 0 278.5 257t87.5 479q0 160 -65 244.5t-179 84.5q-180 0 -269 -250.5t-89 -481.5q0 -158 62.5 -245.5t173.5 -87.5z" />
    <glyph glyph-name="one" unicode="1" horiz-adv-x="1201" 
d="M1108 0h-1028l36 213h396l145 869q-57 -56 -175.5 -93.5t-209.5 -37.5q-12 0 -33 1l35 209q359 31 511 254h158l-201 -1202h402z" />
    <glyph glyph-name="two" unicode="2" horiz-adv-x="1201" 
d="M1022 0h-1012l32 249q208 115 445.5 272.5t320 260t82.5 209.5q0 91 -62 150.5t-153 59.5q-108 0 -190.5 -76t-114.5 -212l-212 93q71 197 210 302t315 105q195 0 326.5 -120t131.5 -299q0 -149 -80 -272t-327.5 -269.5t-455.5 -234.5h781z" />
    <glyph glyph-name="three" unicode="3" horiz-adv-x="1201" 
d="M254 396q18 -102 99 -166.5t195 -64.5q121 0 199 67.5t78 170.5q0 79 -43 130.5t-97 60t-247 8.5l32 194q33 -2 59 -2q201 0 281 65t80 159q0 83 -64 132.5t-156 49.5q-203 0 -300 -201l-207 95q182 304 513 304q201 0 329.5 -103.5t128.5 -257.5q0 -121 -82 -212
t-222 -115q119 -32 179 -120t60 -196q0 -170 -137.5 -298.5t-388.5 -128.5q-205 0 -336 104.5t-170 268.5z" />
    <glyph glyph-name="four" unicode="4" horiz-adv-x="1201" 
d="M833 0h-235l52 309h-595l35 220l729 881h250l-150 -895h212l-35 -206h-212zM691 515l100 577q7 43 14 55q-57 -85 -102 -139l-413 -498q55 5 95 5h306z" />
    <glyph glyph-name="five" unicode="5" horiz-adv-x="1201" 
d="M76 302l214 58q18 -85 92.5 -142.5t170.5 -57.5q118 0 205 86t87 217q0 110 -70 179t-169 69q-154 0 -251 -149l-193 85l193 721h803l-53 -210h-608l-108 -389q120 149 293 149q180 0 299 -129t119 -304q0 -221 -158.5 -371.5t-379.5 -150.5q-173 0 -308 92t-178 247z
" />
    <glyph glyph-name="six" unicode="6" horiz-adv-x="1201" 
d="M1190 1042l-222 -37q-41 209 -238 209q-162 0 -258 -170.5t-115 -358.5q114 199 348 199q165 0 285.5 -126t120.5 -315q0 -195 -139.5 -337t-351.5 -142q-224 0 -366.5 158t-142.5 434q0 305 167 575t461 270q191 0 306.5 -100.5t144.5 -258.5zM610 149q109 0 188 80.5
t79 200.5q0 115 -79 186t-177 71q-112 0 -188 -80.5t-76 -191.5q0 -96 66.5 -181t186.5 -85z" />
    <glyph glyph-name="seven" unicode="7" horiz-adv-x="1201" 
d="M561 0h-279q2 6 22 94q51 227 126 388.5t213 338.5t312 327h-763l66 217h938l-32 -192q-51 -32 -219.5 -248t-265.5 -448t-118 -477z" />
    <glyph glyph-name="eight" unicode="8" horiz-adv-x="1201" 
d="M391 685q-202 109 -202 307q0 157 137 282t381 125q200 0 327 -93t127 -242q0 -232 -288 -332q111 -46 173 -134t62 -188q0 -183 -150.5 -312.5t-391.5 -129.5q-259 0 -385 99.5t-126 250.5q0 121 78.5 224.5t257.5 142.5zM724 807q78 27 150 92.5t72 144.5q0 75 -66 127
t-188 52q-120 0 -186 -53t-66 -131q0 -79 69 -132t215 -100zM560 601q-276 -80 -276 -256q0 -87 74.5 -141t205.5 -54q148 0 223 64t75 141q0 60 -52.5 118t-249.5 128z" />
    <glyph glyph-name="nine" unicode="9" horiz-adv-x="1201" 
d="M281 313q74 -159 235 -159q158 0 258.5 156t130.5 397q-116 -221 -348 -221q-173 0 -288 118.5t-115 303.5q0 207 139 350.5t363 143.5q204 0 346.5 -151t142.5 -430q0 -322 -173.5 -588t-466.5 -266q-166 0 -279.5 82.5t-150.5 195.5zM629 680q113 0 189.5 85.5
t76.5 199.5q0 104 -71.5 176.5t-172.5 72.5q-113 0 -190 -84t-77 -197q0 -109 70.5 -181t174.5 -72z" />
    <glyph glyph-name="colon" unicode=":" horiz-adv-x="493" 
d="M388 638h-239l42 249h238zM281 0h-239l42 250h239z" />
    <glyph glyph-name="semicolon" unicode=";" horiz-adv-x="493" 
d="M388 638h-239l42 249h239zM72 -295h-87l170 295h-113l42 249h239l-38 -229z" />
    <glyph glyph-name="semicolon" unicode="&#x37e;" horiz-adv-x="493" 
d="M388 638h-239l42 249h239zM72 -295h-87l170 295h-113l42 249h239l-38 -229z" />
    <glyph glyph-name="less" unicode="&#x3c;" horiz-adv-x="1201" 
d="M1074 1221v-230l-641 -310l640 -310l1 -229l-887 442v196z" />
    <glyph glyph-name="equal" unicode="=" horiz-adv-x="1201" 
d="M1136 924v-191h-1012v191h1012zM1136 625v-191h-1012v191h1012z" />
    <glyph glyph-name="greater" unicode="&#x3e;" horiz-adv-x="1201" 
d="M187 142v230l642 310l-641 311l-1 228l887 -442v-196z" />
    <glyph glyph-name="question" unicode="?" horiz-adv-x="991" 
d="M555 381h-189q24 183 59 241t173 149q174 115 174 243q0 79 -53.5 130t-133.5 51q-94 0 -163.5 -68.5t-97.5 -183.5l-203 79q65 178 191.5 276.5t287.5 98.5q185 0 299 -108.5t114 -269.5q0 -94 -53 -198t-233 -195q-111 -56 -139.5 -108t-32.5 -137zM528 0h-245l42 254
h246z" />
    <glyph glyph-name="at" unicode="@" horiz-adv-x="1502" 
d="M1167 1041l-76 -466q-10 -62 -10 -98q0 -62 62 -62q78 0 147.5 106.5t69.5 251.5q0 220 -157 355t-381 135q-245 0 -413 -168.5t-168 -414.5q0 -235 157 -401.5t433 -166.5q216 0 436 118l53 -136q-237 -125 -486 -125q-370 0 -563.5 215t-193.5 490q0 307 219.5 515
t524.5 208q291 0 485.5 -175t194.5 -438q0 -201 -115 -355t-274 -154q-57 0 -107.5 28t-70.5 76q-87 -108 -212 -108q-123 0 -207 103t-84 271q0 173 95 294t252 121q138 0 206 -89l11 70h172zM751 435q86 0 148 86t62 192q0 90 -46 135.5t-120 45.5q-90 0 -138 -69.5
t-48 -185.5q0 -97 41 -150.5t101 -53.5z" />
    <glyph glyph-name="A" unicode="A" horiz-adv-x="1234" 
d="M1150 0h-273l-56 330h-495l-152 -330h-231l654 1365h303zM798 520l-107 606l-281 -606h388z" />
    <glyph glyph-name="B" unicode="B" horiz-adv-x="1251" 
d="M66 0l228 1365h478q129 0 212.5 -26t148.5 -110.5t65 -202.5q0 -243 -256 -324q213 -94 213 -309q0 -141 -98.5 -267t-383.5 -126h-607zM444 800h243q161 0 213.5 63.5t52.5 133.5q0 179 -230 179h-216zM344 201h278q110 0 163 18.5t88 70t35 126.5q0 68 -36.5 116.5
t-83 64t-127.5 15.5h-248z" />
    <glyph glyph-name="C" unicode="C" horiz-adv-x="1211" 
d="M1145 374q-175 -410 -541 -410q-222 0 -361.5 160.5t-139.5 436.5q0 345 179 592.5t460 247.5q219 0 347 -127t146 -352l-222 -40q-30 314 -276 314q-199 0 -286.5 -236t-87.5 -449q0 -166 73.5 -250t187.5 -84q105 0 190.5 81.5t130.5 198.5z" />
    <glyph glyph-name="D" unicode="D" horiz-adv-x="1310" 
d="M65 0l228 1365h401q139 0 224 -25t164 -96.5t128.5 -196.5t49.5 -288q0 -191 -71.5 -358t-174 -257t-199.5 -117t-278 -27h-472zM349 206h218q109 0 174.5 28.5t126 97.5t97 198t36.5 266q0 112 -37.5 202t-110 127.5t-196.5 37.5h-147z" />
    <glyph glyph-name="E" unicode="E" horiz-adv-x="1099" 
d="M952 0h-887l228 1365h863l-36 -214h-618l-59 -354h512l-34 -202h-512l-64 -381h643z" />
    <glyph glyph-name="F" unicode="F" horiz-adv-x="1017" 
d="M315 0h-250l228 1365h840l-36 -214h-589l-62 -369h490l-34 -203h-490z" />
    <glyph glyph-name="G" unicode="G" horiz-adv-x="1325" 
d="M1111 0h-106l-41 184q-111 -209 -372 -209q-219 0 -354 151.5t-135 437.5q0 350 183 595t482 245q393 0 498 -404l-216 -54q-69 247 -287 247q-182 0 -289 -193.5t-107 -441.5q0 -192 77.5 -285t208.5 -93q233 0 313 321h-297l34 206h526z" />
    <glyph glyph-name="H" unicode="H" horiz-adv-x="1323" 
d="M1088 0h-245l99 591h-534l-99 -591h-244l228 1365h245l-94 -559h534l94 559h244z" />
    <glyph glyph-name="I" unicode="I" horiz-adv-x="553" 
d="M318 0h-253l228 1365h253z" />
    <glyph glyph-name="J" unicode="J" horiz-adv-x="767" 
d="M-85 -3l39 204q74 -8 136 -8q155 0 207 60t77 209l151 903h250l-145 -863q-33 -200 -77.5 -299.5t-149 -163.5t-278.5 -64q-93 0 -210 22z" />
    <glyph glyph-name="K" unicode="K" horiz-adv-x="1264" 
d="M1145 0h-258l-203 685l-318 -348l-57 -337h-244l228 1365h245l-100 -595q-3 -17 -31 -144q36 56 77 101l576 638h262l-447 -487z" />
    <glyph glyph-name="L" unicode="L" horiz-adv-x="1000" 
d="M884 0h-819l228 1365h260l-193 -1151h560z" />
    <glyph glyph-name="M" unicode="M" horiz-adv-x="1633" 
d="M1399 0h-245l208 1243l-582 -1243h-133l-184 1232l-206 -1232h-191l228 1365h375l141 -917l417 917h400z" />
    <glyph glyph-name="N" unicode="N" horiz-adv-x="1330" 
d="M1094 0h-195l-466 1026l-171 -1026h-197l228 1365h253l425 -937l157 937h195z" />
    <glyph glyph-name="O" unicode="O" horiz-adv-x="1324" 
d="M104 581q0 314 176 568.5t471 254.5q246 0 387.5 -165t141.5 -453q0 -322 -179 -572.5t-476 -250.5q-217 0 -369 169.5t-152 448.5zM363 538q0 -200 79 -285t192 -85q198 0 291 219t93 454q0 358 -282 358q-188 0 -280.5 -225.5t-92.5 -435.5z" />
    <glyph glyph-name="P" unicode="P" horiz-adv-x="1223" 
d="M320 0h-255l228 1365h366q178 0 260 -7.5t160 -53.5t126 -132.5t48 -193.5q0 -142 -77.5 -251.5t-181 -144.5t-253.5 -35h-329zM515 1166l-69 -418h242q128 0 179 16.5t90 72t39 134.5q0 74 -35 121.5t-83 60.5t-172 13h-191z" />
    <glyph glyph-name="Q" unicode="Q" horiz-adv-x="1312" 
d="M1119 -72l-22 -207q-57 -9 -155 -9q-117 0 -177.5 30t-88.5 80t-28 150q-26 -4 -46 -4q-234 0 -366.5 167.5t-132.5 438.5q0 311 173 568t472 257q244 0 380 -162.5t136 -459.5q0 -257 -116.5 -467.5t-311.5 -289.5q1 -103 170 -103q59 0 113 11zM362 521
q0 -165 67 -256.5t179 -91.5q205 0 303 208t98 435q0 384 -269 384q-180 0 -279 -217.5t-99 -461.5z" />
    <glyph glyph-name="R" unicode="R" horiz-adv-x="1309" 
d="M1128 0h-261l-145 560h-319l-94 -560h-244l228 1365h514q154 0 244 -28.5t161.5 -125.5t71.5 -222q0 -134 -79 -248.5t-244 -151.5zM436 759h339q156 0 205.5 69.5t49.5 146.5q0 66 -34.5 113t-81.5 62.5t-141 15.5h-269z" />
    <glyph glyph-name="S" unicode="S" horiz-adv-x="1132" 
d="M1115 1106l-224 -83q-72 170 -260 170q-114 0 -177.5 -53.5t-63.5 -132.5q0 -61 43 -99.5t142 -66.5l187 -55q81 -23 154 -73t109 -125t36 -158q0 -186 -138.5 -322.5t-404.5 -136.5q-412 0 -534 340l223 79q81 -214 326 -214q140 0 208 64.5t68 146.5q0 47 -25.5 81.5
t-64.5 52.5t-156 51q-163 47 -243.5 89t-131 122t-50.5 190q0 187 135 306t368 119q344 0 474 -292z" />
    <glyph glyph-name="T" unicode="T" horiz-adv-x="945" 
d="M1053 1151h-347l-193 -1151h-251l193 1151h-347l36 214h945z" />
    <glyph glyph-name="U" unicode="U" horiz-adv-x="1239" 
d="M1246 1365l-148 -882q-29 -174 -73.5 -269t-163 -170t-283.5 -75q-103 0 -200.5 34t-173 127.5t-75.5 251.5q0 79 19 193l132 790h252l-135 -803q-22 -130 -22 -174q0 -110 71 -159t164 -49q81 0 143.5 32t97 98t62.5 233l137 822h196z" />
    <glyph glyph-name="V" unicode="V" horiz-adv-x="1113" 
d="M633 0h-273l-229 1365h257l173 -1079l473 1079h218z" />
    <glyph glyph-name="W" unicode="W" horiz-adv-x="1782" 
d="M1332 -10h-246l-120 1028l-421 -1028h-237l-160 1375h264l91 -1031l419 1031h243l109 -1031l415 1031h216z" />
    <glyph glyph-name="X" unicode="X" horiz-adv-x="1131" 
d="M1046 0h-269l-218 522l-394 -522h-250l548 709l-285 656h271l191 -456l342 456h245l-496 -636z" />
    <glyph glyph-name="Y" unicode="Y" horiz-adv-x="1061" 
d="M593 0h-257l96 575l-347 790h281l242 -590l388 590h236l-545 -802z" />
    <glyph glyph-name="Z" unicode="Z" horiz-adv-x="1077" 
d="M958 0h-1002l34 201l822 950h-643l36 214h957l-26 -171l-851 -980h709z" />
    <glyph glyph-name="bracketleft" unicode="[" horiz-adv-x="601" 
d="M398 -243l-19 -112h-385l288 1720h385l-19 -112h-217l-250 -1496h217z" />
    <glyph glyph-name="backslash" unicode="\" horiz-adv-x="890" 
d="M695 -355l-490 1720h139l486 -1720h-135z" />
    <glyph glyph-name="bracketright" unicode="]" horiz-adv-x="601" 
d="M202 1253l19 112h385l-288 -1720h-385l19 112h218l251 1496h-219z" />
    <glyph glyph-name="asciicircum" unicode="^" horiz-adv-x="1024" 
d="M295 703h-244l338 669h305l338 -669h-244l-247 484z" />
    <glyph glyph-name="underscore" unicode="_" horiz-adv-x="1024" 
d="M29 -107h1024v-208h-1024v208z" />
    <glyph glyph-name="grave" unicode="`" horiz-adv-x="1024" 
d="M439 1487l343 -219l-49 -107l-373 196z" />
    <glyph glyph-name="a" unicode="a" horiz-adv-x="1097" 
d="M896 0h-221q-2 27 -2 44q0 73 18 175q-50 -114 -144 -179.5t-207 -65.5q-136 0 -221.5 84.5t-85.5 208.5q0 171 152.5 272t477.5 101q42 0 98 -4q7 46 7 73q0 82 -56.5 124t-140.5 42q-161 0 -235 -141l-200 63q126 248 445 248q190 0 300 -86t110 -229q0 -61 -48 -322
q-51 -275 -51 -349q0 -27 4 -59zM741 519q-261 -14 -363 -69t-102 -161q0 -61 41 -99.5t112 -38.5q102 0 189 89.5t123 278.5z" />
    <glyph glyph-name="b" unicode="b" horiz-adv-x="1085" 
d="M155 0h-103l228 1365h224l-87 -522q130 214 309 214q137 0 218.5 -115t81.5 -297q0 -237 -126.5 -450.5t-349.5 -213.5q-209 0 -299 192zM538 170q123 0 192 154t69 314q0 230 -161 230q-126 0 -207.5 -157t-81.5 -329q0 -99 58 -155.5t131 -56.5z" />
    <glyph glyph-name="c" unicode="c" horiz-adv-x="979" 
d="M908 302q-144 -324 -432 -324q-179 0 -292 120.5t-113 338.5q0 246 139 428t349 182q159 0 265.5 -92.5t133.5 -262.5l-190 -37q-40 200 -199 200q-118 0 -192 -134t-74 -309q0 -133 56 -188.5t133 -55.5q150 0 228 201z" />
    <glyph glyph-name="d" unicode="d" horiz-adv-x="1096" 
d="M874 0h-218l35 210q-123 -233 -322 -233q-137 0 -220.5 109.5t-83.5 307.5q0 270 127 463.5t323 193.5q210 0 277 -202l87 516h224zM460 160q130 0 207 145.5t77 318.5q0 107 -51.5 173t-136.5 66q-130 0 -196 -150.5t-66 -334.5q0 -218 166 -218z" />
    <glyph glyph-name="e" unicode="e" horiz-adv-x="1068" 
d="M942 287q-140 -312 -444 -312q-200 0 -314.5 123t-114.5 327q0 260 144.5 439t371.5 179q204 0 308.5 -129t104.5 -352q0 -37 -3 -80h-699q-7 -43 -7 -76q0 -115 55.5 -185t157.5 -70q158 0 240 189zM786 627q0 258 -200 258q-207 0 -266 -258h466z" />
    <glyph glyph-name="f" unicode="f" horiz-adv-x="645" 
d="M307 0h-224l139 831h-139l31 186h139q40 210 140.5 303t277.5 93q92 0 143 -13l-20 -187q-48 12 -103 12q-193 0 -211 -208h219l-32 -186h-221z" />
    <glyph glyph-name="g" unicode="g" horiz-adv-x="1039" 
d="M134 96q-86 59 -86 157q0 75 39.5 131.5t160.5 116.5q-115 83 -115 209q0 156 120.5 244t333.5 88q75 0 126 -15q49 149 119 201t180 52q30 0 68 -5l-2 -174q-54 5 -75 5q-54 0 -107 -18t-82 -98q156 -78 156 -242q0 -143 -112 -236t-320 -93q-88 0 -198 29
q-91 -46 -91 -124q0 -43 32 -67.5t131 -24.5h121q177 0 259.5 -29.5t129 -94t46.5 -138.5q0 -126 -121.5 -229.5t-425.5 -103.5q-449 0 -449 239q0 82 42 129.5t120 90.5zM537 553q97 0 151 52.5t54 141.5q0 151 -165 151q-98 0 -154 -52.5t-56 -138.5q0 -154 170 -154z
M235 45q-66 -54 -66 -107q0 -67 74 -110.5t222 -43.5q287 0 287 154q0 60 -45 74.5t-229 14.5q-192 0 -243 18z" />
    <glyph glyph-name="h" unicode="h" horiz-adv-x="1102" 
d="M881 0h-224l100 601q18 105 18 129q0 134 -130 134q-89 0 -169.5 -75t-115.5 -288l-84 -501h-224l228 1365h224l-87 -525q126 207 311 207q115 0 195 -66t80 -208q0 -41 -22 -172z" />
    <glyph glyph-name="i" unicode="i" horiz-adv-x="508" 
d="M477 1135h-235l41 244h235zM287 0h-235l170 1017h235z" />
    <glyph glyph-name="j" unicode="j" horiz-adv-x="508" 
d="M477 1139h-235l41 240h235zM457 1017l-155 -927q-31 -187 -68.5 -275.5t-127 -143.5t-225.5 -55q-82 0 -154 12l13 192q60 -13 111 -13q112 0 149 52t61 193l161 965h235z" />
    <glyph glyph-name="k" unicode="k" horiz-adv-x="1110" 
d="M1012 0h-242l-177 542l-268 -248l-49 -294h-224l228 1365h224l-137 -823l512 475h239l-345 -321z" />
    <glyph glyph-name="l" unicode="l" horiz-adv-x="508" 
d="M287 0h-235l228 1365h235z" />
    <glyph glyph-name="m" unicode="m" horiz-adv-x="1746" 
d="M1525 0h-235l103 615q13 75 13 106q0 135 -143 135q-223 0 -293 -410l-76 -446h-223l99 592q17 102 17 141q0 126 -125 126q-99 0 -184.5 -94.5t-138.5 -413.5l-59 -351h-228l170 1017h224l-38 -227q45 118 136 188.5t193 70.5q234 0 266 -240q146 240 360 240
q121 0 201.5 -76t80.5 -197q0 -60 -23 -199z" />
    <glyph glyph-name="n" unicode="n" horiz-adv-x="1100" 
d="M879 0h-224l104 611q11 69 11 118q0 56 -31.5 94.5t-95.5 38.5q-102 0 -180 -103.5t-110 -300.5l-77 -458h-224l170 1017h208l-40 -237q95 178 176 221.5t158 43.5q111 0 192.5 -75.5t81.5 -210.5q0 -53 -20 -169z" />
    <glyph glyph-name="o" unicode="o" horiz-adv-x="1075" 
d="M506 -26q-113 0 -218.5 50t-161 158.5t-55.5 258.5q0 243 143 420.5t374 177.5q190 0 304 -127.5t114 -342.5q0 -221 -136 -408t-364 -187zM508 157q136 0 200 140.5t64 294.5q0 264 -204 264q-143 0 -205 -151t-62 -301q0 -127 60 -187t147 -60z" />
    <glyph glyph-name="p" unicode="p" horiz-adv-x="1082" 
d="M216 -355h-224l230 1372h200l-35 -210q126 244 316 244q143 0 232 -116t89 -313q0 -245 -120.5 -448t-314.5 -203q-209 0 -284 209zM547 154q117 0 180.5 147.5t63.5 303.5q0 263 -160 263q-121 0 -202.5 -143.5t-81.5 -316.5q0 -127 58.5 -190.5t141.5 -63.5z" />
    <glyph glyph-name="q" unicode="q" horiz-adv-x="1085" 
d="M805 -355h-224l88 531q-117 -205 -293 -205q-149 0 -229.5 110.5t-80.5 306.5q0 276 139.5 466.5t331.5 190.5q190 0 301 -184l87 156h115q-25 -113 -40 -202zM452 153q130 0 207 160.5t77 320.5q0 75 -16.5 117.5t-59 73.5t-104.5 31q-129 0 -195.5 -156t-66.5 -328
q0 -219 158 -219z" />
    <glyph glyph-name="r" unicode="r" horiz-adv-x="711" 
d="M276 0h-224l170 1017h206l-46 -277q131 305 352 305q9 0 27 -1l-29 -250q-33 2 -50 2q-83 0 -156.5 -44t-115 -118.5t-69.5 -244.5z" />
    <glyph glyph-name="s" unicode="s" horiz-adv-x="938" 
d="M177 299q59 -152 241 -152q91 0 143.5 37.5t52.5 95.5q0 43 -35.5 68t-120.5 49q-137 38 -203 70t-111 98t-45 151q0 133 101 231.5t285 98.5q299 0 420 -240l-193 -62q-67 133 -221 133q-69 0 -117 -32t-48 -86q0 -38 23.5 -63t94.5 -45q162 -48 240.5 -83.5t124 -101
t45.5 -150.5q0 -144 -110.5 -241t-327.5 -97q-347 0 -453 269z" />
    <glyph glyph-name="t" unicode="t" horiz-adv-x="657" 
d="M528 -2q-101 -15 -143 -15q-141 0 -206.5 63.5t-65.5 154.5q0 47 23 183l77 450h-151l31 183h153l61 274l204 14l-48 -288h219l-30 -183h-220l-76 -453q-14 -84 -14 -108q0 -97 144 -97q30 0 73 7z" />
    <glyph glyph-name="u" unicode="u" horiz-adv-x="1083" 
d="M862 0h-208l37 222q-129 -241 -345 -241q-120 0 -184 77t-64 171q0 49 26 202l98 586h224l-106 -631q-14 -87 -14 -107q0 -49 31 -78t81 -29q69 0 141 57t102 133.5t55 224.5l72 430h224z" />
    <glyph glyph-name="v" unicode="v" horiz-adv-x="915" 
d="M504 0h-209l-216 1017h245l135 -712l331 712h198z" />
    <glyph glyph-name="w" unicode="w" horiz-adv-x="1432" 
d="M1031 0h-210l-77 723l-294 -723h-206l-152 1017h231l92 -703l294 703h202l74 -701l314 701h198z" />
    <glyph glyph-name="x" unicode="x" horiz-adv-x="936" 
d="M870 0h-256l-181 390l-307 -390h-222l443 539l-239 478h259l141 -314l245 314h220l-377 -458z" />
    <glyph glyph-name="y" unicode="y" horiz-adv-x="933" 
d="M-57 -361l10 194q58 -9 134 -9q71 0 117.5 29.5t84.5 110.5l38 81l-249 972h240l154 -700l336 700h196l-522 -1053q-73 -146 -112 -202t-113.5 -94t-192.5 -38q-56 0 -121 9z" />
    <glyph glyph-name="z" unicode="z" horiz-adv-x="863" 
d="M731 0h-765l28 183l571 658h-432l29 176h722l-26 -158l-583 -676h486z" />
    <glyph glyph-name="braceleft" unicode="{" horiz-adv-x="601" 
d="M215 504q92 -51 92 -166q0 -23 -8 -73l-57 -339q-8 -49 -8 -74q0 -43 29.5 -67.5t149.5 -24.5l-19 -114l-90 -1q-130 0 -191.5 46.5t-61.5 160.5q0 31 9 83l57 342q7 41 7 62q0 97 -92 119l18 106q119 23 143 168l60 358q25 148 106.5 212t238.5 64q28 0 83 -2l-19 -114
q-125 0 -167 -32t-58 -129l-59 -348q-30 -180 -163 -237z" />
    <glyph glyph-name="bar" unicode="|" horiz-adv-x="1024" 
d="M425 1365h232v-1706h-232v1706z" />
    <glyph glyph-name="braceright" unicode="}" horiz-adv-x="601" 
d="M386 506q-93 51 -93 166q0 23 8 73l57 339q8 49 8 74q0 45 -30.5 69t-148.5 24l19 113l90 2q137 0 195 -51t58 -155q0 -32 -8 -85l-58 -342q-7 -40 -7 -61q0 -98 92 -119l-17 -106q-120 -24 -144 -169l-60 -357q-25 -149 -106.5 -212.5t-238.5 -63.5q-28 0 -83 2l19 113
q125 0 167 32t59 130l58 348q30 179 164 236z" />
    <glyph glyph-name="asciitilde" unicode="~" horiz-adv-x="1201" 
d="M263 493l-129 84q64 156 134.5 213.5t166.5 57.5q71 0 218 -58q134 -53 183 -53q96 0 158 115l133 -78q-113 -261 -319 -261q-57 0 -246 72q-101 39 -143 39q-94 0 -156 -131z" />
    <glyph glyph-name="Adieresis" unicode="&#xc4;" horiz-adv-x="1234" 
d="M1150 0h-273l-56 330h-495l-152 -330h-231l654 1365h303zM798 520l-107 606l-281 -606h388zM610 1512q-48 0 -79.5 31.5t-31.5 75.5t31 77.5t80 33.5q46 0 80 -29.5t34 -80.5q0 -50 -33.5 -79t-80.5 -29zM945 1512q-49 0 -80.5 32t-31.5 75q0 44 31.5 77.5t80.5 33.5
q45 0 79.5 -29.5t34.5 -80.5q0 -50 -33.5 -79t-80.5 -29z" />
    <glyph glyph-name="Aring" unicode="&#xc5;" horiz-adv-x="1234" 
d="M1150 0h-273l-56 330h-495l-152 -330h-231l654 1365h303zM798 520l-107 606l-281 -606h388zM778 1454q-77 0 -131 54t-54 131t54.5 132t130.5 55q69 0 127.5 -49t58.5 -141q0 -72 -53.5 -127t-132.5 -55zM779 1558q42 0 62 25.5t20 52.5q0 38 -21.5 62t-56.5 24
q-34 0 -60 -21t-26 -61q0 -33 21 -57.5t61 -24.5z" />
    <glyph glyph-name="Ccedilla" unicode="&#xc7;" horiz-adv-x="1211" 
d="M586 -35l-32 -65q205 0 205 -136q0 -76 -65.5 -136t-169.5 -60q-95 0 -216 61l47 82q107 -51 157 -51q47 0 76.5 24.5t29.5 59.5q0 77 -137 77q-16 0 -57 -2l75 155q-192 40 -294 202t-102 385q0 345 179 592.5t460 247.5q219 0 347 -127t146 -352l-222 -40
q-30 314 -276 314q-199 0 -286.5 -236t-87.5 -449q0 -166 73.5 -250t187.5 -84q105 0 190.5 81.5t130.5 198.5l200 -83q-177 -416 -559 -409z" />
    <glyph glyph-name="Eacute" unicode="&#xc9;" horiz-adv-x="1099" 
d="M952 0h-887l228 1365h863l-36 -214h-618l-59 -354h512l-34 -202h-512l-64 -381h643zM1021 1800l66 -136l-417 -190l-42 107z" />
    <glyph glyph-name="Ntilde" unicode="&#xd1;" horiz-adv-x="1330" 
d="M1094 0h-195l-466 1026l-171 -1026h-197l228 1365h253l425 -937l157 937h195zM1145 1731l52 -99q-88 -117 -211 -117q-61 0 -148 47q-69 38 -101 38q-47 0 -140 -80l-52 96q114 122 218 122q56 0 130 -39q81 -42 122 -42q63 0 130 74z" />
    <glyph glyph-name="Odieresis" unicode="&#xd6;" horiz-adv-x="1324" 
d="M104 581q0 314 176 568.5t471 254.5q246 0 387.5 -165t141.5 -453q0 -322 -179 -572.5t-476 -250.5q-217 0 -369 169.5t-152 448.5zM363 538q0 -200 79 -285t192 -85q198 0 291 219t93 454q0 358 -282 358q-188 0 -280.5 -225.5t-92.5 -435.5zM674 1512q-48 0 -79.5 31.5
t-31.5 75.5t31 77.5t80 33.5q46 0 80 -29.5t34 -80.5q0 -50 -33.5 -79t-80.5 -29zM1009 1512q-49 0 -80.5 32t-31.5 75q0 44 31.5 77.5t80.5 33.5q45 0 79.5 -29.5t34.5 -80.5q0 -50 -33.5 -79t-80.5 -29z" />
    <glyph glyph-name="Udieresis" unicode="&#xdc;" horiz-adv-x="1239" 
d="M1246 1365l-148 -882q-29 -174 -73.5 -269t-163 -170t-283.5 -75q-103 0 -200.5 34t-173 127.5t-75.5 251.5q0 79 19 193l132 790h252l-135 -803q-22 -130 -22 -174q0 -110 71 -159t164 -49q81 0 143.5 32t97 98t62.5 233l137 822h196zM641 1512q-48 0 -79.5 31.5
t-31.5 75.5t31 77.5t80 33.5q46 0 80 -29.5t34 -80.5q0 -50 -33.5 -79t-80.5 -29zM976 1512q-49 0 -80.5 32t-31.5 75q0 44 31.5 77.5t80.5 33.5q45 0 79.5 -29.5t34.5 -80.5q0 -50 -33.5 -79t-80.5 -29z" />
    <glyph glyph-name="aacute" unicode="&#xe1;" horiz-adv-x="1097" 
d="M896 0h-221q-2 27 -2 44q0 73 18 175q-50 -114 -144 -179.5t-207 -65.5q-136 0 -221.5 84.5t-85.5 208.5q0 171 152.5 272t477.5 101q42 0 98 -4q7 46 7 73q0 82 -56.5 124t-140.5 42q-161 0 -235 -141l-200 63q126 248 445 248q190 0 300 -86t110 -229q0 -61 -48 -322
q-51 -275 -51 -349q0 -27 4 -59zM741 519q-261 -14 -363 -69t-102 -161q0 -61 41 -99.5t112 -38.5q102 0 189 89.5t123 278.5zM854 1487l66 -136l-417 -190l-42 107z" />
    <glyph glyph-name="agrave" unicode="&#xe0;" horiz-adv-x="1097" 
d="M896 0h-221q-2 27 -2 44q0 73 18 175q-50 -114 -144 -179.5t-207 -65.5q-136 0 -221.5 84.5t-85.5 208.5q0 171 152.5 272t477.5 101q42 0 98 -4q7 46 7 73q0 82 -56.5 124t-140.5 42q-161 0 -235 -141l-200 63q126 248 445 248q190 0 300 -86t110 -229q0 -61 -48 -322
q-51 -275 -51 -349q0 -27 4 -59zM741 519q-261 -14 -363 -69t-102 -161q0 -61 41 -99.5t112 -38.5q102 0 189 89.5t123 278.5zM439 1487l343 -219l-49 -107l-373 196z" />
    <glyph glyph-name="acircumflex" unicode="&#xe2;" horiz-adv-x="1097" 
d="M896 0h-221q-2 27 -2 44q0 73 18 175q-50 -114 -144 -179.5t-207 -65.5q-136 0 -221.5 84.5t-85.5 208.5q0 171 152.5 272t477.5 101q42 0 98 -4q7 46 7 73q0 82 -56.5 124t-140.5 42q-161 0 -235 -141l-200 63q126 248 445 248q190 0 300 -86t110 -229q0 -61 -48 -322
q-51 -275 -51 -349q0 -27 4 -59zM741 519q-261 -14 -363 -69t-102 -161q0 -61 41 -99.5t112 -38.5q102 0 189 89.5t123 278.5zM701 1476l286 -288l-178 -21l-131 132l-203 -132l-177 21z" />
    <glyph glyph-name="adieresis" unicode="&#xe4;" horiz-adv-x="1097" 
d="M896 0h-221q-2 27 -2 44q0 73 18 175q-50 -114 -144 -179.5t-207 -65.5q-136 0 -221.5 84.5t-85.5 208.5q0 171 152.5 272t477.5 101q42 0 98 -4q7 46 7 73q0 82 -56.5 124t-140.5 42q-161 0 -235 -141l-200 63q126 248 445 248q190 0 300 -86t110 -229q0 -61 -48 -322
q-51 -275 -51 -349q0 -27 4 -59zM741 519q-261 -14 -363 -69t-102 -161q0 -61 41 -99.5t112 -38.5q102 0 189 89.5t123 278.5zM500 1188q-48 0 -79.5 31.5t-31.5 75.5t31 77.5t80 33.5q46 0 80 -29.5t34 -80.5q0 -50 -33.5 -79t-80.5 -29zM835 1188q-49 0 -80.5 32t-31.5 75
q0 44 31.5 77.5t80.5 33.5q45 0 79.5 -29.5t34.5 -80.5q0 -50 -33.5 -79t-80.5 -29z" />
    <glyph glyph-name="atilde" unicode="&#xe3;" horiz-adv-x="1097" 
d="M896 0h-221q-2 27 -2 44q0 73 18 175q-50 -114 -144 -179.5t-207 -65.5q-136 0 -221.5 84.5t-85.5 208.5q0 171 152.5 272t477.5 101q42 0 98 -4q7 46 7 73q0 82 -56.5 124t-140.5 42q-161 0 -235 -141l-200 63q126 248 445 248q190 0 300 -86t110 -229q0 -61 -48 -322
q-51 -275 -51 -349q0 -27 4 -59zM741 519q-261 -14 -363 -69t-102 -161q0 -61 41 -99.5t112 -38.5q102 0 189 89.5t123 278.5zM941 1417l52 -99q-88 -117 -211 -117q-61 0 -148 47q-69 38 -101 38q-47 0 -140 -80l-52 96q114 122 218 122q56 0 130 -39q81 -42 122 -42
q63 0 130 74z" />
    <glyph glyph-name="aring" unicode="&#xe5;" horiz-adv-x="1097" 
d="M896 0h-221q-2 27 -2 44q0 73 18 175q-50 -114 -144 -179.5t-207 -65.5q-136 0 -221.5 84.5t-85.5 208.5q0 171 152.5 272t477.5 101q42 0 98 -4q7 46 7 73q0 82 -56.5 124t-140.5 42q-161 0 -235 -141l-200 63q126 248 445 248q190 0 300 -86t110 -229q0 -61 -48 -322
q-51 -275 -51 -349q0 -27 4 -59zM741 519q-261 -14 -363 -69t-102 -161q0 -61 41 -99.5t112 -38.5q102 0 189 89.5t123 278.5zM675 1133q-77 0 -131 54t-54 131t54.5 132t130.5 55q69 0 127.5 -49t58.5 -141q0 -72 -53.5 -127t-132.5 -55zM676 1237q42 0 62 25.5t20 52.5
q0 38 -21.5 62t-56.5 24q-34 0 -60 -21t-26 -61q0 -33 21 -57.5t61 -24.5z" />
    <glyph glyph-name="ccedilla" unicode="&#xe7;" horiz-adv-x="979" 
d="M908 302q-144 -324 -432 -324q-179 0 -292 120.5t-113 338.5q0 246 139 428t349 182q159 0 265.5 -92.5t133.5 -262.5l-190 -37q-40 200 -199 200q-118 0 -192 -134t-74 -309q0 -133 56 -188.5t133 -55.5q150 0 228 201zM475 0l-42 -93q72 0 123.5 -36t51.5 -98
q0 -65 -62.5 -120.5t-152.5 -55.5q-66 0 -187 60l46 78q76 -46 139 -46q85 0 85 66q0 74 -166 74l83 171h82z" />
    <glyph glyph-name="eacute" unicode="&#xe9;" horiz-adv-x="1068" 
d="M942 287q-140 -312 -444 -312q-200 0 -314.5 123t-114.5 327q0 260 144.5 439t371.5 179q204 0 308.5 -129t104.5 -352q0 -37 -3 -80h-699q-7 -43 -7 -76q0 -115 55.5 -185t157.5 -70q158 0 240 189zM786 627q0 258 -200 258q-207 0 -266 -258h466zM854 1487l66 -136
l-417 -190l-42 107z" />
    <glyph glyph-name="egrave" unicode="&#xe8;" horiz-adv-x="1068" 
d="M942 287q-140 -312 -444 -312q-200 0 -314.5 123t-114.5 327q0 260 144.5 439t371.5 179q204 0 308.5 -129t104.5 -352q0 -37 -3 -80h-699q-7 -43 -7 -76q0 -115 55.5 -185t157.5 -70q158 0 240 189zM786 627q0 258 -200 258q-207 0 -266 -258h466zM439 1487l343 -219
l-49 -107l-373 196z" />
    <glyph glyph-name="ecircumflex" unicode="&#xea;" horiz-adv-x="1068" 
d="M942 287q-140 -312 -444 -312q-200 0 -314.5 123t-114.5 327q0 260 144.5 439t371.5 179q204 0 308.5 -129t104.5 -352q0 -37 -3 -80h-699q-7 -43 -7 -76q0 -115 55.5 -185t157.5 -70q158 0 240 189zM786 627q0 258 -200 258q-207 0 -266 -258h466zM695 1476l286 -288
l-178 -21l-131 132l-203 -132l-177 21z" />
    <glyph glyph-name="edieresis" unicode="&#xeb;" horiz-adv-x="1068" 
d="M942 287q-140 -312 -444 -312q-200 0 -314.5 123t-114.5 327q0 260 144.5 439t371.5 179q204 0 308.5 -129t104.5 -352q0 -37 -3 -80h-699q-7 -43 -7 -76q0 -115 55.5 -185t157.5 -70q158 0 240 189zM786 627q0 258 -200 258q-207 0 -266 -258h466zM495 1188
q-48 0 -79.5 31.5t-31.5 75.5t31 77.5t80 33.5q46 0 80 -29.5t34 -80.5q0 -50 -33.5 -79t-80.5 -29zM830 1188q-49 0 -80.5 32t-31.5 75q0 44 31.5 77.5t80.5 33.5q45 0 79.5 -29.5t34.5 -80.5q0 -50 -33.5 -79t-80.5 -29z" />
    <glyph glyph-name="iacute" unicode="&#xed;" horiz-adv-x="508" 
d="M287 0h-235l170 1017h235zM613 1487l66 -136l-417 -190l-42 107z" />
    <glyph glyph-name="igrave" unicode="&#xec;" horiz-adv-x="508" 
d="M287 0h-235l170 1017h235zM174 1487l343 -219l-49 -107l-373 196z" />
    <glyph glyph-name="icircumflex" unicode="&#xee;" horiz-adv-x="508" 
d="M287 0h-235l170 1017h235zM455 1476l286 -288l-178 -21l-131 132l-203 -132l-177 21z" />
    <glyph glyph-name="idieresis" unicode="&#xef;" horiz-adv-x="508" 
d="M287 0h-235l170 1017h235zM247 1188q-48 0 -79.5 31.5t-31.5 75.5t31 77.5t80 33.5q46 0 80 -29.5t34 -80.5q0 -50 -33.5 -79t-80.5 -29zM582 1188q-49 0 -80.5 32t-31.5 75q0 44 31.5 77.5t80.5 33.5q45 0 79.5 -29.5t34.5 -80.5q0 -50 -33.5 -79t-80.5 -29z" />
    <glyph glyph-name="ntilde" unicode="&#xf1;" horiz-adv-x="1100" 
d="M879 0h-224l104 611q11 69 11 118q0 56 -31.5 94.5t-95.5 38.5q-102 0 -180 -103.5t-110 -300.5l-77 -458h-224l170 1017h208l-40 -237q95 178 176 221.5t158 43.5q111 0 192.5 -75.5t81.5 -210.5q0 -53 -20 -169zM945 1417l52 -99q-88 -117 -211 -117q-61 0 -148 47
q-69 38 -101 38q-47 0 -140 -80l-52 96q114 122 218 122q56 0 130 -39q81 -42 122 -42q63 0 130 74z" />
    <glyph glyph-name="oacute" unicode="&#xf3;" horiz-adv-x="1075" 
d="M506 -26q-113 0 -218.5 50t-161 158.5t-55.5 258.5q0 243 143 420.5t374 177.5q190 0 304 -127.5t114 -342.5q0 -221 -136 -408t-364 -187zM508 157q136 0 200 140.5t64 294.5q0 264 -204 264q-143 0 -205 -151t-62 -301q0 -127 60 -187t147 -60zM900 1487l66 -136
l-417 -190l-42 107z" />
    <glyph glyph-name="ograve" unicode="&#xf2;" horiz-adv-x="1075" 
d="M506 -26q-113 0 -218.5 50t-161 158.5t-55.5 258.5q0 243 143 420.5t374 177.5q190 0 304 -127.5t114 -342.5q0 -221 -136 -408t-364 -187zM508 157q136 0 200 140.5t64 294.5q0 264 -204 264q-143 0 -205 -151t-62 -301q0 -127 60 -187t147 -60zM468 1487l343 -219
l-49 -107l-373 196z" />
    <glyph glyph-name="ocircumflex" unicode="&#xf4;" horiz-adv-x="1075" 
d="M506 -26q-113 0 -218.5 50t-161 158.5t-55.5 258.5q0 243 143 420.5t374 177.5q190 0 304 -127.5t114 -342.5q0 -221 -136 -408t-364 -187zM508 157q136 0 200 140.5t64 294.5q0 264 -204 264q-143 0 -205 -151t-62 -301q0 -127 60 -187t147 -60zM703 1476l286 -288
l-178 -21l-131 132l-203 -132l-177 21z" />
    <glyph glyph-name="odieresis" unicode="&#xf6;" horiz-adv-x="1075" 
d="M506 -26q-113 0 -218.5 50t-161 158.5t-55.5 258.5q0 243 143 420.5t374 177.5q190 0 304 -127.5t114 -342.5q0 -221 -136 -408t-364 -187zM508 157q136 0 200 140.5t64 294.5q0 264 -204 264q-143 0 -205 -151t-62 -301q0 -127 60 -187t147 -60zM492 1188
q-48 0 -79.5 31.5t-31.5 75.5t31 77.5t80 33.5q46 0 80 -29.5t34 -80.5q0 -50 -33.5 -79t-80.5 -29zM827 1188q-49 0 -80.5 32t-31.5 75q0 44 31.5 77.5t80.5 33.5q45 0 79.5 -29.5t34.5 -80.5q0 -50 -33.5 -79t-80.5 -29z" />
    <glyph glyph-name="otilde" unicode="&#xf5;" horiz-adv-x="1075" 
d="M506 -26q-113 0 -218.5 50t-161 158.5t-55.5 258.5q0 243 143 420.5t374 177.5q190 0 304 -127.5t114 -342.5q0 -221 -136 -408t-364 -187zM508 157q136 0 200 140.5t64 294.5q0 264 -204 264q-143 0 -205 -151t-62 -301q0 -127 60 -187t147 -60zM948 1417l52 -99
q-88 -117 -211 -117q-61 0 -148 47q-69 38 -101 38q-47 0 -140 -80l-52 96q114 122 218 122q56 0 130 -39q81 -42 122 -42q63 0 130 74z" />
    <glyph glyph-name="uacute" unicode="&#xfa;" horiz-adv-x="1083" 
d="M862 0h-208l37 222q-129 -241 -345 -241q-120 0 -184 77t-64 171q0 49 26 202l98 586h224l-106 -631q-14 -87 -14 -107q0 -49 31 -78t81 -29q69 0 141 57t102 133.5t55 224.5l72 430h224zM906 1487l66 -136l-417 -190l-42 107z" />
    <glyph glyph-name="ugrave" unicode="&#xf9;" horiz-adv-x="1083" 
d="M862 0h-208l37 222q-129 -241 -345 -241q-120 0 -184 77t-64 171q0 49 26 202l98 586h224l-106 -631q-14 -87 -14 -107q0 -49 31 -78t81 -29q69 0 141 57t102 133.5t55 224.5l72 430h224zM474 1487l343 -219l-49 -107l-373 196z" />
    <glyph glyph-name="ucircumflex" unicode="&#xfb;" horiz-adv-x="1083" 
d="M862 0h-208l37 222q-129 -241 -345 -241q-120 0 -184 77t-64 171q0 49 26 202l98 586h224l-106 -631q-14 -87 -14 -107q0 -49 31 -78t81 -29q69 0 141 57t102 133.5t55 224.5l72 430h224zM719 1476l286 -288l-178 -21l-131 132l-203 -132l-177 21z" />
    <glyph glyph-name="udieresis" unicode="&#xfc;" horiz-adv-x="1083" 
d="M862 0h-208l37 222q-129 -241 -345 -241q-120 0 -184 77t-64 171q0 49 26 202l98 586h224l-106 -631q-14 -87 -14 -107q0 -49 31 -78t81 -29q69 0 141 57t102 133.5t55 224.5l72 430h224zM498 1188q-48 0 -79.5 31.5t-31.5 75.5t31 77.5t80 33.5q46 0 80 -29.5t34 -80.5
q0 -50 -33.5 -79t-80.5 -29zM833 1188q-49 0 -80.5 32t-31.5 75q0 44 31.5 77.5t80.5 33.5q45 0 79.5 -29.5t34.5 -80.5q0 -50 -33.5 -79t-80.5 -29z" />
    <glyph glyph-name="dagger" unicode="&#x2020;" horiz-adv-x="1201" 
d="M635 1365h219l-63 -376h366l-31 -188h-367l-193 -1156h-218l193 1156h-366l31 188h367z" />
    <glyph glyph-name="degree" unicode="&#xb0;" horiz-adv-x="1201" 
d="M703 1393q116 0 194.5 -81t78.5 -192q0 -112 -79.5 -192.5t-193.5 -80.5q-116 0 -194.5 82t-78.5 191q0 107 77 190t196 83zM704 1256q-58 0 -97 -41t-39 -95q0 -53 38.5 -94.5t97.5 -41.5q56 0 96 40t40 96q0 55 -39 95.5t-97 40.5z" />
    <glyph glyph-name="cent" unicode="&#xa2;" horiz-adv-x="1201" 
d="M993 479q-119 -258 -372 -260l-54 -324h-113l56 338q-269 72 -269 392q0 221 117.5 371t306.5 162l43 258h114l-45 -268q225 -47 278 -296l-177 -36q-15 153 -128 173l-103 -617q128 1 208 172zM642 993q-103 -16 -151.5 -132.5t-48.5 -251.5q0 -166 99 -216z" />
    <glyph glyph-name="sterling" unicode="&#xa3;" horiz-adv-x="1201" 
d="M1179 315q-73 -164 -205.5 -239.5t-340.5 -75.5h-723l38 230q152 4 212 35t92 76t52 95t22 210h-163l30 177h139q-1 31 -1 48q0 263 141 406t348 143q258 0 350 -252l-207 -90q-39 153 -168 153q-64 0 -114.5 -39t-74 -101.5t-23.5 -232.5v-35h259l-29 -177h-241
q-23 -300 -219 -418h269q171 0 247.5 45.5t112.5 151.5z" />
    <glyph glyph-name="section" unicode="&#xa7;" horiz-adv-x="1201" 
d="M16 -71l227 39q69 -166 281 -166q99 0 157 48t58 112q0 58 -44.5 97.5t-154.5 83.5q-170 68 -226 99.5t-93.5 93.5t-37.5 145q0 211 218 337q-92 63 -92 197q0 158 125.5 261t312.5 103q122 0 234 -54.5t180 -188.5l-189 -57q-67 143 -240 143q-84 0 -145.5 -40.5
t-61.5 -100.5q0 -44 30 -71t135 -69q196 -80 255.5 -120.5t90 -99t30.5 -134.5q0 -193 -188 -327q106 -73 106 -224q0 -170 -128 -287.5t-349 -117.5q-362 0 -491 298zM521 746q-127 -86 -127 -169q0 -43 35 -85t184 -106q61 -25 128 -56q119 92 119 178q0 58 -51 98.5
t-194 97.5q-53 21 -94 42z" />
    <glyph glyph-name="bullet" unicode="&#x2022;" horiz-adv-x="1365" 
d="M998 696q0 -117 -82.5 -201.5t-198.5 -84.5q-119 0 -200.5 84.5t-81.5 201.5q0 118 82.5 202t199.5 84q116 0 198.5 -84t82.5 -202z" />
    <glyph glyph-name="paragraph" unicode="&#xb6;" horiz-adv-x="1201" 
d="M1258 1365l-19 -114h-136l-266 -1586h-114l265 1586h-112l-265 -1586h-118l174 1038h-76q-170 0 -243.5 20.5t-119.5 84t-46 162.5q0 137 69 233t164.5 129t291.5 33h551zM686 818l72 433h-58q-160 0 -211 -27t-81 -93.5t-30 -128.5q0 -104 49 -144t178 -40h81z" />
    <glyph glyph-name="germandbls" unicode="&#xdf;" horiz-adv-x="1149" 
d="M294 -50h-235l139 833h-114l31 184h114q34 268 176 398t341 130q172 0 274 -88t102 -211q0 -101 -78 -192.5t-317 -124.5q-42 -6 -42 -33q0 -21 20 -34t104 -51q173 -77 228 -170t55 -188q0 -166 -123 -297.5t-329 -131.5q-115 0 -238 50l61 166q95 -33 173 -33
q103 0 168 50.5t65 124.5q0 47 -30.5 91t-145.5 109q-121 67 -153.5 118.5t-32.5 106.5q0 64 33 126.5t69 85t131 49.5q150 42 150 162q0 63 -43.5 106.5t-118.5 43.5q-87 0 -155 -60t-109 -303z" />
    <glyph glyph-name="registered" unicode="&#xae;" horiz-adv-x="1584" 
d="M1530 682q0 -292 -208 -501.5t-499 -209.5q-293 0 -502 209.5t-209 502.5t208.5 502t504.5 209q291 0 498 -209t207 -503zM1403 683q0 245 -170.5 421t-408.5 176q-243 0 -414 -175.5t-171 -421.5q0 -248 171.5 -423t411.5 -175q238 0 409.5 175t171.5 423zM1100 273
h-165l-78 330h-160l-55 -330h-156l137 819h296q90 0 142 -18.5t91 -77t39 -130.5q0 -77 -45 -149.5t-136 -93.5zM719 735h178q133 0 133 119q0 59 -33 83t-101 24h-139z" />
    <glyph glyph-name="copyright" unicode="&#xa9;" horiz-adv-x="1584" 
d="M1530 682q0 -292 -208 -501.5t-499 -209.5q-293 0 -502 209.5t-209 502.5t208.5 502t504.5 209q291 0 498 -209t207 -503zM1403 683q0 245 -170.5 421t-408.5 176q-243 0 -414 -175.5t-171 -421.5q0 -248 171.5 -423t411.5 -175q238 0 409.5 175t171.5 423zM1130 504
q-109 -252 -347 -252q-144 0 -233.5 98t-89.5 268q0 202 112 348.5t292 146.5q142 0 224.5 -79t93.5 -215l-159 -27q-18 187 -163 187q-67 0 -113.5 -48t-75 -154.5t-28.5 -192.5q0 -93 42 -143t112 -50q122 0 190 170z" />
    <glyph glyph-name="trademark" unicode="&#x2122;" horiz-adv-x="1573" 
d="M709 1232h-211l-108 -645h-175l107 645h-211l22 133h599zM1506 587h-171l106 636l-315 -636h-99l-112 633l-105 -633h-139l130 778h248l89 -486l234 486h264z" />
    <glyph glyph-name="acute" unicode="&#xb4;" horiz-adv-x="1024" 
d="M854 1487l66 -136l-417 -190l-42 107z" />
    <glyph glyph-name="dieresis" unicode="&#xa8;" horiz-adv-x="1024" 
d="M476 1188q-48 0 -79.5 31.5t-31.5 75.5t31 77.5t80 33.5q46 0 80 -29.5t34 -80.5q0 -50 -33.5 -79t-80.5 -29zM811 1188q-49 0 -80.5 32t-31.5 75q0 44 31.5 77.5t80.5 33.5q45 0 79.5 -29.5t34.5 -80.5q0 -50 -33.5 -79t-80.5 -29z" />
    <glyph glyph-name="notequal" unicode="&#x2260;" horiz-adv-x="1201" 
d="M660 946l112 224l149 -74l-75 -150h227v-208h-322l-75 -152h398v-209h-493l-103 -206l-149 73l66 133h-209v209h304l76 152h-380v208h474z" />
    <glyph glyph-name="AE" unicode="&#xc6;" horiz-adv-x="1717" 
d="M1571 0h-906l59 351h-390l-224 -351h-229l895 1365h998l-35 -214h-637l-59 -355h530l-34 -201h-530l-63 -381h661zM755 537l105 626l-405 -626h300z" />
    <glyph glyph-name="Oslash" unicode="&#xd8;" horiz-adv-x="1324" 
d="M290 94l-115 -125h-197l211 252q-85 160 -85 359q0 310 177 567t469 257q210 0 346 -122l101 109h198l-198 -233q84 -167 84 -364q0 -339 -182 -585t-469 -246q-187 0 -340 131zM941 1117q-77 82 -205 82q-185 0 -279 -226t-94 -466q0 -34 8 -88zM438 257q79 -89 202 -89
q187 0 283 211t96 472q0 49 -11 107z" />
    <glyph glyph-name="infinity" unicode="&#x221e;" horiz-adv-x="1460" 
d="M656 831q117 150 187 191.5t146 41.5q110 0 199 -78.5t89 -242.5q0 -187 -93 -261.5t-195 -74.5q-78 0 -148 43t-185 190q-136 -172 -288 -172q-112 0 -179.5 83t-67.5 184q0 102 67.5 184.5t179.5 82.5q152 0 288 -171zM725 737q47 -76 114 -147t147 -71
q69 0 124.5 50.5t55.5 163.5q0 104 -52 161t-131 57q-56 0 -108 -40t-150 -174zM587 735q-122 158 -220 158q-61 0 -98 -43.5t-37 -110.5q0 -71 39.5 -114t97.5 -43q100 0 218 153z" />
    <glyph glyph-name="plusminus" unicode="&#xb1;" horiz-adv-x="1201" 
d="M1096 785v-191h-411v-425h-190v425h-411v191h411v426h190v-426h411zM1096 102v-191h-1012v191h1012z" />
    <glyph glyph-name="lessequal" unicode="&#x2264;" horiz-adv-x="1201" 
d="M1074 1333v-217l-641 -300l640 -299l1 -217l-887 419v195zM1074 241v-209h-887v209h887z" />
    <glyph glyph-name="greaterequal" unicode="&#x2265;" horiz-adv-x="1201" 
d="M187 300v217l642 300l-641 299l-1 217l887 -419v-196zM187 32v209h887v-209h-887z" />
    <glyph glyph-name="yen" unicode="&#xa5;" horiz-adv-x="1201" 
d="M186 867h218l-203 498h254l231 -590l381 590h214l-327 -498h244l-21 -123h-303l-119 -181l-4 -21h392l-20 -123h-392l-70 -419h-234l70 419h-386l21 123h386l5 33l-68 169h-290z" />
    <glyph glyph-name="uni00B5" unicode="&#xb5;" horiz-adv-x="1201" 
d="M34 -355l230 1372h224l-92 -548q-15 -90 -15 -136q0 -76 43 -126.5t113 -50.5q80 0 152 58.5t105 254.5l92 548h224l-171 -1017h-188l27 158q-108 -185 -261 -185q-136 0 -178 154l-81 -482h-224z" />
    <glyph glyph-name="partialdiff" unicode="&#x2202;" horiz-adv-x="1012" 
d="M364 1138l-135 60q64 150 163.5 221.5t196.5 71.5q148 0 235 -139.5t87 -425.5q0 -437 -181.5 -695.5t-429.5 -258.5q-135 0 -220.5 92t-85.5 256q0 258 197 428t605 176q-2 250 -57 344.5t-148 94.5q-143 0 -227 -225zM792 796q-246 -12 -362 -70t-186 -180.5
t-70 -242.5q0 -88 53.5 -139.5t116.5 -51.5q144 0 279 169.5t169 514.5z" />
    <glyph glyph-name="summation" unicode="&#x2211;" horiz-adv-x="1460" 
d="M108 1536h1237v-164h-988l607 -796l-646 -841h1037v-161h-1264v187l620 808l-603 791v176z" />
    <glyph glyph-name="product" unicode="&#x220f;" horiz-adv-x="1685" 
d="M130 1536h1362v-1962h-191v1788h-978v-1788h-193v1962z" />
    <glyph glyph-name="uniF006" horiz-adv-x="1128" 
d="M82 0l140 837h-122l30 180h1038l-30 -180h-122l-140 -837h-224l140 837h-346l-140 -837h-224z" />
    <glyph glyph-name="integral" unicode="&#x222b;" horiz-adv-x="561" 
d="M435 1863q54 0 89.5 -34.5t35.5 -72.5q0 -44 -25.5 -74t-66.5 -30q-35 0 -76 36q-23 20 -40 20q-40 0 -40 -64q0 -42 9 -145q37 -410 37 -665q0 -67 -12 -470t-77 -493.5t-151 -90.5q-49 0 -83.5 32.5t-34.5 88.5q0 43 24.5 71t65.5 28q40 0 70 -33q28 -31 48 -31
q39 0 39 61q0 42 -9 120q-37 316 -37 831q0 589 56 752t178 163z" />
    <glyph glyph-name="ordfeminine" unicode="&#xaa;" horiz-adv-x="721" 
d="M689 771h-159q-2 12 -2 22q0 7 2 38q0 8 1 25q-72 -100 -200 -100q-96 0 -148.5 55.5t-52.5 123.5q0 106 99 166.5t291 60.5q21 0 60 -1q4 19 4 33q0 93 -114 93q-93 0 -138 -86l-143 43q84 157 289 157q121 0 193 -53t72 -140q0 -37 -28 -190q-29 -159 -29 -203
q0 -18 3 -44zM566 1076q-157 -10 -210.5 -39.5t-53.5 -87.5q0 -75 86 -75q59 0 108 50t70 152z" />
    <glyph glyph-name="ordmasculine" unicode="&#xba;" horiz-adv-x="707" 
d="M434 759q-115 0 -198 67.5t-83 218.5q0 146 91.5 251t237.5 105q125 0 198.5 -79.5t73.5 -198.5q0 -148 -89 -256t-231 -108zM437 881q76 0 113 78.5t37 176.5q0 143 -118 143q-82 0 -116.5 -87.5t-34.5 -169.5q0 -141 119 -141z" />
    <glyph glyph-name="uni2126" unicode="&#x2126;" horiz-adv-x="1573" 
d="M376 160q-266 173 -266 510q0 350 212.5 591.5t547.5 241.5q262 0 411.5 -162t149.5 -418q0 -237 -114 -439.5t-326 -323.5l365 7l-23 -167h-575l24 179q199 85 318 283.5t119 439.5q0 209 -99.5 323.5t-272.5 114.5q-233 0 -381 -200.5t-148 -479.5q0 -354 269 -481
l-25 -179h-577l23 167z" />
    <glyph glyph-name="ae" unicode="&#xe6;" horiz-adv-x="1698" 
d="M1570 280q-145 -305 -447 -305q-276 0 -375 241q-158 -242 -398 -242q-141 0 -229 82.5t-88 211.5q0 371 630 371q41 0 94 -3q8 35 8 62q0 176 -199 176q-157 0 -230 -138l-198 63q133 243 441 243q224 0 325 -126q121 126 315 126q186 0 300 -123t114 -329
q0 -48 -8 -109h-700q-8 -43 -8 -77q0 -116 57.5 -184t158.5 -68q158 0 238 185zM1420 625v23q0 91 -49 162t-158 71q-105 0 -174.5 -79.5t-85.5 -176.5h467zM737 517q-243 -11 -354.5 -61t-111.5 -166q0 -67 44 -103t112 -36q108 0 194 96t116 270z" />
    <glyph glyph-name="oslash" unicode="&#xf8;" horiz-adv-x="1075" 
d="M226 59l-76 -88h-149l145 175q-75 126 -75 294q0 241 141.5 420.5t367.5 179.5q160 0 263 -84l78 87h146l-144 -169q84 -124 84 -292q0 -247 -143 -427.5t-364 -180.5q-150 0 -274 85zM704 809q-51 48 -138 48q-137 0 -201 -149.5t-64 -313.5q0 -36 9 -75zM362 215
q61 -58 141 -58q137 0 203.5 140t66.5 310q0 49 -12 97z" />
    <glyph glyph-name="questiondown" unicode="&#xbf;" horiz-adv-x="992" 
d="M464 1010h245l-42 -254h-246zM437 629h189q-25 -190 -62 -246t-170 -144q-174 -115 -174 -243q0 -78 53.5 -129t133.5 -51q95 0 164 68.5t97 182.5l203 -79q-64 -176 -191 -275.5t-288 -99.5q-185 0 -299 108.5t-114 270.5q0 94 53 198t233 194q111 57 139.5 109
t32.5 136z" />
    <glyph glyph-name="exclamdown" unicode="&#xa1;" horiz-adv-x="505" 
d="M229 631h104l-34 -985h-290zM214 1011h246l-42 -253h-246z" />
    <glyph glyph-name="logicalnot" unicode="&#xac;" horiz-adv-x="1201" 
d="M842 0v338h-655v208h887v-546h-232z" />
    <glyph glyph-name="radical" unicode="&#x221a;" horiz-adv-x="1124" 
d="M1047 1869h74l-312 -1947l-496 1021l-198 -91l-34 64l301 151l405 -823z" />
    <glyph glyph-name="florin" unicode="&#x192;" horiz-adv-x="1201" 
d="M-63 -263l66 184l25 -1q34 -1 56 -1q66 0 105.5 22.5t61.5 62t58 144.5l281 805h-146l56 183h154q68 234 185.5 313.5t288.5 79.5q54 0 115 -9l-67 -192q-33 3 -60 3q-90 0 -144.5 -28.5t-96.5 -166.5h216l-66 -183h-211l-280 -805q-40 -115 -68.5 -173t-90.5 -121.5
t-143 -96t-185 -32.5q-59 0 -110 12z" />
    <glyph glyph-name="approxequal" unicode="&#x2248;" horiz-adv-x="1201" 
d="M263 699l-129 84q66 158 136 214.5t166 56.5q70 0 217 -58q134 -53 182 -53q97 0 159 114l133 -77q-113 -261 -319 -261q-57 0 -246 72q-101 38 -143 38q-94 0 -156 -130zM263 304l-129 84q67 161 137 216t165 55q70 0 217 -58q134 -53 183 -53q96 0 158 115l133 -78
q-114 -260 -320 -260q-56 0 -245 71q-101 39 -143 39q-94 0 -156 -131z" />
    <glyph glyph-name="uni2206" unicode="&#x2206;" horiz-adv-x="1253" 
d="M1226 0h-1200l628 1387zM990 82l-399 967l-440 -967h839z" />
    <glyph glyph-name="guillemotleft" unicode="&#xab;" horiz-adv-x="675" 
d="M538 224h-89l-124 292l203 281h106l-154 -287zM287 224h-87l-124 288l202 285h105l-153 -291z" />
    <glyph glyph-name="guillemotright" unicode="&#xbb;" horiz-adv-x="674" 
d="M137 797h89l124 -292l-202 -281h-107l155 287zM388 797h88l123 -288l-202 -285h-105l154 291z" />
    <glyph glyph-name="ellipsis" unicode="&#x2026;" horiz-adv-x="1494" 
d="M284 0h-239l42 250h239zM781 0h-238l42 250h238zM1279 0h-239l42 250h239z" />
    <glyph glyph-name="uni00A0" unicode="&#xa0;" horiz-adv-x="512" 
 />
    <glyph glyph-name="Agrave" unicode="&#xc0;" horiz-adv-x="1234" 
d="M1150 0h-273l-56 330h-495l-152 -330h-231l654 1365h303zM798 520l-107 606l-281 -606h388zM541 1800l343 -219l-49 -107l-373 196z" />
    <glyph glyph-name="Atilde" unicode="&#xc3;" horiz-adv-x="1234" 
d="M1150 0h-273l-56 330h-495l-152 -330h-231l654 1365h303zM798 520l-107 606l-281 -606h388zM1066 1731l52 -99q-88 -117 -211 -117q-61 0 -148 47q-69 38 -101 38q-47 0 -140 -80l-52 96q114 122 218 122q56 0 130 -39q81 -42 122 -42q63 0 130 74z" />
    <glyph glyph-name="Otilde" unicode="&#xd5;" horiz-adv-x="1324" 
d="M104 581q0 314 176 568.5t471 254.5q246 0 387.5 -165t141.5 -453q0 -322 -179 -572.5t-476 -250.5q-217 0 -369 169.5t-152 448.5zM363 538q0 -200 79 -285t192 -85q198 0 291 219t93 454q0 358 -282 358q-188 0 -280.5 -225.5t-92.5 -435.5zM1129 1731l52 -99
q-88 -117 -211 -117q-61 0 -148 47q-69 38 -101 38q-47 0 -140 -80l-52 96q114 122 218 122q56 0 130 -39q81 -42 122 -42q63 0 130 74z" />
    <glyph glyph-name="OE" unicode="&#x152;" horiz-adv-x="1766" 
d="M1620 0h-799q-109 -33 -206 -33q-224 0 -365.5 170t-141.5 448q0 350 184.5 582t448.5 232q108 0 218 -31h862l-36 -214h-599l-61 -365h498l-33 -201h-498l-63 -374h627zM939 1138q-88 62 -189 62q-180 0 -281 -209t-101 -453q0 -175 69 -270.5t200 -95.5q83 0 148 46z
" />
    <glyph glyph-name="oe" unicode="&#x153;" horiz-adv-x="1707" 
d="M1585 288q-142 -314 -447 -314q-202 0 -318 143q-128 -151 -328 -151q-190 0 -306.5 125t-116.5 349q0 230 142.5 411.5t366.5 181.5q185 0 314 -136q144 145 346 145q168 0 284.5 -117t116.5 -342q0 -42 -4 -101h-689q-6 -48 -6 -79q0 -126 59 -188.5t153 -62.5
q158 0 234 188zM1432 625q-7 254 -205 254q-190 0 -256 -254h461zM500 149q140 0 203.5 144.5t63.5 304.5q0 123 -54.5 187.5t-144.5 64.5q-130 0 -197.5 -136t-67.5 -313q0 -113 48.5 -182.5t148.5 -69.5z" />
    <glyph glyph-name="endash" unicode="&#x2013;" horiz-adv-x="1201" 
d="M998 414h-826l31 183h826z" />
    <glyph glyph-name="emdash" unicode="&#x2014;" horiz-adv-x="1365" 
d="M1403 414h-1472l31 183h1471z" />
    <glyph glyph-name="quotedblleft" unicode="&#x201c;" horiz-adv-x="757" 
d="M416 1365h79l-151 -269h96l-37 -225h-212l35 209zM704 1365h80l-153 -269h95l-38 -225h-206l35 208z" />
    <glyph glyph-name="quotedblright" unicode="&#x201d;" horiz-adv-x="757" 
d="M545 871h-79l151 269h-96l38 225h211l-35 -209zM258 871h-81l154 269h-95l37 225h208l-35 -208z" />
    <glyph glyph-name="quoteleft" unicode="&#x2018;" horiz-adv-x="493" 
d="M418 1365h81l-153 -258h109l-37 -222h-217l35 207z" />
    <glyph glyph-name="quoteright" unicode="&#x2019;" horiz-adv-x="493" 
d="M281 885h-80l152 259h-109l37 221h218l-35 -206z" />
    <glyph glyph-name="divide" unicode="&#xf7;" horiz-adv-x="1201" 
d="M752 1036q0 -51 -36 -87t-86 -36q-51 0 -87 35.5t-36 87.5q0 50 36 86t87 36q50 0 86 -36t36 -86zM1137 785v-191h-1012v191h1012zM752 340q0 -50 -36 -86t-86 -36q-51 0 -87 36t-36 86q0 51 36 87t87 36q50 0 86 -36t36 -87z" />
    <glyph glyph-name="lozenge" unicode="&#x25ca;" horiz-adv-x="1012" 
d="M517 1422l418 -713l-418 -709h-111l-391 709l391 713h111zM463 1325l-340 -616l340 -615l359 615z" />
    <glyph glyph-name="ydieresis" unicode="&#xff;" horiz-adv-x="933" 
d="M-57 -361l10 194q58 -9 134 -9q71 0 117.5 29.5t84.5 110.5l38 81l-249 972h240l154 -700l336 700h196l-522 -1053q-73 -146 -112 -202t-113.5 -94t-192.5 -38q-56 0 -121 9zM428 1188q-48 0 -79.5 31.5t-31.5 75.5t31 77.5t80 33.5q46 0 80 -29.5t34 -80.5
q0 -50 -33.5 -79t-80.5 -29zM763 1188q-49 0 -80.5 32t-31.5 75q0 44 31.5 77.5t80.5 33.5q45 0 79.5 -29.5t34.5 -80.5q0 -50 -33.5 -79t-80.5 -29z" />
    <glyph glyph-name="Ydieresis" unicode="&#x178;" horiz-adv-x="1061" 
d="M593 0h-257l96 575l-347 790h281l242 -590l388 590h236l-545 -802zM544 1512q-48 0 -79.5 31.5t-31.5 75.5t31 77.5t80 33.5q46 0 80 -29.5t34 -80.5q0 -50 -33.5 -79t-80.5 -29zM879 1512q-49 0 -80.5 32t-31.5 75q0 44 31.5 77.5t80.5 33.5q45 0 79.5 -29.5t34.5 -80.5
q0 -50 -33.5 -79t-80.5 -29z" />
    <glyph glyph-name="fraction" unicode="&#x2215;" horiz-adv-x="437" 
d="M-174 0h-153l998 1365h150z" />
    <glyph glyph-name="Euro" unicode="&#x20ac;" horiz-adv-x="1200" 
d="M1241 977l-233 -25q-10 260 -234 260q-107 0 -193 -92t-128 -246h307l-17 -122h-319q-11 -60 -18 -134h321l-18 -122h-310q4 -159 66 -247.5t174 -88.5q99 0 184.5 76.5t114.5 191.5l227 -25q-125 -440 -534 -440q-222 0 -349.5 147t-127.5 386h-113l16 122h103
q0 38 16 134h-100l16 122h111q71 242 227 384.5t354 142.5q205 0 328 -110.5t129 -313.5z" />
    <glyph glyph-name="guilsinglleft" unicode="&#x2039;" horiz-adv-x="426" 
d="M290 224h-89l-124 292l202 281h107l-155 -287z" />
    <glyph glyph-name="guilsinglright" unicode="&#x203a;" horiz-adv-x="425" 
d="M137 797h89l124 -292l-202 -281h-107l155 287z" />
    <glyph glyph-name="fi" unicode="&#xfb01;" horiz-adv-x="1105" 
d="M325 0h-242l140 834h-128l29 183h137q69 259 170.5 328.5t257.5 69.5q53 0 117 -9l-32 -189q-52 7 -78 7q-60 0 -113 -32.5t-84 -174.5h215l-33 -183h-221zM1072 1126h-235l41 245h234zM883 0h-235l171 1017h234z" />
    <glyph glyph-name="fl" unicode="&#xfb02;" horiz-adv-x="1103" 
d="M325 0h-242l140 834h-127l27 183h138q53 219 148 308.5t284 89.5q53 0 111 -9l-31 -187q-56 7 -85 7q-56 0 -107 -34.5t-83 -174.5h216l-32 -183h-221zM882 0h-235l229 1371h235z" />
    <glyph glyph-name="daggerdbl" unicode="&#x2021;" horiz-adv-x="1201" 
d="M635 1365h218l-62 -376h366l-32 -188h-366l-93 -557h366l-31 -189h-367l-69 -410h-217l68 410h-366l31 189h367l93 557h-366l31 188h366z" />
    <glyph glyph-name="periodcentered" unicode="&#x2219;" horiz-adv-x="281" 
d="M239 380h-239l42 251h239z" />
    <glyph glyph-name="quotesinglbase" unicode="&#x201a;" horiz-adv-x="493" 
d="M90 -258h-80l152 258h-109l37 223h218l-35 -208z" />
    <glyph glyph-name="quotedblbase" unicode="&#x201e;" horiz-adv-x="756" 
d="M354 -270h-79l151 270h-96l38 225h211l-35 -209zM67 -270h-81l154 270h-95l37 225h208l-35 -208z" />
    <glyph glyph-name="perthousand" unicode="&#x2030;" horiz-adv-x="2228" 
d="M145 967q0 157 92.5 291.5t244.5 134.5q115 0 196.5 -86t81.5 -242q0 -157 -93 -295t-249 -138q-114 0 -193.5 92.5t-79.5 242.5zM316 922q0 -80 33 -115.5t74 -35.5q48 0 81.5 28.5t58.5 112t25 180.5q0 160 -111 160q-82 0 -121.5 -103.5t-39.5 -226.5zM373 0h-153
l998 1365h150zM1530 308q0 176 100 304.5t238 128.5q116 0 196 -94t80 -245q0 -164 -96.5 -294t-241.5 -130q-122 0 -199 90.5t-77 239.5zM1700 284q0 -165 116 -165q77 0 116.5 103.5t39.5 213.5q0 164 -114 164q-85 0 -121.5 -105.5t-36.5 -210.5zM834 308q0 177 100 305
t237 128q117 0 197 -94.5t80 -244.5q0 -164 -96.5 -294t-241.5 -130q-122 0 -199 90.5t-77 239.5zM1004 286q0 -167 116 -167q77 0 116.5 104t39.5 212q0 165 -114 165q-86 0 -122 -105.5t-36 -208.5z" />
    <glyph glyph-name="Acircumflex" unicode="&#xc2;" horiz-adv-x="1234" 
d="M1150 0h-273l-56 330h-495l-152 -330h-231l654 1365h303zM798 520l-107 606l-281 -606h388zM821 1790l286 -288l-178 -21l-131 132l-203 -132l-177 21z" />
    <glyph glyph-name="Ecircumflex" unicode="&#xca;" horiz-adv-x="1099" 
d="M952 0h-887l228 1365h863l-36 -214h-618l-59 -354h512l-34 -202h-512l-64 -381h643zM809 1790l286 -288l-178 -21l-131 132l-203 -132l-177 21z" />
    <glyph glyph-name="Aacute" unicode="&#xc1;" horiz-adv-x="1234" 
d="M1150 0h-273l-56 330h-495l-152 -330h-231l654 1365h303zM798 520l-107 606l-281 -606h388zM1042 1800l66 -136l-417 -190l-42 107z" />
    <glyph glyph-name="Edieresis" unicode="&#xcb;" horiz-adv-x="1099" 
d="M952 0h-887l228 1365h863l-36 -214h-618l-59 -354h512l-34 -202h-512l-64 -381h643zM589 1512q-48 0 -79.5 31.5t-31.5 75.5t31 77.5t80 33.5q46 0 80 -29.5t34 -80.5q0 -50 -33.5 -79t-80.5 -29zM924 1512q-49 0 -80.5 32t-31.5 75q0 44 31.5 77.5t80.5 33.5
q45 0 79.5 -29.5t34.5 -80.5q0 -50 -33.5 -79t-80.5 -29z" />
    <glyph glyph-name="Egrave" unicode="&#xc8;" horiz-adv-x="1099" 
d="M952 0h-887l228 1365h863l-36 -214h-618l-59 -354h512l-34 -202h-512l-64 -381h643zM554 1800l343 -219l-49 -107l-373 196z" />
    <glyph glyph-name="Iacute" unicode="&#xcd;" horiz-adv-x="553" 
d="M318 0h-253l228 1365h253zM709 1800l66 -136l-417 -190l-42 107z" />
    <glyph glyph-name="Icircumflex" unicode="&#xce;" horiz-adv-x="553" 
d="M318 0h-253l228 1365h253zM500 1790l286 -288l-178 -21l-131 132l-203 -132l-177 21z" />
    <glyph glyph-name="Idieresis" unicode="&#xcf;" horiz-adv-x="553" 
d="M318 0h-253l228 1365h253zM321 1512q-48 0 -79.5 31.5t-31.5 75.5t31 77.5t80 33.5q46 0 80 -29.5t34 -80.5q0 -50 -33.5 -79t-80.5 -29zM656 1512q-49 0 -80.5 32t-31.5 75q0 44 31.5 77.5t80.5 33.5q45 0 79.5 -29.5t34.5 -80.5q0 -50 -33.5 -79t-80.5 -29z" />
    <glyph glyph-name="Igrave" unicode="&#xcc;" horiz-adv-x="553" 
d="M318 0h-253l228 1365h253zM222 1800l343 -219l-49 -107l-373 196z" />
    <glyph glyph-name="Oacute" unicode="&#xd3;" horiz-adv-x="1324" 
d="M104 581q0 314 176 568.5t471 254.5q246 0 387.5 -165t141.5 -453q0 -322 -179 -572.5t-476 -250.5q-217 0 -369 169.5t-152 448.5zM363 538q0 -200 79 -285t192 -85q198 0 291 219t93 454q0 358 -282 358q-188 0 -280.5 -225.5t-92.5 -435.5zM1094 1800l66 -136
l-417 -190l-42 107z" />
    <glyph glyph-name="Ocircumflex" unicode="&#xd4;" horiz-adv-x="1324" 
d="M104 581q0 314 176 568.5t471 254.5q246 0 387.5 -165t141.5 -453q0 -322 -179 -572.5t-476 -250.5q-217 0 -369 169.5t-152 448.5zM363 538q0 -200 79 -285t192 -85q198 0 291 219t93 454q0 358 -282 358q-188 0 -280.5 -225.5t-92.5 -435.5zM880 1790l286 -288
l-178 -21l-131 132l-203 -132l-177 21z" />
    <glyph glyph-name="Ograve" unicode="&#xd2;" horiz-adv-x="1324" 
d="M104 581q0 314 176 568.5t471 254.5q246 0 387.5 -165t141.5 -453q0 -322 -179 -572.5t-476 -250.5q-217 0 -369 169.5t-152 448.5zM363 538q0 -200 79 -285t192 -85q198 0 291 219t93 454q0 358 -282 358q-188 0 -280.5 -225.5t-92.5 -435.5zM655 1800l343 -219
l-49 -107l-373 196z" />
    <glyph glyph-name="Uacute" unicode="&#xda;" horiz-adv-x="1239" 
d="M1246 1365l-148 -882q-29 -174 -73.5 -269t-163 -170t-283.5 -75q-103 0 -200.5 34t-173 127.5t-75.5 251.5q0 79 19 193l132 790h252l-135 -803q-22 -130 -22 -174q0 -110 71 -159t164 -49q81 0 143.5 32t97 98t62.5 233l137 822h196zM1069 1800l66 -136l-417 -190
l-42 107z" />
    <glyph glyph-name="Ucircumflex" unicode="&#xdb;" horiz-adv-x="1239" 
d="M1246 1365l-148 -882q-29 -174 -73.5 -269t-163 -170t-283.5 -75q-103 0 -200.5 34t-173 127.5t-75.5 251.5q0 79 19 193l132 790h252l-135 -803q-22 -130 -22 -174q0 -110 71 -159t164 -49q81 0 143.5 32t97 98t62.5 233l137 822h196zM855 1790l286 -288l-178 -21
l-131 132l-203 -132l-177 21z" />
    <glyph glyph-name="Ugrave" unicode="&#xd9;" horiz-adv-x="1239" 
d="M1246 1365l-148 -882q-29 -174 -73.5 -269t-163 -170t-283.5 -75q-103 0 -200.5 34t-173 127.5t-75.5 251.5q0 79 19 193l132 790h252l-135 -803q-22 -130 -22 -174q0 -110 71 -159t164 -49q81 0 143.5 32t97 98t62.5 233l137 822h196zM611 1800l343 -219l-49 -107
l-373 196z" />
    <glyph glyph-name="dotlessi" unicode="&#x131;" horiz-adv-x="508" 
d="M287 0h-235l170 1017h235z" />
    <glyph glyph-name="circumflex" unicode="&#x2c6;" horiz-adv-x="1024" 
d="M676 1476l286 -288l-178 -21l-131 132l-203 -132l-177 21z" />
    <glyph glyph-name="tilde" unicode="&#x2dc;" horiz-adv-x="1024" 
d="M924 1417l52 -99q-88 -117 -211 -117q-61 0 -148 47q-69 38 -101 38q-47 0 -140 -80l-52 96q114 122 218 122q56 0 130 -39q81 -42 122 -42q63 0 130 74z" />
    <glyph glyph-name="macron" unicode="&#x2c9;" horiz-adv-x="1024" 
d="M923 1222h-586l22 130h585z" />
    <glyph glyph-name="breve" unicode="&#x2d8;" horiz-adv-x="1024" 
d="M382 1455h132q0 -82 45.5 -107t105.5 -25q149 0 193 132h132q-27 -124 -124 -199t-228 -75q-122 0 -190.5 64.5t-68.5 159.5q0 18 3 50z" />
    <glyph glyph-name="dotaccent" unicode="&#x2d9;" horiz-adv-x="1024" 
d="M644 1188q-48 0 -79.5 31.5t-31.5 75.5t31 77.5t80 33.5q46 0 80 -29.5t34 -80.5q0 -50 -33.5 -79t-80.5 -29z" />
    <glyph glyph-name="ring" unicode="&#x2da;" horiz-adv-x="1024" 
d="M650 1133q-77 0 -131 54t-54 131t54.5 132t130.5 55q69 0 127.5 -49t58.5 -141q0 -72 -53.5 -127t-132.5 -55zM651 1237q42 0 62 25.5t20 52.5q0 38 -21.5 62t-56.5 24q-34 0 -60 -21t-26 -61q0 -33 21 -57.5t61 -24.5z" />
    <glyph glyph-name="cedilla" unicode="&#xb8;" horiz-adv-x="1024" 
d="M514 0l-42 -93q72 0 123.5 -36t51.5 -98q0 -65 -62.5 -120.5t-152.5 -55.5q-66 0 -187 60l46 78q76 -46 139 -46q85 0 85 66q0 74 -166 74l83 171h82z" />
    <glyph glyph-name="hungarumlaut" unicode="&#x2dd;" horiz-adv-x="1024" 
d="M658 1481l80 -117l-352 -210l-53 84zM999 1481l80 -117l-352 -210l-53 84z" />
    <glyph glyph-name="ogonek" unicode="&#x2db;" horiz-adv-x="1024" 
d="M830 0q-164 -81 -164 -174q0 -80 98 -80q40 0 91 18l12 -73q-82 -35 -165 -35q-87 0 -134 39.5t-47 95.5q0 131 199 209h110z" />
    <glyph glyph-name="caron" unicode="&#x2c7;" horiz-adv-x="1024" 
d="M611 1154l-286 288l177 20l132 -131l202 131l178 -20z" />
    <glyph glyph-name="Lslash" unicode="&#x141;" horiz-adv-x="1014" 
d="M898 0h-818l89 531l-152 -91l36 216l152 91l103 618h258l-86 -516l299 172l-36 -216l-299 -172l-70 -419h560z" />
    <glyph glyph-name="lslash" unicode="&#x142;" horiz-adv-x="521" 
d="M293 0h-235l104 618l-140 -101l25 150l140 101l100 597h235l-85 -504l139 93l-25 -151l-139 -93z" />
    <glyph glyph-name="Scaron" unicode="&#x160;" horiz-adv-x="1132" 
d="M1115 1106l-224 -83q-72 170 -260 170q-114 0 -177.5 -53.5t-63.5 -132.5q0 -61 43 -99.5t142 -66.5l187 -55q81 -23 154 -73t109 -125t36 -158q0 -186 -138.5 -322.5t-404.5 -136.5q-412 0 -534 340l223 79q81 -214 326 -214q140 0 208 64.5t68 146.5q0 47 -25.5 81.5
t-64.5 52.5t-156 51q-163 47 -243.5 89t-131 122t-50.5 190q0 187 135 306t368 119q344 0 474 -292zM679 1468l-286 288l177 20l132 -131l202 131l178 -20z" />
    <glyph glyph-name="scaron" unicode="&#x161;" horiz-adv-x="938" 
d="M177 299q59 -152 241 -152q91 0 143.5 37.5t52.5 95.5q0 43 -35.5 68t-120.5 49q-137 38 -203 70t-111 98t-45 151q0 133 101 231.5t285 98.5q299 0 420 -240l-193 -62q-67 133 -221 133q-69 0 -117 -32t-48 -86q0 -38 23.5 -63t94.5 -45q162 -48 240.5 -83.5t124 -101
t45.5 -150.5q0 -144 -110.5 -241t-327.5 -97q-347 0 -453 269zM571 1154l-286 288l177 20l132 -131l202 131l178 -20z" />
    <glyph glyph-name="Zcaron" unicode="&#x17d;" horiz-adv-x="1077" 
d="M958 0h-1002l34 201l822 950h-643l36 214h957l-26 -171l-851 -980h709zM685 1468l-286 288l177 20l132 -131l202 131l178 -20z" />
    <glyph glyph-name="zcaron" unicode="&#x17e;" horiz-adv-x="863" 
d="M731 0h-765l28 183l571 658h-432l29 176h722l-26 -158l-583 -676h486zM537 1154l-286 288l177 20l132 -131l202 131l178 -20z" />
    <glyph glyph-name="brokenbar" unicode="&#xa6;" horiz-adv-x="1024" 
d="M425 1365h232v-701h-232v701zM425 314h232v-655h-232v655z" />
    <glyph glyph-name="Eth" unicode="&#xd0;" horiz-adv-x="1310" 
d="M295 1365h400q139 0 224.5 -25t164 -97t128 -197t49.5 -288q0 -191 -72.5 -358t-174.5 -256.5t-198.5 -116.5t-277.5 -27h-471l101 601h-137l32 191h137zM450 792h320l-32 -191h-321l-66 -395h217q109 0 174.5 28.5t125.5 98t97 198.5t37 265q0 112 -37.5 201.5
t-110 127.5t-195.5 38h-147z" />
    <glyph glyph-name="eth" unicode="&#xf0;" horiz-adv-x="1075" 
d="M408 1177l168 74q-61 58 -172 87l35 95q148 -32 281 -118l200 88l60 -79l-173 -76q205 -199 205 -586q0 -291 -135.5 -489t-385.5 -198q-177 0 -300 106t-123 338q0 249 129.5 422.5t333.5 173.5q135 0 234 -84q-34 156 -113 246l-188 -84zM563 829q-158 0 -212.5 -158.5
t-54.5 -254.5q0 -258 204 -258q137 0 201.5 138t64.5 297q0 107 -52.5 171.5t-150.5 64.5z" />
    <glyph glyph-name="Yacute" unicode="&#xdd;" horiz-adv-x="1061" 
d="M593 0h-257l96 575l-347 790h281l242 -590l388 590h236l-545 -802zM968 1800l66 -136l-417 -190l-42 107z" />
    <glyph glyph-name="yacute" unicode="&#xfd;" horiz-adv-x="933" 
d="M-57 -361l10 194q58 -9 134 -9q71 0 117.5 29.5t84.5 110.5l38 81l-249 972h240l154 -700l336 700h196l-522 -1053q-73 -146 -112 -202t-113.5 -94t-192.5 -38q-56 0 -121 9zM842 1487l66 -136l-417 -190l-42 107z" />
    <glyph glyph-name="Thorn" unicode="&#xde;" horiz-adv-x="1237" 
d="M320 0h-255l228 1365h256l-32 -191h111q178 0 261 -7.5t161 -54.5t124.5 -133.5t46.5 -193.5q0 -139 -77 -248.5t-180.5 -145t-254.5 -35.5h-329zM484 975l-70 -418h243q127 0 178 16.5t90 72t39 134.5q0 73 -35 120.5t-83 61t-172 13.5h-190z" />
    <glyph glyph-name="thorn" unicode="&#xfe;" horiz-adv-x="1082" 
d="M216 -355h-224l288 1720h224l-88 -524q118 211 286 211q144 0 233 -116.5t89 -313.5q0 -245 -120.5 -448t-314.5 -203q-209 0 -284 209zM547 154q117 0 180.5 147.5t63.5 303.5q0 263 -160 263q-121 0 -202.5 -143.5t-81.5 -316.5q0 -127 58.5 -190.5t141.5 -63.5z" />
    <glyph glyph-name="minus" unicode="&#x2212;" horiz-adv-x="1201" 
d="M1137 785v-191h-1012v191h1012z" />
    <glyph glyph-name="multiply" unicode="&#xd7;" horiz-adv-x="1201" 
d="M933 1126l135 -136l-301 -301l300 -300l-134 -134l-301 300l-301 -301l-135 135l301 301l-301 301l134 135l302 -301z" />
    <glyph glyph-name="onesuperior" unicode="&#xb9;" horiz-adv-x="792" 
d="M735 546h-619l23 139h227l82 490q-116 -68 -238 -68q-10 0 -27 1l22 136q237 18 329 151h113l-119 -710h230z" />
    <glyph glyph-name="twosuperior" unicode="&#xb2;" horiz-adv-x="792" 
d="M733 546h-661l21 159q126 64 278 157.5t204.5 152t52.5 120.5q0 51 -38 85.5t-98 34.5q-142 0 -185 -172l-149 59q97 252 343 252q115 0 207.5 -69t92.5 -190q0 -145 -139.5 -244.5t-377.5 -201.5h473z" />
    <glyph glyph-name="threesuperior" unicode="&#xb3;" horiz-adv-x="792" 
d="M239 795q11 -62 62 -100t121 -38q77 0 123 37t46 94q0 45 -26.5 74.5t-61.5 34.5t-162 5l22 128q26 -1 45 -1q220 0 220 121q0 47 -40 75t-97 28q-127 0 -186 -119l-146 61q118 190 337 190q133 0 217.5 -64.5t84.5 -157.5q0 -139 -170 -192q134 -48 134 -187
q0 -102 -89 -179.5t-253 -77.5q-265 0 -334 231z" />
    <glyph glyph-name="onehalf" unicode="&#xbd;" horiz-adv-x="1802" 
d="M696 546h-619l23 139h227l82 490q-116 -68 -238 -68q-10 0 -27 1l22 136q237 18 329 151h113l-119 -710h230zM474 0h-153l1069 1365h150zM1691 0h-661l21 159q106 53 263 148t214.5 155.5t57.5 125.5q0 53 -38.5 87t-96.5 34q-143 0 -186 -172l-149 59q99 252 343 252
q123 0 212 -72t89 -187q0 -146 -141 -245.5t-377 -200.5h473z" />
    <glyph glyph-name="onequarter" unicode="&#xbc;" horiz-adv-x="1802" 
d="M696 546h-619l23 139h227l82 490q-116 -68 -238 -68q-10 0 -27 1l22 136q237 18 329 151h113l-119 -710h230zM474 0h-153l1069 1365h150zM1570 0h-164l31 183h-381l23 138l463 526h170l-89 -529h135l-22 -135h-135zM1471 307l59 352l-314 -354z" />
    <glyph glyph-name="threequarters" unicode="&#xbe;" horiz-adv-x="1802" 
d="M200 795q11 -62 62 -100t121 -38q77 0 123 37t46 94q0 45 -26.5 74.5t-61.5 34.5t-162 5l22 128q26 -1 45 -1q220 0 220 121q0 47 -40 75t-97 28q-127 0 -186 -119l-146 61q118 190 337 190q133 0 217.5 -64.5t84.5 -157.5q0 -139 -170 -192q134 -48 134 -187
q0 -102 -89 -179.5t-253 -77.5q-265 0 -334 231zM473 0h-152l1068 1365h151zM1570 0h-164l31 183h-381l23 138l463 526h169l-88 -529h135l-23 -135h-135zM1471 307l59 352l-314 -354z" />
    <glyph glyph-name="franc" unicode="&#x20a3;" horiz-adv-x="1017" 
d="M99 201h-117l32 191h117l162 973h840l-36 -214h-589l-62 -369h490l-34 -203h-490l-32 -187h249l-32 -191h-248l-34 -201h-250z" />
    <glyph glyph-name="Gbreve" unicode="&#x11e;" horiz-adv-x="1325" 
d="M1111 0h-106l-41 184q-111 -209 -372 -209q-219 0 -354 151.5t-135 437.5q0 350 183 595t482 245q393 0 498 -404l-216 -54q-69 247 -287 247q-182 0 -289 -193.5t-107 -441.5q0 -192 77.5 -285t208.5 -93q233 0 313 321h-297l34 206h526zM566 1766h132q0 -82 45.5 -107
t105.5 -25q149 0 193 132h132q-27 -124 -124 -199t-228 -75q-122 0 -190.5 64.5t-68.5 159.5q0 18 3 50z" />
    <glyph glyph-name="gbreve" unicode="&#x11f;" horiz-adv-x="1039" 
d="M134 96q-86 59 -86 157q0 75 39.5 131.5t160.5 116.5q-115 83 -115 209q0 156 120.5 244t333.5 88q75 0 126 -15q49 149 119 201t180 52q30 0 68 -5l-2 -174q-54 5 -75 5q-54 0 -107 -18t-82 -98q156 -78 156 -242q0 -143 -112 -236t-320 -93q-88 0 -198 29
q-91 -46 -91 -124q0 -43 32 -67.5t131 -24.5h121q177 0 259.5 -29.5t129 -94t46.5 -138.5q0 -126 -121.5 -229.5t-425.5 -103.5q-449 0 -449 239q0 82 42 129.5t120 90.5zM537 553q97 0 151 52.5t54 141.5q0 151 -165 151q-98 0 -154 -52.5t-56 -138.5q0 -154 170 -154z
M235 45q-66 -54 -66 -107q0 -67 74 -110.5t222 -43.5q287 0 287 154q0 60 -45 74.5t-229 14.5q-192 0 -243 18zM292 1550h132q0 -82 45.5 -107t105.5 -25q149 0 193 132h132q-27 -124 -124 -199t-228 -75q-122 0 -190.5 64.5t-68.5 159.5q0 18 3 50z" />
    <glyph glyph-name="Idotaccent" unicode="&#x130;" horiz-adv-x="553" 
d="M318 0h-253l228 1365h253zM451 1512q-48 0 -79.5 31.5t-31.5 75.5t31 77.5t80 33.5q46 0 80 -29.5t34 -80.5q0 -50 -33.5 -79t-80.5 -29z" />
    <glyph glyph-name="Scedilla" unicode="&#x15e;" horiz-adv-x="1132" 
d="M483 -28l-35 -72q205 0 205 -135q0 -77 -65.5 -137t-169.5 -60q-95 0 -216 61l46 82q109 -51 158 -51q47 0 76.5 24.5t29.5 59.5q0 77 -137 77q-16 0 -57 -2l78 161q-314 55 -412 331l223 79q81 -214 326 -214q140 0 208 64.5t68 146.5q0 47 -25.5 81.5t-64.5 52.5
t-156 51q-163 47 -243.5 89t-131 122t-50.5 190q0 187 135 306t368 119q344 0 474 -292l-224 -83q-72 170 -260 170q-112 0 -176.5 -53.5t-64.5 -132.5q0 -61 43 -99.5t142 -66.5l187 -55q81 -23 154 -73t109 -125t36 -158q0 -187 -138.5 -323t-404.5 -136q-11 0 -35 1z" />
    <glyph glyph-name="scedilla" unicode="&#x15f;" horiz-adv-x="938" 
d="M177 299q59 -152 241 -152q91 0 143.5 37.5t52.5 95.5q0 43 -35.5 68t-120.5 49q-137 38 -203 70t-111 98t-45 151q0 133 101 231.5t285 98.5q299 0 420 -240l-193 -62q-67 133 -221 133q-69 0 -117 -32t-48 -86q0 -38 23.5 -63t94.5 -45q162 -48 240.5 -83.5t124 -101
t45.5 -150.5q0 -144 -110.5 -241t-327.5 -97q-347 0 -453 269zM388 0l-42 -93q72 0 123.5 -36t51.5 -98q0 -65 -62.5 -120.5t-152.5 -55.5q-66 0 -187 60l46 78q76 -46 139 -46q85 0 85 66q0 74 -166 74l83 171h82z" />
    <glyph glyph-name="Cacute" unicode="&#x106;" horiz-adv-x="1211" 
d="M1145 374q-175 -410 -541 -410q-222 0 -361.5 160.5t-139.5 436.5q0 345 179 592.5t460 247.5q219 0 347 -127t146 -352l-222 -40q-30 314 -276 314q-199 0 -286.5 -236t-87.5 -449q0 -166 73.5 -250t187.5 -84q105 0 190.5 81.5t130.5 198.5zM1071 1800l66 -136
l-417 -190l-42 107z" />
    <glyph glyph-name="cacute" unicode="&#x107;" horiz-adv-x="979" 
d="M908 302q-144 -324 -432 -324q-179 0 -292 120.5t-113 338.5q0 246 139 428t349 182q159 0 265.5 -92.5t133.5 -262.5l-190 -37q-40 200 -199 200q-118 0 -192 -134t-74 -309q0 -133 56 -188.5t133 -55.5q150 0 228 201zM876 1487l66 -136l-417 -190l-42 107z" />
    <glyph glyph-name="Ccaron" unicode="&#x10c;" horiz-adv-x="1211" 
d="M1145 374q-175 -410 -541 -410q-222 0 -361.5 160.5t-139.5 436.5q0 345 179 592.5t460 247.5q219 0 347 -127t146 -352l-222 -40q-30 314 -276 314q-199 0 -286.5 -236t-87.5 -449q0 -166 73.5 -250t187.5 -84q105 0 190.5 81.5t130.5 198.5zM787 1467l-286 288l177 20
l132 -131l202 131l178 -20z" />
    <glyph glyph-name="ccaron" unicode="&#x10d;" horiz-adv-x="979" 
d="M908 302q-144 -324 -432 -324q-179 0 -292 120.5t-113 338.5q0 246 139 428t349 182q159 0 265.5 -92.5t133.5 -262.5l-190 -37q-40 200 -199 200q-118 0 -192 -134t-74 -309q0 -133 56 -188.5t133 -55.5q150 0 228 201zM615 1154l-286 288l177 20l132 -131l202 131
l178 -20z" />
    <glyph glyph-name="dcroat" unicode="&#x111;" horiz-adv-x="1096" 
d="M860 1253l19 112h224l-19 -112h123l-21 -122h-123l-189 -1131h-218l35 210q-123 -233 -322 -233q-137 0 -220.5 109.5t-83.5 307.5q0 270 127 463.5t323 193.5q210 0 277 -202l47 282h-286l20 122h287zM460 160q130 0 207 145.5t77 318.5q0 107 -51.5 173t-136.5 66
q-130 0 -196 -150.5t-66 -334.5q0 -218 166 -218z" />
    <glyph glyph-name="uni00AD" unicode="&#xad;" horiz-adv-x="493" 
d="M476 414h-490l31 183h490z" />
    <glyph glyph-name="uni00AF" unicode="&#xaf;" horiz-adv-x="1024" 
d="M29 1811h1024v-209h-1024v209z" />
    <glyph glyph-name="uni00B7" unicode="&#xb7;" horiz-adv-x="281" 
d="M239 380h-239l42 251h239z" />
    <glyph glyph-name="Amacron" unicode="&#x100;" horiz-adv-x="1234" 
d="M1150 0h-273l-56 330h-495l-152 -330h-231l654 1365h303zM798 520l-107 606l-281 -606h388zM1068 1550h-586l22 130h585z" />
    <glyph glyph-name="amacron" unicode="&#x101;" horiz-adv-x="1097" 
d="M896 0h-221q-2 27 -2 44q0 73 18 175q-50 -114 -144 -179.5t-207 -65.5q-136 0 -221.5 84.5t-85.5 208.5q0 171 152.5 272t477.5 101q42 0 98 -4q7 46 7 73q0 82 -56.5 124t-140.5 42q-161 0 -235 -141l-200 63q126 248 445 248q190 0 300 -86t110 -229q0 -61 -48 -322
q-51 -275 -51 -349q0 -27 4 -59zM741 519q-261 -14 -363 -69t-102 -161q0 -61 41 -99.5t112 -38.5q102 0 189 89.5t123 278.5zM949 1222h-586l22 130h585z" />
    <glyph glyph-name="Abreve" unicode="&#x102;" horiz-adv-x="1234" 
d="M1150 0h-273l-56 330h-495l-152 -330h-231l654 1365h303zM798 520l-107 606l-281 -606h388zM517 1766h132q0 -82 45.5 -107t105.5 -25q149 0 193 132h132q-27 -124 -124 -199t-228 -75q-122 0 -190.5 64.5t-68.5 159.5q0 18 3 50z" />
    <glyph glyph-name="abreve" unicode="&#x103;" horiz-adv-x="1097" 
d="M896 0h-221q-2 27 -2 44q0 73 18 175q-50 -114 -144 -179.5t-207 -65.5q-136 0 -221.5 84.5t-85.5 208.5q0 171 152.5 272t477.5 101q42 0 98 -4q7 46 7 73q0 82 -56.5 124t-140.5 42q-161 0 -235 -141l-200 63q126 248 445 248q190 0 300 -86t110 -229q0 -61 -48 -322
q-51 -275 -51 -349q0 -27 4 -59zM741 519q-261 -14 -363 -69t-102 -161q0 -61 41 -99.5t112 -38.5q102 0 189 89.5t123 278.5zM408 1455h132q0 -82 45.5 -107t105.5 -25q149 0 193 132h132q-27 -124 -124 -199t-228 -75q-122 0 -190.5 64.5t-68.5 159.5q0 18 3 50z" />
    <glyph glyph-name="Aogonek" unicode="&#x104;" horiz-adv-x="1234" 
d="M877 0l-56 330h-495l-152 -330h-231l654 1365h303l250 -1365q-155 -77 -155 -167q0 -94 120 -94q45 0 94 19l17 -81q-81 -36 -172 -36q-206 0 -206 157q0 133 185 202h-156zM798 520l-107 606l-281 -606h388z" />
    <glyph glyph-name="aogonek" unicode="&#x105;" horiz-adv-x="1097" 
d="M896 0h-221q-2 27 -2 44q0 73 18 175q-50 -114 -144 -179.5t-207 -65.5q-136 0 -221.5 84.5t-85.5 208.5q0 171 152.5 272t477.5 101q42 0 98 -4q7 46 7 73q0 82 -56.5 124t-140.5 42q-161 0 -235 -141l-200 63q126 248 445 248q190 0 300 -86t110 -229q0 -61 -48 -322
q-51 -275 -51 -349q0 -27 4 -59zM741 519q-261 -14 -363 -69t-102 -161q0 -61 41 -99.5t112 -38.5q102 0 189 89.5t123 278.5zM896 0q-164 -81 -164 -174q0 -80 98 -80q40 0 91 18l12 -73q-82 -35 -165 -35q-87 0 -134 39.5t-47 95.5q0 131 199 209h110z" />
    <glyph glyph-name="Ccircumflex" unicode="&#x108;" horiz-adv-x="1211" 
d="M1145 374q-175 -410 -541 -410q-222 0 -361.5 160.5t-139.5 436.5q0 345 179 592.5t460 247.5q219 0 347 -127t146 -352l-222 -40q-30 314 -276 314q-199 0 -286.5 -236t-87.5 -449q0 -166 73.5 -250t187.5 -84q105 0 190.5 81.5t130.5 198.5zM871 1790l286 -288
l-178 -21l-131 132l-203 -132l-177 21z" />
    <glyph glyph-name="ccircumflex" unicode="&#x109;" horiz-adv-x="979" 
d="M908 302q-144 -324 -432 -324q-179 0 -292 120.5t-113 338.5q0 246 139 428t349 182q159 0 265.5 -92.5t133.5 -262.5l-190 -37q-40 200 -199 200q-118 0 -192 -134t-74 -309q0 -133 56 -188.5t133 -55.5q150 0 228 201zM651 1476l286 -288l-178 -21l-131 132l-203 -132
l-177 21z" />
    <glyph glyph-name="Cdotaccent" unicode="&#x10a;" horiz-adv-x="1211" 
d="M1145 374q-175 -410 -541 -410q-222 0 -361.5 160.5t-139.5 436.5q0 345 179 592.5t460 247.5q219 0 347 -127t146 -352l-222 -40q-30 314 -276 314q-199 0 -286.5 -236t-87.5 -449q0 -166 73.5 -250t187.5 -84q105 0 190.5 81.5t130.5 198.5zM818 1512q-48 0 -79.5 31.5
t-31.5 75.5t31 77.5t80 33.5q46 0 80 -29.5t34 -80.5q0 -50 -33.5 -79t-80.5 -29z" />
    <glyph glyph-name="cdotaccent" unicode="&#x10b;" horiz-adv-x="979" 
d="M908 302q-144 -324 -432 -324q-179 0 -292 120.5t-113 338.5q0 246 139 428t349 182q159 0 265.5 -92.5t133.5 -262.5l-190 -37q-40 200 -199 200q-118 0 -192 -134t-74 -309q0 -133 56 -188.5t133 -55.5q150 0 228 201zM636 1188q-48 0 -79.5 31.5t-31.5 75.5t31 77.5
t80 33.5q46 0 80 -29.5t34 -80.5q0 -50 -33.5 -79t-80.5 -29z" />
    <glyph glyph-name="Dcaron" unicode="&#x10e;" horiz-adv-x="1310" 
d="M65 0l228 1365h401q139 0 224 -25t164 -96.5t128.5 -196.5t49.5 -288q0 -191 -71.5 -358t-174 -257t-199.5 -117t-278 -27h-472zM349 206h218q109 0 174.5 28.5t126 97.5t97 198t36.5 266q0 112 -37.5 202t-110 127.5t-196.5 37.5h-147zM734 1468l-286 288l177 20
l132 -131l202 131l178 -20z" />
    <glyph glyph-name="dcaron" unicode="&#x10f;" horiz-adv-x="1308" 
d="M874 0h-218l35 210q-123 -233 -322 -233q-137 0 -220.5 109.5t-83.5 307.5q0 270 127 463.5t323 193.5q210 0 277 -202l87 516h224zM460 160q130 0 207 145.5t77 318.5q0 107 -51.5 173t-136.5 66q-130 0 -196 -150.5t-66 -334.5q0 -218 166 -218zM1241 968h-93l105 397
h205z" />
    <glyph glyph-name="Dcroat" unicode="&#x110;" horiz-adv-x="1310" 
d="M295 1365h400q139 0 224.5 -25t164 -97t128 -197t49.5 -288q0 -191 -72.5 -358t-174.5 -256.5t-198.5 -116.5t-277.5 -27h-471l101 601h-137l32 191h137zM450 792h320l-32 -191h-321l-66 -395h217q109 0 174.5 28.5t125.5 98t97 198.5t37 265q0 112 -37.5 201.5
t-110 127.5t-195.5 38h-147z" />
    <glyph glyph-name="Emacron" unicode="&#x112;" horiz-adv-x="1099" 
d="M952 0h-887l228 1365h863l-36 -214h-618l-59 -354h512l-34 -202h-512l-64 -381h643zM1043 1535h-586l22 130h585z" />
    <glyph glyph-name="emacron" unicode="&#x113;" horiz-adv-x="1068" 
d="M942 287q-140 -312 -444 -312q-200 0 -314.5 123t-114.5 327q0 260 144.5 439t371.5 179q204 0 308.5 -129t104.5 -352q0 -37 -3 -80h-699q-7 -43 -7 -76q0 -115 55.5 -185t157.5 -70q158 0 240 189zM786 627q0 258 -200 258q-207 0 -266 -258h466zM953 1222h-586l22 130
h585z" />
    <glyph glyph-name="Ebreve" unicode="&#x114;" horiz-adv-x="1099" 
d="M952 0h-887l228 1365h863l-36 -214h-618l-59 -354h512l-34 -202h-512l-64 -381h643zM492 1766h132q0 -82 45.5 -107t105.5 -25q149 0 193 132h132q-27 -124 -124 -199t-228 -75q-122 0 -190.5 64.5t-68.5 159.5q0 18 3 50z" />
    <glyph glyph-name="ebreve" unicode="&#x115;" horiz-adv-x="1068" 
d="M942 287q-140 -312 -444 -312q-200 0 -314.5 123t-114.5 327q0 260 144.5 439t371.5 179q204 0 308.5 -129t104.5 -352q0 -37 -3 -80h-699q-7 -43 -7 -76q0 -115 55.5 -185t157.5 -70q158 0 240 189zM786 627q0 258 -200 258q-207 0 -266 -258h466zM412 1455h132
q0 -82 45.5 -107t105.5 -25q149 0 193 132h132q-27 -124 -124 -199t-228 -75q-122 0 -190.5 64.5t-68.5 159.5q0 18 3 50z" />
    <glyph glyph-name="Edotaccent" unicode="&#x116;" horiz-adv-x="1099" 
d="M952 0h-887l228 1365h863l-36 -214h-618l-59 -354h512l-34 -202h-512l-64 -381h643zM759 1512q-48 0 -79.5 31.5t-31.5 75.5t31 77.5t80 33.5q46 0 80 -29.5t34 -80.5q0 -50 -33.5 -79t-80.5 -29z" />
    <glyph glyph-name="edotaccent" unicode="&#x117;" horiz-adv-x="1068" 
d="M942 287q-140 -312 -444 -312q-200 0 -314.5 123t-114.5 327q0 260 144.5 439t371.5 179q204 0 308.5 -129t104.5 -352q0 -37 -3 -80h-699q-7 -43 -7 -76q0 -115 55.5 -185t157.5 -70q158 0 240 189zM786 627q0 258 -200 258q-207 0 -266 -258h466zM661 1188
q-48 0 -79.5 31.5t-31.5 75.5t31 77.5t80 33.5q46 0 80 -29.5t34 -80.5q0 -50 -33.5 -79t-80.5 -29z" />
    <glyph glyph-name="Eogonek" unicode="&#x118;" horiz-adv-x="1099" 
d="M65 0l228 1365h863l-36 -214h-618l-59 -354h512l-34 -202h-512l-64 -381h643l-36 -214q-154 -77 -154 -167q0 -94 120 -94q45 0 93 19l18 -81q-81 -36 -172 -36q-206 0 -206 157q0 133 185 202h-771z" />
    <glyph glyph-name="eogonek" unicode="&#x119;" horiz-adv-x="1068" 
d="M768 -229l12 -73q-79 -35 -163 -35q-92 0 -137 40.5t-45 93.5q0 107 140 183q-55 -5 -83 -5q-192 0 -307.5 121.5t-115.5 328.5q0 260 144.5 439t371.5 179q186 0 299.5 -119t113.5 -362q0 -37 -3 -80h-699q-7 -43 -7 -76q0 -115 55.5 -185t157.5 -70q158 0 240 189
l200 -53q-67 -155 -215 -260q-148 -106 -148 -195q0 -79 99 -79q39 0 90 18zM786 627q0 258 -200 258q-207 0 -266 -258h466z" />
    <glyph glyph-name="Ecaron" unicode="&#x11a;" horiz-adv-x="1099" 
d="M952 0h-887l228 1365h863l-36 -214h-618l-59 -354h512l-34 -202h-512l-64 -381h643zM737 1468l-286 288l177 20l132 -131l202 131l178 -20z" />
    <glyph glyph-name="ecaron" unicode="&#x11b;" horiz-adv-x="1068" 
d="M942 287q-140 -312 -444 -312q-200 0 -314.5 123t-114.5 327q0 260 144.5 439t371.5 179q204 0 308.5 -129t104.5 -352q0 -37 -3 -80h-699q-7 -43 -7 -76q0 -115 55.5 -185t157.5 -70q158 0 240 189zM786 627q0 258 -200 258q-207 0 -266 -258h466zM627 1154l-286 288
l177 20l132 -131l202 131l178 -20z" />
    <glyph glyph-name="Gcircumflex" unicode="&#x11c;" horiz-adv-x="1325" 
d="M1111 0h-106l-41 184q-111 -209 -372 -209q-219 0 -354 151.5t-135 437.5q0 350 183 595t482 245q393 0 498 -404l-216 -54q-69 247 -287 247q-182 0 -289 -193.5t-107 -441.5q0 -192 77.5 -285t208.5 -93q233 0 313 321h-297l34 206h526zM893 1790l286 -288l-178 -21
l-131 132l-203 -132l-177 21z" />
    <glyph glyph-name="gcircumflex" unicode="&#x11d;" horiz-adv-x="1039" 
d="M134 96q-86 59 -86 157q0 75 39.5 131.5t160.5 116.5q-115 83 -115 209q0 156 120.5 244t333.5 88q75 0 126 -15q49 149 119 201t180 52q30 0 68 -5l-2 -174q-54 5 -75 5q-54 0 -107 -18t-82 -98q156 -78 156 -242q0 -143 -112 -236t-320 -93q-88 0 -198 29
q-91 -46 -91 -124q0 -43 32 -67.5t131 -24.5h121q177 0 259.5 -29.5t129 -94t46.5 -138.5q0 -126 -121.5 -229.5t-425.5 -103.5q-449 0 -449 239q0 82 42 129.5t120 90.5zM537 553q97 0 151 52.5t54 141.5q0 151 -165 151q-98 0 -154 -52.5t-56 -138.5q0 -154 170 -154z
M235 45q-66 -54 -66 -107q0 -67 74 -110.5t222 -43.5q287 0 287 154q0 60 -45 74.5t-229 14.5q-192 0 -243 18zM686 1660l286 -288l-178 -21l-131 132l-203 -132l-177 21z" />
    <glyph glyph-name="Gdotaccent" unicode="&#x120;" horiz-adv-x="1325" 
d="M1111 0h-106l-41 184q-111 -209 -372 -209q-219 0 -354 151.5t-135 437.5q0 350 183 595t482 245q393 0 498 -404l-216 -54q-69 247 -287 247q-182 0 -289 -193.5t-107 -441.5q0 -192 77.5 -285t208.5 -93q233 0 313 321h-297l34 206h526zM840 1512q-48 0 -79.5 31.5
t-31.5 75.5t31 77.5t80 33.5q46 0 80 -29.5t34 -80.5q0 -50 -33.5 -79t-80.5 -29z" />
    <glyph glyph-name="gdotaccent" unicode="&#x121;" horiz-adv-x="1039" 
d="M134 96q-86 59 -86 157q0 75 39.5 131.5t160.5 116.5q-115 83 -115 209q0 156 120.5 244t333.5 88q75 0 126 -15q49 149 119 201t180 52q30 0 68 -5l-2 -174q-54 5 -75 5q-54 0 -107 -18t-82 -98q156 -78 156 -242q0 -143 -112 -236t-320 -93q-88 0 -198 29
q-91 -46 -91 -124q0 -43 32 -67.5t131 -24.5h121q177 0 259.5 -29.5t129 -94t46.5 -138.5q0 -126 -121.5 -229.5t-425.5 -103.5q-449 0 -449 239q0 82 42 129.5t120 90.5zM537 553q97 0 151 52.5t54 141.5q0 151 -165 151q-98 0 -154 -52.5t-56 -138.5q0 -154 170 -154z
M235 45q-66 -54 -66 -107q0 -67 74 -110.5t222 -43.5q287 0 287 154q0 60 -45 74.5t-229 14.5q-192 0 -243 18zM614 1248q-48 0 -79.5 31.5t-31.5 75.5t31 77.5t80 33.5q46 0 80 -29.5t34 -80.5q0 -50 -33.5 -79t-80.5 -29z" />
    <glyph glyph-name="Gcommaaccent" unicode="&#x122;" horiz-adv-x="1325" 
d="M1111 0h-106l-41 184q-111 -209 -372 -209q-219 0 -354 151.5t-135 437.5q0 350 183 595t482 245q393 0 498 -404l-216 -54q-69 247 -287 247q-182 0 -289 -193.5t-107 -441.5q0 -192 77.5 -285t208.5 -93q233 0 313 321h-297l34 206h526zM466 -479h-93l105 370h205z" />
    <glyph glyph-name="gcommaaccent" unicode="&#x123;" horiz-adv-x="1039" 
d="M134 96q-86 59 -86 157q0 75 39.5 131.5t160.5 116.5q-115 83 -115 209q0 156 120.5 244t333.5 88q75 0 126 -15q49 149 119 201t180 52q30 0 68 -5l-2 -174q-54 5 -75 5q-54 0 -107 -18t-82 -98q156 -78 156 -242q0 -143 -112 -236t-320 -93q-88 0 -198 29
q-91 -46 -91 -124q0 -43 32 -67.5t131 -24.5h121q177 0 259.5 -29.5t129 -94t46.5 -138.5q0 -126 -121.5 -229.5t-425.5 -103.5q-449 0 -449 239q0 82 42 129.5t120 90.5zM537 553q97 0 151 52.5t54 141.5q0 151 -165 151q-98 0 -154 -52.5t-56 -138.5q0 -154 170 -154z
M235 45q-66 -54 -66 -107q0 -67 74 -110.5t222 -43.5q287 0 287 154q0 60 -45 74.5t-229 14.5q-192 0 -243 18zM653 1602h93l-105 -397h-205z" />
    <glyph glyph-name="Hcircumflex" unicode="&#x124;" horiz-adv-x="1323" 
d="M1088 0h-245l99 591h-534l-99 -591h-244l228 1365h245l-94 -559h534l94 559h244zM892 1790l286 -288l-178 -21l-131 132l-203 -132l-177 21z" />
    <glyph glyph-name="hcircumflex" unicode="&#x125;" horiz-adv-x="1102" 
d="M881 0h-224l100 601q18 105 18 129q0 134 -130 134q-89 0 -169.5 -75t-115.5 -288l-84 -501h-224l228 1365h224l-87 -525q126 207 311 207q115 0 195 -66t80 -208q0 -41 -22 -172zM473 1790l286 -288l-178 -21l-131 132l-203 -132l-177 21z" />
    <glyph glyph-name="Hbar" unicode="&#x126;" horiz-adv-x="1323" 
d="M93 985l32 191h137l31 189h245l-32 -189h534l32 189h244l-32 -189h137l-32 -191h-137l-164 -985h-245l99 591h-534l-99 -591h-244l165 985h-137zM474 985l-30 -179h534l30 179h-534z" />
    <glyph glyph-name="hbar" unicode="&#x127;" horiz-adv-x="1102" 
d="M118 1131l21 122h123l18 112h224l-18 -112h286l-20 -122h-287l-48 -291q126 207 311 207q115 0 195 -66t80 -208q0 -41 -22 -172l-100 -601h-224l100 601q18 105 18 129q0 134 -130 134q-89 0 -169.5 -75t-115.5 -288l-84 -501h-224l189 1131h-123z" />
    <glyph glyph-name="Itilde" unicode="&#x128;" horiz-adv-x="553" 
d="M318 0h-253l228 1365h253zM728 1731l52 -99q-88 -117 -211 -117q-61 0 -148 47q-69 38 -101 38q-47 0 -140 -80l-52 96q114 122 218 122q56 0 130 -39q81 -42 122 -42q63 0 130 74z" />
    <glyph glyph-name="itilde" unicode="&#x129;" horiz-adv-x="508" 
d="M287 0h-235l170 1017h235zM646 1417l52 -99q-88 -117 -211 -117q-61 0 -148 47q-69 38 -101 38q-47 0 -140 -80l-52 96q114 122 218 122q56 0 130 -39q81 -42 122 -42q63 0 130 74z" />
    <glyph glyph-name="Imacron" unicode="&#x12a;" horiz-adv-x="553" 
d="M318 0h-253l228 1365h253zM752 1550h-586l22 130h585z" />
    <glyph glyph-name="imacron" unicode="&#x12b;" horiz-adv-x="508" 
d="M287 0h-235l170 1017h235zM667 1222h-586l22 130h585z" />
    <glyph glyph-name="Ibreve" unicode="&#x12c;" horiz-adv-x="553" 
d="M318 0h-253l228 1365h253zM179 1766h132q0 -82 45.5 -107t105.5 -25q149 0 193 132h132q-27 -124 -124 -199t-228 -75q-122 0 -190.5 64.5t-68.5 159.5q0 18 3 50z" />
    <glyph glyph-name="ibreve" unicode="&#x12d;" horiz-adv-x="508" 
d="M287 0h-235l170 1017h235zM111 1455h132q0 -82 45.5 -107t105.5 -25q149 0 193 132h132q-27 -124 -124 -199t-228 -75q-122 0 -190.5 64.5t-68.5 159.5q0 18 3 50z" />
    <glyph glyph-name="Iogonek" unicode="&#x12e;" horiz-adv-x="553" 
d="M67 0l229 1365h252l-228 -1365q-135 -86 -135 -168q0 -37 28 -64.5t72 -27.5q36 0 80 18l18 -81q-80 -36 -146 -36q-92 0 -145.5 41.5t-53.5 114.5q0 112 165 203h-136z" />
    <glyph glyph-name="iogonek" unicode="&#x12f;" horiz-adv-x="508" 
d="M477 1135h-235l41 244h235zM287 0h-235l170 1017h235zM287 0q-164 -81 -164 -174q0 -80 98 -80q40 0 91 18l12 -73q-82 -35 -165 -35q-87 0 -134 39.5t-47 95.5q0 131 199 209h110z" />
    <glyph glyph-name="IJ" unicode="&#x132;" horiz-adv-x="1176" 
d="M188 0h-253l228 1365h253zM324 -3l38 204q75 -8 136 -8q155 0 207.5 60t77.5 209l150 903h250l-144 -863q-34 -200 -78 -299.5t-148.5 -163.5t-279.5 -64q-93 0 -209 22z" />
    <glyph glyph-name="ij" unicode="&#x133;" horiz-adv-x="1016" 
d="M477 1135h-235l41 244h235zM287 0h-235l170 1017h235zM984 1139h-235l41 240h235zM964 1017l-155 -927q-31 -187 -68.5 -275.5t-127 -143.5t-225.5 -55q-82 0 -154 12l13 192q60 -13 111 -13q112 0 149 52t61 193l161 965h235z" />
    <glyph glyph-name="Jcircumflex" unicode="&#x134;" horiz-adv-x="767" 
d="M-85 -3l39 204q74 -8 136 -8q155 0 207 60t77 209l151 903h250l-145 -863q-33 -200 -77.5 -299.5t-149 -163.5t-278.5 -64q-93 0 -210 22zM701 1790l286 -288l-178 -21l-131 132l-203 -132l-177 21z" />
    <glyph glyph-name="jcircumflex" unicode="&#x135;" horiz-adv-x="508" 
d="M399 1476l286 -288l-177 -21l-131 132l-203 -132l-177 21zM457 1017l-155 -927q-31 -185 -68 -273.5t-126 -144.5t-227 -56q-82 0 -154 12l13 192q60 -13 111 -13q112 0 149 52t61 193l161 965h235z" />
    <glyph glyph-name="Kcommaaccent" unicode="&#x136;" horiz-adv-x="1264" 
d="M1145 0h-258l-203 685l-318 -348l-57 -337h-244l228 1365h245l-100 -595q-3 -17 -31 -144q36 56 77 101l576 638h262l-447 -487zM454 -479h-93l105 370h205z" />
    <glyph glyph-name="kcommaaccent" unicode="&#x137;" horiz-adv-x="1110" 
d="M1012 0h-242l-177 542l-268 -248l-49 -294h-224l228 1365h224l-137 -823l512 475h239l-345 -321zM387 -479h-93l105 370h205z" />
    <glyph glyph-name="kgreenlandic" unicode="&#x138;" horiz-adv-x="1110" 
d="M1012 0h-242l-177 542l-268 -248l-49 -294h-224l170 1017h224l-79 -475l512 475h239l-345 -321z" />
    <glyph glyph-name="Lacute" unicode="&#x139;" horiz-adv-x="1000" 
d="M884 0h-819l228 1365h260l-193 -1151h560zM731 1800l66 -136l-417 -190l-42 107z" />
    <glyph glyph-name="lacute" unicode="&#x13a;" horiz-adv-x="508" 
d="M287 0h-235l228 1365h235zM684 1800l66 -136l-417 -190l-42 107z" />
    <glyph glyph-name="Lcommaaccent" unicode="&#x13b;" horiz-adv-x="1000" 
d="M884 0h-819l228 1365h260l-193 -1151h560zM356 -479h-93l105 370h205z" />
    <glyph glyph-name="lcommaaccent" unicode="&#x13c;" horiz-adv-x="508" 
d="M287 0h-235l228 1365h235zM49 -479h-93l105 370h205z" />
    <glyph glyph-name="Lcaron" unicode="&#x13d;" horiz-adv-x="1000" 
d="M884 0h-819l228 1365h260l-193 -1151h560zM786 968h-93l105 397h205z" />
    <glyph glyph-name="lcaron" unicode="&#x13e;" horiz-adv-x="720" 
d="M287 0h-235l228 1365h235zM653 968h-93l105 397h205z" />
    <glyph glyph-name="Ldot" unicode="&#x13f;" horiz-adv-x="1000" 
d="M884 0h-819l228 1365h260l-193 -1151h560zM910 571h-239l42 251h239z" />
    <glyph glyph-name="ldot" unicode="&#x140;" horiz-adv-x="748" 
d="M287 0h-235l228 1365h235zM759 571h-239l42 251h239z" />
    <glyph glyph-name="Nacute" unicode="&#x143;" horiz-adv-x="1330" 
d="M1094 0h-195l-466 1026l-171 -1026h-197l228 1365h253l425 -937l157 937h195zM1117 1800l66 -136l-417 -190l-42 107z" />
    <glyph glyph-name="nacute" unicode="&#x144;" horiz-adv-x="1100" 
d="M879 0h-224l104 611q11 69 11 118q0 56 -31.5 94.5t-95.5 38.5q-102 0 -180 -103.5t-110 -300.5l-77 -458h-224l170 1017h208l-40 -237q95 178 176 221.5t158 43.5q111 0 192.5 -75.5t81.5 -210.5q0 -53 -20 -169zM921 1487l66 -136l-417 -190l-42 107z" />
    <glyph glyph-name="Ncommaaccent" unicode="&#x145;" horiz-adv-x="1330" 
d="M1094 0h-195l-466 1026l-171 -1026h-197l228 1365h253l425 -937l157 937h195zM462 -479h-93l105 370h205z" />
    <glyph glyph-name="ncommaaccent" unicode="&#x146;" horiz-adv-x="1100" 
d="M879 0h-224l104 611q11 69 11 118q0 56 -31.5 94.5t-95.5 38.5q-102 0 -180 -103.5t-110 -300.5l-77 -458h-224l170 1017h208l-40 -237q95 178 176 221.5t158 43.5q111 0 192.5 -75.5t81.5 -210.5q0 -53 -20 -169zM340 -479h-93l105 370h205z" />
    <glyph glyph-name="Ncaron" unicode="&#x147;" horiz-adv-x="1330" 
d="M1094 0h-195l-466 1026l-171 -1026h-197l228 1365h253l425 -937l157 937h195zM874 1467l-286 288l177 20l132 -131l202 131l178 -20z" />
    <glyph glyph-name="ncaron" unicode="&#x148;" horiz-adv-x="1100" 
d="M879 0h-224l104 611q11 69 11 118q0 56 -31.5 94.5t-95.5 38.5q-102 0 -180 -103.5t-110 -300.5l-77 -458h-224l170 1017h208l-40 -237q95 178 176 221.5t158 43.5q111 0 192.5 -75.5t81.5 -210.5q0 -53 -20 -169zM649 1154l-286 288l177 20l132 -131l202 131l178 -20z
" />
    <glyph glyph-name="napostrophe" unicode="&#x149;" horiz-adv-x="1372" 
d="M1150 0h-224l104 611q11 69 11 118q0 56 -31.5 94.5t-95.5 38.5q-102 0 -180 -103.5t-110 -300.5l-77 -458h-224l170 1017h208l-40 -237q95 178 176 221.5t158 43.5q111 0 192.5 -75.5t81.5 -210.5q0 -53 -20 -169zM273 885h-80l152 259h-109l37 221h218l-35 -206z" />
    <glyph glyph-name="Eng" unicode="&#x14a;" horiz-adv-x="1323" 
d="M293 1365h223l-53 -318q85 154 129.5 212.5t127.5 101.5t176 43q146 0 249 -103t103 -276q0 -70 -28 -233l-90 -540q-42 -249 -90.5 -368t-164.5 -193.5t-291 -74.5q-95 0 -180 16l16 214q86 -17 157 -17q109 0 164.5 37t81.5 103t54 233l108 645q17 101 17 166
q0 78 -45.5 132t-134.5 54q-143 0 -252.5 -149t-157.5 -435l-103 -615h-244z" />
    <glyph glyph-name="eng" unicode="&#x14b;" horiz-adv-x="1100" 
d="M222 1017h208l-40 -237q95 178 176 221.5t158 43.5q111 0 192.5 -75.5t81.5 -210.5q0 -53 -20 -169l-84 -500q-31 -185 -67.5 -273t-125.5 -144.5t-227 -56.5q-82 0 -155 12l12 185q66 -12 119 -12q78 0 118 25.5t58.5 69.5t37.5 156l93 559q12 71 12 119q0 54 -31 93
t-95 39q-102 0 -180 -103.5t-110 -300.5l-77 -458h-224z" />
    <glyph glyph-name="Omacron" unicode="&#x14c;" horiz-adv-x="1324" 
d="M104 581q0 314 176 568.5t471 254.5q246 0 387.5 -165t141.5 -453q0 -322 -179 -572.5t-476 -250.5q-217 0 -369 169.5t-152 448.5zM363 538q0 -200 79 -285t192 -85q198 0 291 219t93 454q0 358 -282 358q-188 0 -280.5 -225.5t-92.5 -435.5zM1131 1550h-586l22 130h585
z" />
    <glyph glyph-name="omacron" unicode="&#x14d;" horiz-adv-x="1075" 
d="M506 -26q-113 0 -218.5 50t-161 158.5t-55.5 258.5q0 243 143 420.5t374 177.5q190 0 304 -127.5t114 -342.5q0 -221 -136 -408t-364 -187zM508 157q136 0 200 140.5t64 294.5q0 264 -204 264q-143 0 -205 -151t-62 -301q0 -127 60 -187t147 -60zM944 1222h-586l22 130
h585z" />
    <glyph glyph-name="Obreve" unicode="&#x14e;" horiz-adv-x="1324" 
d="M104 581q0 314 176 568.5t471 254.5q246 0 387.5 -165t141.5 -453q0 -322 -179 -572.5t-476 -250.5q-217 0 -369 169.5t-152 448.5zM363 538q0 -200 79 -285t192 -85q198 0 291 219t93 454q0 358 -282 358q-188 0 -280.5 -225.5t-92.5 -435.5zM531 1766h132
q0 -82 45.5 -107t105.5 -25q149 0 193 132h132q-27 -124 -124 -199t-228 -75q-122 0 -190.5 64.5t-68.5 159.5q0 18 3 50z" />
    <glyph glyph-name="obreve" unicode="&#x14f;" horiz-adv-x="1075" 
d="M506 -26q-113 0 -218.5 50t-161 158.5t-55.5 258.5q0 243 143 420.5t374 177.5q190 0 304 -127.5t114 -342.5q0 -221 -136 -408t-364 -187zM508 157q136 0 200 140.5t64 294.5q0 264 -204 264q-143 0 -205 -151t-62 -301q0 -127 60 -187t147 -60zM360 1455h132
q0 -82 45.5 -107t105.5 -25q149 0 193 132h132q-27 -124 -124 -199t-228 -75q-122 0 -190.5 64.5t-68.5 159.5q0 18 3 50z" />
    <glyph glyph-name="Ohungarumlaut" unicode="&#x150;" horiz-adv-x="1324" 
d="M104 581q0 314 176 568.5t471 254.5q246 0 387.5 -165t141.5 -453q0 -322 -179 -572.5t-476 -250.5q-217 0 -369 169.5t-152 448.5zM363 538q0 -200 79 -285t192 -85q198 0 291 219t93 454q0 358 -282 358q-188 0 -280.5 -225.5t-92.5 -435.5zM885 1794l80 -117
l-352 -210l-53 84zM1226 1794l80 -117l-352 -210l-53 84z" />
    <glyph glyph-name="ohungarumlaut" unicode="&#x151;" horiz-adv-x="1075" 
d="M506 -26q-113 0 -218.5 50t-161 158.5t-55.5 258.5q0 243 143 420.5t374 177.5q190 0 304 -127.5t114 -342.5q0 -221 -136 -408t-364 -187zM508 157q136 0 200 140.5t64 294.5q0 264 -204 264q-143 0 -205 -151t-62 -301q0 -127 60 -187t147 -60zM707 1481l80 -117
l-352 -210l-53 84zM1048 1481l80 -117l-352 -210l-53 84z" />
    <glyph glyph-name="Racute" unicode="&#x154;" horiz-adv-x="1309" 
d="M1128 0h-261l-145 560h-319l-94 -560h-244l228 1365h514q154 0 244 -28.5t161.5 -125.5t71.5 -222q0 -134 -79 -248.5t-244 -151.5zM436 759h339q156 0 205.5 69.5t49.5 146.5q0 66 -34.5 113t-81.5 62.5t-141 15.5h-269zM988 1800l66 -136l-417 -190l-42 107z" />
    <glyph glyph-name="racute" unicode="&#x155;" horiz-adv-x="711" 
d="M276 0h-224l170 1017h206l-46 -277q131 305 352 305q9 0 27 -1l-29 -250q-33 2 -50 2q-83 0 -156.5 -44t-115 -118.5t-69.5 -244.5zM783 1487l66 -136l-417 -190l-42 107z" />
    <glyph glyph-name="Rcommaaccent" unicode="&#x156;" horiz-adv-x="1309" 
d="M1128 0h-261l-145 560h-319l-94 -560h-244l228 1365h514q154 0 244 -28.5t161.5 -125.5t71.5 -222q0 -134 -79 -248.5t-244 -151.5zM436 759h339q156 0 205.5 69.5t49.5 146.5q0 66 -34.5 113t-81.5 62.5t-141 15.5h-269zM449 -479h-93l105 370h205z" />
    <glyph glyph-name="rcommaaccent" unicode="&#x157;" horiz-adv-x="711" 
d="M276 0h-224l170 1017h206l-46 -277q131 305 352 305q9 0 27 -1l-29 -250q-33 2 -50 2q-83 0 -156.5 -44t-115 -118.5t-69.5 -244.5zM44 -479h-93l105 370h205z" />
    <glyph glyph-name="Rcaron" unicode="&#x158;" horiz-adv-x="1309" 
d="M1128 0h-261l-145 560h-319l-94 -560h-244l228 1365h514q154 0 244 -28.5t161.5 -125.5t71.5 -222q0 -134 -79 -248.5t-244 -151.5zM436 759h339q156 0 205.5 69.5t49.5 146.5q0 66 -34.5 113t-81.5 62.5t-141 15.5h-269zM745 1467l-286 288l177 20l132 -131l202 131
l178 -20z" />
    <glyph glyph-name="rcaron" unicode="&#x159;" horiz-adv-x="711" 
d="M276 0h-224l170 1017h206l-46 -277q131 305 352 305q9 0 27 -1l-29 -250q-33 2 -50 2q-83 0 -156.5 -44t-115 -118.5t-69.5 -244.5zM501 1154l-286 288l177 20l132 -131l202 131l178 -20z" />
    <glyph glyph-name="Sacute" unicode="&#x15a;" horiz-adv-x="1132" 
d="M1115 1106l-224 -83q-72 170 -260 170q-114 0 -177.5 -53.5t-63.5 -132.5q0 -61 43 -99.5t142 -66.5l187 -55q81 -23 154 -73t109 -125t36 -158q0 -186 -138.5 -322.5t-404.5 -136.5q-412 0 -534 340l223 79q81 -214 326 -214q140 0 208 64.5t68 146.5q0 47 -25.5 81.5
t-64.5 52.5t-156 51q-163 47 -243.5 89t-131 122t-50.5 190q0 187 135 306t368 119q344 0 474 -292zM958 1800l66 -136l-417 -190l-42 107z" />
    <glyph glyph-name="sacute" unicode="&#x15b;" horiz-adv-x="938" 
d="M177 299q59 -152 241 -152q91 0 143.5 37.5t52.5 95.5q0 43 -35.5 68t-120.5 49q-137 38 -203 70t-111 98t-45 151q0 133 101 231.5t285 98.5q299 0 420 -240l-193 -62q-67 133 -221 133q-69 0 -117 -32t-48 -86q0 -38 23.5 -63t94.5 -45q162 -48 240.5 -83.5t124 -101
t45.5 -150.5q0 -144 -110.5 -241t-327.5 -97q-347 0 -453 269zM802 1487l66 -136l-417 -190l-42 107z" />
    <glyph glyph-name="Scircumflex" unicode="&#x15c;" horiz-adv-x="1132" 
d="M1115 1106l-224 -83q-72 170 -260 170q-114 0 -177.5 -53.5t-63.5 -132.5q0 -61 43 -99.5t142 -66.5l187 -55q81 -23 154 -73t109 -125t36 -158q0 -186 -138.5 -322.5t-404.5 -136.5q-412 0 -534 340l223 79q81 -214 326 -214q140 0 208 64.5t68 146.5q0 47 -25.5 81.5
t-64.5 52.5t-156 51q-163 47 -243.5 89t-131 122t-50.5 190q0 187 135 306t368 119q344 0 474 -292zM749 1790l286 -288l-178 -21l-131 132l-203 -132l-177 21z" />
    <glyph glyph-name="scircumflex" unicode="&#x15d;" horiz-adv-x="938" 
d="M177 299q59 -152 241 -152q91 0 143.5 37.5t52.5 95.5q0 43 -35.5 68t-120.5 49q-137 38 -203 70t-111 98t-45 151q0 133 101 231.5t285 98.5q299 0 420 -240l-193 -62q-67 133 -221 133q-69 0 -117 -32t-48 -86q0 -38 23.5 -63t94.5 -45q162 -48 240.5 -83.5t124 -101
t45.5 -150.5q0 -144 -110.5 -241t-327.5 -97q-347 0 -453 269zM595 1476l286 -288l-178 -21l-131 132l-203 -132l-177 21z" />
    <glyph glyph-name="Tcommaaccent" unicode="&#x162;" horiz-adv-x="945" 
d="M1053 1151h-347l-193 -1151h-251l193 1151h-347l36 214h945zM255 -479h-93l105 370h205z" />
    <glyph glyph-name="tcommaaccent" unicode="&#x163;" horiz-adv-x="657" 
d="M528 -2q-101 -15 -143 -15q-141 0 -206.5 63.5t-65.5 154.5q0 47 23 183l77 450h-151l31 183h153l61 274l204 14l-48 -288h219l-30 -183h-220l-76 -453q-14 -84 -14 -108q0 -97 144 -97q30 0 73 7zM185 -479h-93l105 370h205z" />
    <glyph glyph-name="Tcaron" unicode="&#x164;" horiz-adv-x="945" 
d="M1053 1151h-347l-193 -1151h-251l193 1151h-347l36 214h945zM633 1468l-286 288l177 20l132 -131l202 131l178 -20z" />
    <glyph glyph-name="tcaron" unicode="&#x165;" horiz-adv-x="724" 
d="M528 -2q-101 -15 -143 -15q-141 0 -206.5 63.5t-65.5 154.5q0 47 23 183l77 450h-151l31 183h153l61 274l204 14l-48 -288h219l-30 -183h-220l-76 -453q-14 -84 -14 -108q0 -97 144 -97q30 0 73 7zM685 1126h-93l105 397h205z" />
    <glyph glyph-name="Tbar" unicode="&#x166;" horiz-adv-x="945" 
d="M935 887l-32 -191h-273l-116 -696h-251l116 696h-273l32 191h273l44 264h-347l36 214h945l-36 -214h-347l-44 -264h273z" />
    <glyph glyph-name="tbar" unicode="&#x167;" horiz-adv-x="657" 
d="M30 564l21 123h136l26 147h-152l31 183h154l60 274l204 14l-48 -288h220l-31 -183h-220l-24 -147h206l-20 -123h-207l-30 -183q-14 -82 -14 -108q0 -97 143 -97q31 0 74 7l-31 -185q-101 -15 -144 -15q-144 0 -208 64.5t-64 153.5q0 48 24 183l30 180h-136z" />
    <glyph glyph-name="Utilde" unicode="&#x168;" horiz-adv-x="1239" 
d="M1246 1365l-148 -882q-29 -174 -73.5 -269t-163 -170t-283.5 -75q-103 0 -200.5 34t-173 127.5t-75.5 251.5q0 79 19 193l132 790h252l-135 -803q-22 -130 -22 -174q0 -110 71 -159t164 -49q81 0 143.5 32t97 98t62.5 233l137 822h196zM1096 1731l52 -99
q-88 -117 -211 -117q-61 0 -148 47q-69 38 -101 38q-47 0 -140 -80l-52 96q114 122 218 122q56 0 130 -39q81 -42 122 -42q63 0 130 74z" />
    <glyph glyph-name="utilde" unicode="&#x169;" horiz-adv-x="1083" 
d="M862 0h-208l37 222q-129 -241 -345 -241q-120 0 -184 77t-64 171q0 49 26 202l98 586h224l-106 -631q-14 -87 -14 -107q0 -49 31 -78t81 -29q69 0 141 57t102 133.5t55 224.5l72 430h224zM950 1417l52 -99q-88 -117 -211 -117q-61 0 -148 47q-69 38 -101 38
q-47 0 -140 -80l-52 96q114 122 218 122q56 0 130 -39q81 -42 122 -42q63 0 130 74z" />
    <glyph glyph-name="Umacron" unicode="&#x16a;" horiz-adv-x="1239" 
d="M1246 1365l-148 -882q-29 -174 -73.5 -269t-163 -170t-283.5 -75q-103 0 -200.5 34t-173 127.5t-75.5 251.5q0 79 19 193l132 790h252l-135 -803q-22 -130 -22 -174q0 -110 71 -159t164 -49q81 0 143.5 32t97 98t62.5 233l137 822h196zM1099 1550h-586l22 130h585z" />
    <glyph glyph-name="umacron" unicode="&#x16b;" horiz-adv-x="1083" 
d="M862 0h-208l37 222q-129 -241 -345 -241q-120 0 -184 77t-64 171q0 49 26 202l98 586h224l-106 -631q-14 -87 -14 -107q0 -49 31 -78t81 -29q69 0 141 57t102 133.5t55 224.5l72 430h224zM954 1222h-586l22 130h585z" />
    <glyph glyph-name="Ubreve" unicode="&#x16c;" horiz-adv-x="1239" 
d="M1246 1365l-148 -882q-29 -174 -73.5 -269t-163 -170t-283.5 -75q-103 0 -200.5 34t-173 127.5t-75.5 251.5q0 79 19 193l132 790h252l-135 -803q-22 -130 -22 -174q0 -110 71 -159t164 -49q81 0 143.5 32t97 98t62.5 233l137 822h196zM541 1766h132q0 -82 45.5 -107
t105.5 -25q149 0 193 132h132q-27 -124 -124 -199t-228 -75q-122 0 -190.5 64.5t-68.5 159.5q0 18 3 50z" />
    <glyph glyph-name="ubreve" unicode="&#x16d;" horiz-adv-x="1083" 
d="M862 0h-208l37 222q-129 -241 -345 -241q-120 0 -184 77t-64 171q0 49 26 202l98 586h224l-106 -631q-14 -87 -14 -107q0 -49 31 -78t81 -29q69 0 141 57t102 133.5t55 224.5l72 430h224zM407 1455h132q0 -82 45.5 -107t105.5 -25q149 0 193 132h132q-27 -124 -124 -199
t-228 -75q-122 0 -190.5 64.5t-68.5 159.5q0 18 3 50z" />
    <glyph glyph-name="Uring" unicode="&#x16e;" horiz-adv-x="1239" 
d="M1246 1365l-148 -882q-29 -174 -73.5 -269t-163 -170t-283.5 -75q-103 0 -200.5 34t-173 127.5t-75.5 251.5q0 79 19 193l132 790h252l-135 -803q-22 -130 -22 -174q0 -110 71 -159t164 -49q81 0 143.5 32t97 98t62.5 233l137 822h196zM810 1446q-77 0 -131 54t-54 131
t54.5 132t130.5 55q69 0 127.5 -49t58.5 -141q0 -72 -53.5 -127t-132.5 -55zM811 1550q42 0 62 25.5t20 52.5q0 38 -21.5 62t-56.5 24q-34 0 -60 -21t-26 -61q0 -33 21 -57.5t61 -24.5z" />
    <glyph glyph-name="uring" unicode="&#x16f;" horiz-adv-x="1083" 
d="M862 0h-208l37 222q-129 -241 -345 -241q-120 0 -184 77t-64 171q0 49 26 202l98 586h224l-106 -631q-14 -87 -14 -107q0 -49 31 -78t81 -29q69 0 141 57t102 133.5t55 224.5l72 430h224zM674 1133q-77 0 -131 54t-54 131t54.5 132t130.5 55q69 0 127.5 -49t58.5 -141
q0 -72 -53.5 -127t-132.5 -55zM675 1237q42 0 62 25.5t20 52.5q0 38 -21.5 62t-56.5 24q-34 0 -60 -21t-26 -61q0 -33 21 -57.5t61 -24.5z" />
    <glyph glyph-name="Uhungarumlaut" unicode="&#x170;" horiz-adv-x="1239" 
d="M1246 1365l-148 -882q-29 -174 -73.5 -269t-163 -170t-283.5 -75q-103 0 -200.5 34t-173 127.5t-75.5 251.5q0 79 19 193l132 790h252l-135 -803q-22 -130 -22 -174q0 -110 71 -159t164 -49q81 0 143.5 32t97 98t62.5 233l137 822h196zM856 1794l80 -117l-352 -210
l-53 84zM1197 1794l80 -117l-352 -210l-53 84z" />
    <glyph glyph-name="uhungarumlaut" unicode="&#x171;" horiz-adv-x="1083" 
d="M862 0h-208l37 222q-129 -241 -345 -241q-120 0 -184 77t-64 171q0 49 26 202l98 586h224l-106 -631q-14 -87 -14 -107q0 -49 31 -78t81 -29q69 0 141 57t102 133.5t55 224.5l72 430h224zM716 1481l80 -117l-352 -210l-53 84zM1057 1481l80 -117l-352 -210l-53 84z" />
    <glyph glyph-name="Uogonek" unicode="&#x172;" horiz-adv-x="1239" 
d="M280 1365h252l-135 -803q-22 -130 -22 -174q0 -110 71 -159t164 -49q81 0 143.5 32t97 98t62.5 233l137 822h196l-148 -882q-35 -209 -83 -286.5t-164 -166.5q-92 -70 -121.5 -107t-29.5 -86q0 -91 119 -91q46 0 93 18l18 -80q-82 -36 -172 -36q-206 0 -206 157
q0 111 127 171q-70 -8 -107 -8q-126 0 -230 49.5t-158.5 141.5t-54.5 223q0 79 19 193z" />
    <glyph glyph-name="uogonek" unicode="&#x173;" horiz-adv-x="1083" 
d="M862 0h-208l37 222q-129 -241 -345 -241q-120 0 -184 77t-64 171q0 49 26 202l98 586h224l-106 -631q-14 -87 -14 -107q0 -49 31 -78t81 -29q69 0 141 57t102 133.5t55 224.5l72 430h224zM862 0q-164 -81 -164 -174q0 -80 98 -80q40 0 91 18l12 -73q-82 -35 -165 -35
q-87 0 -134 39.5t-47 95.5q0 131 199 209h110z" />
    <glyph glyph-name="Wcircumflex" unicode="&#x174;" horiz-adv-x="1782" 
d="M1332 -10h-246l-120 1028l-421 -1028h-237l-160 1375h264l91 -1031l419 1031h243l109 -1031l415 1031h216zM1115 1790l286 -288l-178 -21l-131 132l-203 -132l-177 21z" />
    <glyph glyph-name="wcircumflex" unicode="&#x175;" horiz-adv-x="1432" 
d="M1031 0h-210l-77 723l-294 -723h-206l-152 1017h231l92 -703l294 703h202l74 -701l314 701h198zM870 1476l286 -288l-178 -21l-131 132l-203 -132l-177 21z" />
    <glyph glyph-name="Ycircumflex" unicode="&#x176;" horiz-adv-x="1061" 
d="M593 0h-257l96 575l-347 790h281l242 -590l388 590h236l-545 -802zM762 1790l286 -288l-178 -21l-131 132l-203 -132l-177 21z" />
    <glyph glyph-name="ycircumflex" unicode="&#x177;" horiz-adv-x="933" 
d="M-57 -361l10 194q58 -9 134 -9q71 0 117.5 29.5t84.5 110.5l38 81l-249 972h240l154 -700l336 700h196l-522 -1053q-73 -146 -112 -202t-113.5 -94t-192.5 -38q-56 0 -121 9zM635 1476l286 -288l-178 -21l-131 132l-203 -132l-177 21z" />
    <glyph glyph-name="Zacute" unicode="&#x179;" horiz-adv-x="1077" 
d="M958 0h-1002l34 201l822 950h-643l36 214h957l-26 -171l-851 -980h709zM968 1800l66 -136l-417 -190l-42 107z" />
    <glyph glyph-name="zacute" unicode="&#x17a;" horiz-adv-x="863" 
d="M731 0h-765l28 183l571 658h-432l29 176h722l-26 -158l-583 -676h486zM805 1487l66 -136l-417 -190l-42 107z" />
    <glyph glyph-name="Zdotaccent" unicode="&#x17b;" horiz-adv-x="1077" 
d="M958 0h-1002l34 201l822 950h-643l36 214h957l-26 -171l-851 -980h709zM708 1512q-48 0 -79.5 31.5t-31.5 75.5t31 77.5t80 33.5q46 0 80 -29.5t34 -80.5q0 -50 -33.5 -79t-80.5 -29z" />
    <glyph glyph-name="zdotaccent" unicode="&#x17c;" horiz-adv-x="863" 
d="M731 0h-765l28 183l571 658h-432l29 176h722l-26 -158l-583 -676h486zM553 1188q-48 0 -79.5 31.5t-31.5 75.5t31 77.5t80 33.5q46 0 80 -29.5t34 -80.5q0 -50 -33.5 -79t-80.5 -29z" />
    <glyph glyph-name="longs" unicode="&#x17f;" horiz-adv-x="1201" 
d="M585 0h-224l170 1017q67 396 418 396q92 0 142 -13l-19 -187q-48 12 -104 12q-68 0 -112.5 -23.5t-63.5 -59t-34 -125.5z" />
    <glyph glyph-name="Aringacute" unicode="&#x1fa;" horiz-adv-x="1234" 
d="M1013 1806l-465 -156l-35 108l441 190zM593 1355q-29 45 -29 98q0 78 54.5 133t130.5 55q71 0 128.5 -50t57.5 -133q0 -59 -32 -109l247 -1349h-273l-56 330h-495l-152 -330h-231zM750 1374q42 0 62 25.5t20 51.5q0 35 -19.5 61t-58.5 26q-34 0 -60 -21t-26 -61
q0 -33 21 -57.5t61 -24.5zM798 520l-100 650l-288 -650h388zM397 1365z" />
    <glyph glyph-name="aringacute" unicode="&#x1fb;" horiz-adv-x="1097" 
d="M896 0h-221q-2 27 -2 44q0 73 18 175q-50 -114 -144 -179.5t-207 -65.5q-136 0 -221.5 84.5t-85.5 208.5q0 171 152.5 272t477.5 101q42 0 98 -4q7 46 7 73q0 82 -56.5 124t-140.5 42q-161 0 -235 -141l-200 63q126 248 445 248q190 0 300 -86t110 -229q0 -61 -48 -322
q-51 -275 -51 -349q0 -27 4 -59zM741 519q-261 -14 -363 -69t-102 -161q0 -61 41 -99.5t112 -38.5q102 0 189 89.5t123 278.5zM650 1133q-77 0 -131 54t-54 131t54.5 132t130.5 55q69 0 127.5 -49t58.5 -141q0 -72 -53.5 -127t-132.5 -55zM651 1237q42 0 62 25.5t20 52.5
q0 38 -21.5 62t-56.5 24q-34 0 -60 -21t-26 -61q0 -33 21 -57.5t61 -24.5zM854 1859l66 -136l-417 -190l-42 107z" />
    <glyph glyph-name="AEacute" unicode="&#x1fc;" horiz-adv-x="1717" 
d="M1571 0h-906l59 351h-390l-224 -351h-229l895 1365h998l-35 -214h-637l-59 -355h530l-34 -201h-530l-63 -381h661zM755 537l105 626l-405 -626h300zM1498 1800l66 -136l-417 -190l-42 107z" />
    <glyph glyph-name="aeacute" unicode="&#x1fd;" horiz-adv-x="1698" 
d="M1570 280q-145 -305 -447 -305q-276 0 -375 241q-158 -242 -398 -242q-141 0 -229 82.5t-88 211.5q0 371 630 371q41 0 94 -3q8 35 8 62q0 176 -199 176q-157 0 -230 -138l-198 63q133 243 441 243q224 0 325 -126q121 126 315 126q186 0 300 -123t114 -329
q0 -48 -8 -109h-700q-8 -43 -8 -77q0 -116 57.5 -184t158.5 -68q158 0 238 185zM1420 625v23q0 91 -49 162t-158 71q-105 0 -174.5 -79.5t-85.5 -176.5h467zM737 517q-243 -11 -354.5 -61t-111.5 -166q0 -67 44 -103t112 -36q108 0 194 96t116 270zM1104 1487l66 -136
l-417 -190l-42 107z" />
    <glyph glyph-name="Oslashacute" unicode="&#x1fe;" horiz-adv-x="1324" 
d="M290 94l-115 -125h-197l211 252q-85 160 -85 359q0 310 177 567t469 257q210 0 346 -122l101 109h198l-198 -233q84 -167 84 -364q0 -339 -182 -585t-469 -246q-187 0 -340 131zM941 1117q-77 82 -205 82q-185 0 -279 -226t-94 -466q0 -34 8 -88zM438 257q79 -89 202 -89
q187 0 283 211t96 472q0 49 -11 107zM1001 1800l66 -136l-417 -190l-42 107z" />
    <glyph glyph-name="oslashacute" unicode="&#x1ff;" horiz-adv-x="1075" 
d="M226 59l-76 -88h-149l145 175q-75 126 -75 294q0 241 141.5 420.5t367.5 179.5q160 0 263 -84l78 87h146l-144 -169q84 -124 84 -292q0 -247 -143 -427.5t-364 -180.5q-150 0 -274 85zM704 809q-51 48 -138 48q-137 0 -201 -149.5t-64 -313.5q0 -36 9 -75zM362 215
q61 -58 141 -58q137 0 203.5 140t66.5 310q0 49 -12 97zM815 1487l66 -136l-417 -190l-42 107z" />
    <glyph glyph-name="tonos" unicode="&#x384;" horiz-adv-x="1024" 
d="M-7 1462l144 -97l-323 -360l-87 59z" />
    <glyph glyph-name="dieresistonos" unicode="&#x385;" horiz-adv-x="1024" 
d="M883 1761l79 -131l-328 -193l-46 91zM476 1188q-48 0 -79.5 31.5t-31.5 75.5t31 77.5t80 33.5q46 0 80 -29.5t34 -80.5q0 -50 -33.5 -79t-80.5 -29zM811 1188q-49 0 -80.5 32t-31.5 75q0 44 31.5 77.5t80.5 33.5q45 0 79.5 -29.5t34.5 -80.5q0 -50 -33.5 -79t-80.5 -29z
" />
    <glyph glyph-name="Alphatonos" unicode="&#x386;" horiz-adv-x="1234" 
d="M1150 0h-273l-56 330h-495l-152 -330h-231l654 1365h303zM798 520l-107 606l-281 -606h388zM307 1462l144 -97l-323 -360l-87 59z" />
    <glyph glyph-name="anoteleia" unicode="&#x387;" horiz-adv-x="281" 
d="M239 380h-239l42 251h239z" />
    <glyph glyph-name="Epsilontonos" unicode="&#x388;" horiz-adv-x="1099" 
d="M952 0h-887l228 1365h863l-36 -214h-618l-59 -354h512l-34 -202h-512l-64 -381h643zM68 1462l144 -97l-323 -360l-87 59z" />
    <glyph glyph-name="Etatonos" unicode="&#x389;" horiz-adv-x="1323" 
d="M1088 0h-245l99 591h-534l-99 -591h-244l228 1365h245l-94 -559h534l94 559h244zM68 1462l144 -97l-323 -360l-87 59z" />
    <glyph glyph-name="Iotatonos" unicode="&#x38a;" horiz-adv-x="553" 
d="M318 0h-253l228 1365h253zM68 1462l144 -97l-323 -360l-87 59z" />
    <glyph glyph-name="Omicrontonos" unicode="&#x38c;" horiz-adv-x="1324" 
d="M104 581q0 314 176 568.5t471 254.5q246 0 387.5 -165t141.5 -453q0 -322 -179 -572.5t-476 -250.5q-217 0 -369 169.5t-152 448.5zM363 538q0 -200 79 -285t192 -85q198 0 291 219t93 454q0 358 -282 358q-188 0 -280.5 -225.5t-92.5 -435.5zM132 1462l144 -97
l-323 -360l-87 59z" />
    <glyph glyph-name="Upsilontonos" unicode="&#x38e;" horiz-adv-x="1093" 
d="M624 0h-257l96 575l-347 790h281l242 -590l388 590h236l-545 -802zM-61 1462l144 -97l-323 -360l-87 59z" />
    <glyph glyph-name="Omegatonos" unicode="&#x38f;" horiz-adv-x="1382" 
d="M-21 0l35 212h333q-249 143 -249 454q0 327 188.5 527t472.5 200q249 0 400.5 -145.5t151.5 -382.5q0 -207 -92.5 -385t-287.5 -268h344l-36 -212h-541l35 212q180 113 244.5 286t64.5 335q0 179 -77.5 270t-210.5 91q-186 0 -291.5 -159t-105.5 -398q0 -142 42 -242.5
t157 -182.5l-36 -212h-541zM82 1462l144 -97l-323 -360l-87 59z" />
    <glyph glyph-name="iotadieresistonos" unicode="&#x390;" horiz-adv-x="508" 
d="M287 0h-235l170 1017h235zM625 1761l79 -131l-328 -193l-46 91zM218 1188q-48 0 -79.5 31.5t-31.5 75.5t31 77.5t80 33.5q46 0 80 -29.5t34 -80.5q0 -50 -33.5 -79t-80.5 -29zM553 1188q-49 0 -80.5 32t-31.5 75q0 44 31.5 77.5t80.5 33.5q45 0 79.5 -29.5t34.5 -80.5
q0 -50 -33.5 -79t-80.5 -29z" />
    <glyph glyph-name="Alpha" unicode="&#x391;" horiz-adv-x="1234" 
d="M1150 0h-273l-56 330h-495l-152 -330h-231l654 1365h303zM798 520l-107 606l-281 -606h388z" />
    <glyph glyph-name="Beta" unicode="&#x392;" horiz-adv-x="1251" 
d="M66 0l228 1365h478q129 0 212.5 -26t148.5 -110.5t65 -202.5q0 -243 -256 -324q213 -94 213 -309q0 -141 -98.5 -267t-383.5 -126h-607zM444 800h243q161 0 213.5 63.5t52.5 133.5q0 179 -230 179h-216zM344 201h278q110 0 163 18.5t88 70t35 126.5q0 68 -36.5 116.5
t-83 64t-127.5 15.5h-248z" />
    <glyph glyph-name="Gamma" unicode="&#x393;" horiz-adv-x="934" 
d="M66 0l228 1365h784l-35 -211h-540l-193 -1154h-244z" />
    <glyph glyph-name="Delta" unicode="&#x394;" horiz-adv-x="1191" 
d="M-64 0l647 1365h307l245 -1365h-1199zM260 212h564l-132 942h-14z" />
    <glyph glyph-name="Epsilon" unicode="&#x395;" horiz-adv-x="1099" 
d="M952 0h-887l228 1365h863l-36 -214h-618l-59 -354h512l-34 -202h-512l-64 -381h643z" />
    <glyph glyph-name="Zeta" unicode="&#x396;" horiz-adv-x="1077" 
d="M958 0h-1002l34 201l822 950h-643l36 214h957l-26 -171l-851 -980h709z" />
    <glyph glyph-name="Eta" unicode="&#x397;" horiz-adv-x="1323" 
d="M1088 0h-245l99 591h-534l-99 -591h-244l228 1365h245l-94 -559h534l94 559h244z" />
    <glyph glyph-name="Theta" unicode="&#x398;" horiz-adv-x="1352" 
d="M105 589q0 309 178.5 556.5t479.5 247.5q255 0 399.5 -165.5t144.5 -448.5q0 -317 -181.5 -561.5t-484.5 -244.5q-225 0 -380.5 169.5t-155.5 446.5zM364 548q0 -198 82.5 -284.5t202.5 -86.5q206 0 301 209t95 449q0 353 -298 353q-195 0 -289 -216t-94 -424zM897 794
l-22 -193h-355l22 193h355z" />
    <glyph glyph-name="Iota" unicode="&#x399;" horiz-adv-x="553" 
d="M318 0h-253l228 1365h253z" />
    <glyph glyph-name="Kappa" unicode="&#x39a;" horiz-adv-x="1264" 
d="M1145 0h-258l-203 685l-318 -348l-57 -337h-244l228 1365h245l-100 -595q-3 -17 -31 -144q36 56 77 101l576 638h262l-447 -487z" />
    <glyph glyph-name="Lambda" unicode="&#x39b;" horiz-adv-x="1096" 
d="M136 0h-232l617 1365h310l220 -1365h-275l-152 1136h-18z" />
    <glyph glyph-name="Mu" unicode="&#x39c;" horiz-adv-x="1633" 
d="M1399 0h-245l208 1243l-582 -1243h-133l-184 1232l-206 -1232h-191l228 1365h375l141 -917l417 917h400z" />
    <glyph glyph-name="Nu" unicode="&#x39d;" horiz-adv-x="1330" 
d="M1094 0h-195l-466 1026l-171 -1026h-197l228 1365h253l425 -937l157 937h195z" />
    <glyph glyph-name="Xi" unicode="&#x39e;" horiz-adv-x="1097" 
d="M185 1154l35 211h944l-35 -211h-944zM245 600l33 199h639l-33 -199h-639zM-8 0l35 212h944l-35 -212h-944z" />
    <glyph glyph-name="Omicron" unicode="&#x39f;" horiz-adv-x="1324" 
d="M104 581q0 314 176 568.5t471 254.5q246 0 387.5 -165t141.5 -453q0 -322 -179 -572.5t-476 -250.5q-217 0 -369 169.5t-152 448.5zM363 538q0 -200 79 -285t192 -85q198 0 291 219t93 454q0 358 -282 358q-188 0 -280.5 -225.5t-92.5 -435.5z" />
    <glyph glyph-name="Pi" unicode="&#x3a0;" horiz-adv-x="1270" 
d="M66 0l228 1365h970l-228 -1365h-244l193 1154h-482l-193 -1154h-244z" />
    <glyph glyph-name="Rho" unicode="&#x3a1;" horiz-adv-x="1223" 
d="M320 0h-255l228 1365h366q178 0 260 -7.5t160 -53.5t126 -132.5t48 -193.5q0 -142 -77.5 -251.5t-181 -144.5t-253.5 -35h-329zM515 1166l-69 -418h242q128 0 179 16.5t90 72t39 134.5q0 74 -35 121.5t-83 60.5t-172 13h-191z" />
    <glyph glyph-name="Sigma" unicode="&#x3a3;" horiz-adv-x="1046" 
d="M-14 0l32 194l501 531l-313 442l33 198h872l-33 -198h-576l308 -422l-505 -533h660l-35 -212h-944z" />
    <glyph glyph-name="Tau" unicode="&#x3a4;" horiz-adv-x="945" 
d="M1053 1151h-347l-193 -1151h-251l193 1151h-347l36 214h945z" />
    <glyph glyph-name="Upsilon" unicode="&#x3a5;" horiz-adv-x="1061" 
d="M593 0h-257l96 575l-347 790h281l242 -590l388 590h236l-545 -802z" />
    <glyph glyph-name="Phi" unicode="&#x3a6;" horiz-adv-x="1527" 
d="M1010 1233q465 -61 465 -477q0 -235 -152 -417t-499 -213l-28 -167h-241l28 173q-465 62 -465 478q0 241 156.5 421.5t494.5 207.5l28 167h242zM739 1063q-202 -29 -290.5 -150.5t-88.5 -294.5q0 -253 254 -307zM854 304q379 56 379 447q0 253 -253 305z" />
    <glyph glyph-name="Chi" unicode="&#x3a7;" horiz-adv-x="1131" 
d="M1046 0h-269l-218 522l-394 -522h-250l548 709l-285 656h271l191 -456l342 456h245l-496 -636z" />
    <glyph glyph-name="Psi" unicode="&#x3a8;" horiz-adv-x="1663" 
d="M627 0l43 252q-235 8 -362.5 98t-127.5 316q0 83 35 294l68 405h244l-67 -405q-34 -201 -34 -275q0 -218 277 -232l153 912h244l-152 -912q124 6 191.5 32t108 76.5t61 123t54.5 275.5l68 405h244l-68 -405q-42 -252 -73 -350.5t-109.5 -185t-199.5 -128.5t-311 -44
l-42 -252h-245z" />
    <glyph glyph-name="Omega" unicode="&#x3a9;" horiz-adv-x="1382" 
d="M-21 0l35 212h333q-249 143 -249 454q0 327 188.5 527t472.5 200q249 0 400.5 -145.5t151.5 -382.5q0 -207 -92.5 -385t-287.5 -268h344l-36 -212h-541l35 212q180 113 244.5 286t64.5 335q0 179 -77.5 270t-210.5 91q-186 0 -291.5 -159t-105.5 -398q0 -142 42 -242.5
t157 -182.5l-36 -212h-541z" />
    <glyph glyph-name="Iotadieresis" unicode="&#x3aa;" horiz-adv-x="553" 
d="M318 0h-253l228 1365h253zM321 1512q-48 0 -79.5 31.5t-31.5 75.5t31 77.5t80 33.5q46 0 80 -29.5t34 -80.5q0 -50 -33.5 -79t-80.5 -29zM656 1512q-49 0 -80.5 32t-31.5 75q0 44 31.5 77.5t80.5 33.5q45 0 79.5 -29.5t34.5 -80.5q0 -50 -33.5 -79t-80.5 -29z" />
    <glyph glyph-name="Upsilondieresis" unicode="&#x3ab;" horiz-adv-x="1061" 
d="M593 0h-257l96 575l-347 790h281l242 -590l388 590h236l-545 -802zM544 1512q-48 0 -79.5 31.5t-31.5 75.5t31 77.5t80 33.5q46 0 80 -29.5t34 -80.5q0 -50 -33.5 -79t-80.5 -29zM879 1512q-49 0 -80.5 32t-31.5 75q0 44 31.5 77.5t80.5 33.5q45 0 79.5 -29.5t34.5 -80.5
q0 -50 -33.5 -79t-80.5 -29z" />
    <glyph glyph-name="alphatonos" unicode="&#x3ac;" horiz-adv-x="1203" 
d="M1125 0h-245l-65 277q-166 -304 -399 -304q-155 0 -249.5 119t-94.5 321q0 251 137 441.5t367 190.5q134 0 203.5 -73t102.5 -183l112 228h231l-245 -482zM788 523q-57 236 -104 287t-111 51q-106 0 -185.5 -124t-79.5 -316q0 -113 49.5 -189.5t123.5 -76.5q84 0 151 82
t156 286zM795 1553l144 -97l-323 -360l-87 59z" />
    <glyph glyph-name="epsilontonos" unicode="&#x3ad;" horiz-adv-x="948" 
d="M603 603l-26 -157q-121 0 -172.5 -9t-87.5 -49.5t-36 -103.5q0 -68 46 -105t121 -37q172 0 242 179l200 -36q-108 -312 -467 -312q-195 0 -287 79.5t-92 213.5q0 213 251 275q-110 57 -138 110t-28 108q0 118 95 202t302 84q366 0 394 -284l-206 -38q-17 150 -178 150
q-89 0 -131.5 -41.5t-42.5 -100.5q0 -64 48 -96.5t193 -31.5zM682 1553l144 -97l-323 -360l-87 59z" />
    <glyph glyph-name="etatonos" unicode="&#x3ae;" horiz-adv-x="1110" 
d="M836 -355h-224l166 990q9 57 9 89q0 138 -132 138q-104 0 -182.5 -78.5t-100.5 -206.5l-96 -577h-224l170 1017h206l-30 -180q91 125 173.5 166.5t178.5 41.5q116 0 192 -61t76 -185q0 -70 -20 -188zM774 1553l144 -97l-323 -360l-87 59z" />
    <glyph glyph-name="iotatonos" unicode="&#x3af;" horiz-adv-x="508" 
d="M287 0h-235l170 1017h235zM453 1553l144 -97l-323 -360l-87 59z" />
    <glyph glyph-name="upsilondieresistonos" unicode="&#x3b0;" horiz-adv-x="1077" 
d="M438 1017l-100 -595q-17 -104 -17 -147q0 -119 160 -119q69 0 118.5 23.5t70.5 68t43 174.5l99 595h224l-95 -568q-33 -200 -71 -284t-136 -138t-259 -54q-211 0 -294 75.5t-83 208.5q0 69 16 165l100 595h224zM918 1761l79 -131l-328 -193l-46 91zM511 1188
q-48 0 -79.5 31.5t-31.5 75.5t31 77.5t80 33.5q46 0 80 -29.5t34 -80.5q0 -50 -33.5 -79t-80.5 -29zM846 1188q-49 0 -80.5 32t-31.5 75q0 44 31.5 77.5t80.5 33.5q45 0 79.5 -29.5t34.5 -80.5q0 -50 -33.5 -79t-80.5 -29z" />
    <glyph glyph-name="alpha" unicode="&#x3b1;" horiz-adv-x="1203" 
d="M1125 0h-245l-65 277q-166 -304 -399 -304q-155 0 -249.5 119t-94.5 321q0 251 137 441.5t367 190.5q134 0 203.5 -73t102.5 -183l112 228h231l-245 -482zM788 523q-57 236 -104 287t-111 51q-106 0 -185.5 -124t-79.5 -316q0 -113 49.5 -189.5t123.5 -76.5q84 0 151 82
t156 286z" />
    <glyph glyph-name="beta" unicode="&#x3b2;" horiz-adv-x="1133" 
d="M-1 -355l208 1241q29 177 49.5 242.5t77.5 131t140.5 99.5t210.5 34q191 0 290.5 -85t99.5 -216q0 -263 -295 -337q264 -72 264 -330q0 -178 -127 -315t-350 -137q-176 0 -268 125l-76 -453h-224zM321 229q66 -85 193 -85q135 0 217 89.5t82 222.5q0 104 -56 157t-182 53
l25 148q150 3 197 88t47 176q0 157 -168 157q-92 0 -139 -45t-64.5 -102.5t-37.5 -173.5z" />
    <glyph glyph-name="gamma" unicode="&#x3b3;" horiz-adv-x="885" 
d="M185 -355l60 355l-172 1017h235l115 -716l366 716h198l-518 -1017l-60 -355h-224z" />
    <glyph glyph-name="delta" unicode="&#x3b4;" horiz-adv-x="1090" 
d="M1004 1365l-30 -180h-420l148 -111q116 -89 178 -155.5t99.5 -158t37.5 -198.5q0 -252 -142.5 -421t-384.5 -169q-197 0 -306.5 110.5t-109.5 304.5q0 251 141 398t331 147h34l-305 267l28 166h701zM586 807q-132 0 -204 -108t-72 -306q0 -237 200 -237q137 0 205 116.5
t68 292.5q0 242 -197 242z" />
    <glyph glyph-name="epsilon" unicode="&#x3b5;" horiz-adv-x="948" 
d="M603 603l-26 -157q-121 0 -172.5 -9t-87.5 -49.5t-36 -103.5q0 -68 46 -105t121 -37q172 0 242 179l200 -36q-108 -312 -467 -312q-195 0 -287 79.5t-92 213.5q0 213 251 275q-110 57 -138 110t-28 108q0 118 95 202t302 84q366 0 394 -284l-206 -38q-17 150 -178 150
q-89 0 -131.5 -41.5t-42.5 -100.5q0 -64 48 -96.5t193 -31.5z" />
    <glyph glyph-name="zeta" unicode="&#x3b6;" horiz-adv-x="800" 
d="M237 1185l30 180h613l-25 -152q-238 -163 -386 -398t-148 -439q0 -86 35 -129.5t168 -51.5q125 -7 157 -56t32 -116q0 -147 -129 -373l-190 25q100 163 100 242q0 43 -27 59t-100 19q-163 7 -226 89t-63 223q0 206 132 431t429 447h-402z" />
    <glyph glyph-name="eta" unicode="&#x3b7;" horiz-adv-x="1110" 
d="M836 -355h-224l166 990q9 57 9 89q0 138 -132 138q-104 0 -182.5 -78.5t-100.5 -206.5l-96 -577h-224l170 1017h206l-30 -180q91 125 173.5 166.5t178.5 41.5q116 0 192 -61t76 -185q0 -70 -20 -188z" />
    <glyph glyph-name="theta" unicode="&#x3b8;" horiz-adv-x="1102" 
d="M667 1393q183 0 288 -134t105 -408q0 -370 -147 -624t-410 -254q-183 0 -288 133.5t-105 405.5q0 372 147.5 626.5t409.5 254.5zM361 785h472q5 69 5 112q0 167 -54.5 249t-135.5 82q-92 0 -172 -103t-115 -340zM343 633q-10 -88 -10 -156q0 -340 189 -340q230 0 294 496
h-473z" />
    <glyph glyph-name="iota" unicode="&#x3b9;" horiz-adv-x="508" 
d="M287 0h-235l170 1017h235z" />
    <glyph glyph-name="kappa" unicode="&#x3ba;" horiz-adv-x="1033" 
d="M53 0l170 1017h224l-73 -438l476 438h232l-384 -354l252 -663h-253l-179 497l-185 -159l-56 -338h-224z" />
    <glyph glyph-name="lambda" unicode="&#x3bb;" horiz-adv-x="842" 
d="M-87 0l444 934l-105 431h236l320 -1365h-233l-163 700l-317 -700h-182z" />
    <glyph glyph-name="mu" unicode="&#x3bc;" horiz-adv-x="1119" 
d="M-7 -355l230 1372h224l-92 -548q-15 -90 -15 -136q0 -76 43 -126.5t113 -50.5q80 0 152 58.5t105 254.5l92 548h224l-171 -1017h-188l27 158q-108 -185 -261 -185q-136 0 -178 154l-81 -482h-224z" />
    <glyph glyph-name="nu" unicode="&#x3bd;" horiz-adv-x="915" 
d="M504 0h-209l-216 1017h245l135 -712l331 712h198z" />
    <glyph glyph-name="xi" unicode="&#x3be;" horiz-adv-x="891" 
d="M499 -321q83 161 83 231q0 47 -32 64t-124 24q-217 16 -296.5 96t-79.5 213q0 325 368 423q-216 64 -216 196q0 177 276 259h-264l30 180h717l-31 -180h-126q-210 0 -286 -69t-76 -150q0 -169 255 -169h83l-24 -176h-82q-145 0 -220 -21t-119 -86.5t-44 -145.5
q0 -62 28.5 -97.5t73 -48t154.5 -22.5q145 -14 200.5 -51t55.5 -131q0 -130 -112 -373z" />
    <glyph glyph-name="omicron" unicode="&#x3bf;" horiz-adv-x="1075" 
d="M506 -26q-113 0 -218.5 50t-161 158.5t-55.5 258.5q0 243 143 420.5t374 177.5q190 0 304 -127.5t114 -342.5q0 -221 -136 -408t-364 -187zM508 157q136 0 200 140.5t64 294.5q0 264 -204 264q-143 0 -205 -151t-62 -301q0 -127 60 -187t147 -60z" />
    <glyph glyph-name="pi" unicode="&#x3c0;" horiz-adv-x="1128" 
d="M82 0l140 837h-122l30 180h1038l-30 -180h-122l-140 -837h-224l140 837h-346l-140 -837h-224z" />
    <glyph glyph-name="rho" unicode="&#x3c1;" horiz-adv-x="1113" 
d="M-28 -355l125 748q36 212 61.5 306.5t90.5 176.5t159 125.5t211 43.5q194 0 311 -114.5t117 -321.5q0 -269 -132 -453t-342 -184q-200 0 -283 169l-83 -496h-235zM609 862q-151 0 -212 -137t-61 -326q0 -243 204 -243q141 0 207.5 139t66.5 327q0 240 -205 240z" />
    <glyph glyph-name="sigma1" unicode="&#x3c2;" horiz-adv-x="993" 
d="M569 -315q73 121 73 230q0 45 -24 62t-91 25q-146 18 -238.5 58.5t-154 138t-61.5 244.5q0 236 134 419t377 183q175 0 270 -101t100 -263l-211 -39q-3 220 -173 220q-122 0 -190.5 -109.5t-68.5 -283.5q0 -135 69.5 -193t260.5 -87q127 -19 175 -60t48 -140
q0 -131 -100 -344z" />
    <glyph glyph-name="sigma" unicode="&#x3c3;" horiz-adv-x="1107" 
d="M1145 1017l-30 -180h-237q133 -128 133 -312q0 -238 -145 -395t-374 -157q-204 0 -312.5 120.5t-108.5 332.5q0 254 141 433t382 179q72 0 155 -21h396zM585 862q-134 0 -206.5 -124.5t-72.5 -331.5q0 -250 198 -250q134 0 205 121.5t71 326.5q0 258 -195 258z" />
    <glyph glyph-name="tau" unicode="&#x3c4;" horiz-adv-x="781" 
d="M195 0l140 837h-288l30 180h798l-31 -180h-285l-140 -837h-224z" />
    <glyph glyph-name="upsilon" unicode="&#x3c5;" horiz-adv-x="1077" 
d="M438 1017l-100 -595q-17 -104 -17 -147q0 -119 160 -119q69 0 118.5 23.5t70.5 68t43 174.5l99 595h224l-95 -568q-33 -200 -71 -284t-136 -138t-259 -54q-211 0 -294 75.5t-83 208.5q0 69 16 165l100 595h224z" />
    <glyph glyph-name="phi" unicode="&#x3c6;" horiz-adv-x="1350" 
d="M513 153l148 886q58 6 107 6q250 0 381 -128t131 -352q0 -238 -144 -411t-439 -184l-55 -325h-214l55 331q-192 25 -297.5 143t-105.5 313q0 194 100 350.5t252 208.5l46 -182q-176 -116 -176 -363q0 -241 211 -293zM726 143q178 15 256 136.5t78 292.5q0 257 -211 305z
" />
    <glyph glyph-name="chi" unicode="&#x3c7;" horiz-adv-x="956" 
d="M328 388l-216 629h240l161 -476l310 476h201l-447 -665l242 -707h-240l-177 566l-371 -566h-208z" />
    <glyph glyph-name="psi" unicode="&#x3c8;" horiz-adv-x="1460" 
d="M481 -355l55 330q-428 4 -428 328q0 59 18 169l92 545h224l-92 -545q-15 -93 -15 -153q0 -83 49.5 -122t181.5 -42l144 862h213l-144 -862q130 3 186 28.5t83.5 83t52.5 205.5l91 545h224l-91 -545q-29 -174 -52 -244t-81 -128.5t-155.5 -89.5t-287.5 -35l-55 -330h-213z
" />
    <glyph glyph-name="omega" unicode="&#x3c9;" horiz-adv-x="1440" 
d="M862 784l-56 -336q-12 -73 -12 -147q0 -139 120 -139q214 0 214 401q0 201 -114 384l171 98q180 -211 180 -491q0 -271 -117.5 -426t-326.5 -155q-93 0 -150.5 39t-93.5 147q-103 -186 -277 -186q-160 0 -254 113.5t-94 294.5q0 363 321 664l148 -98q-240 -267 -240 -578
q0 -110 44.5 -158.5t108.5 -48.5q75 0 105.5 56t57.5 230l56 336h209z" />
    <glyph glyph-name="iotadieresis" unicode="&#x3ca;" horiz-adv-x="508" 
d="M287 0h-235l170 1017h235zM218 1188q-48 0 -79.5 31.5t-31.5 75.5t31 77.5t80 33.5q46 0 80 -29.5t34 -80.5q0 -50 -33.5 -79t-80.5 -29zM553 1188q-49 0 -80.5 32t-31.5 75q0 44 31.5 77.5t80.5 33.5q45 0 79.5 -29.5t34.5 -80.5q0 -50 -33.5 -79t-80.5 -29z" />
    <glyph glyph-name="upsilondieresis" unicode="&#x3cb;" horiz-adv-x="1077" 
d="M438 1017l-100 -595q-17 -104 -17 -147q0 -119 160 -119q69 0 118.5 23.5t70.5 68t43 174.5l99 595h224l-95 -568q-33 -200 -71 -284t-136 -138t-259 -54q-211 0 -294 75.5t-83 208.5q0 69 16 165l100 595h224zM511 1188q-48 0 -79.5 31.5t-31.5 75.5t31 77.5t80 33.5
q46 0 80 -29.5t34 -80.5q0 -50 -33.5 -79t-80.5 -29zM846 1188q-49 0 -80.5 32t-31.5 75q0 44 31.5 77.5t80.5 33.5q45 0 79.5 -29.5t34.5 -80.5q0 -50 -33.5 -79t-80.5 -29z" />
    <glyph glyph-name="omicrontonos" unicode="&#x3cc;" horiz-adv-x="1075" 
d="M506 -24q-113 0 -218.5 50t-161 158.5t-55.5 258.5q0 243 143 420.5t374 177.5q190 0 304 -127.5t114 -342.5q0 -221 -136 -408t-364 -187zM508 159q136 0 200 140.5t64 294.5q0 264 -204 264q-143 0 -205 -151t-62 -301q0 -127 60 -187t147 -60zM737 1553l144 -97
l-323 -360l-87 59z" />
    <glyph glyph-name="upsilontonos" unicode="&#x3cd;" horiz-adv-x="1077" 
d="M438 1017l-100 -595q-17 -104 -17 -147q0 -119 160 -119q69 0 118.5 23.5t70.5 68t43 174.5l99 595h224l-95 -568q-33 -200 -71 -284t-136 -138t-259 -54q-211 0 -294 75.5t-83 208.5q0 69 16 165l100 595h224zM766 1553l144 -97l-323 -360l-87 59z" />
    <glyph glyph-name="omegatonos" unicode="&#x3ce;" horiz-adv-x="1440" 
d="M862 784l-56 -336q-12 -73 -12 -147q0 -139 120 -139q214 0 214 401q0 201 -114 384l171 98q180 -211 180 -491q0 -271 -117.5 -426t-326.5 -155q-93 0 -150.5 39t-93.5 147q-103 -186 -277 -186q-160 0 -254 113.5t-94 294.5q0 363 321 664l148 -98q-240 -267 -240 -578
q0 -110 44.5 -158.5t108.5 -48.5q75 0 105.5 56t57.5 230l56 336h209zM954 1553l144 -97l-323 -360l-87 59z" />
    <glyph glyph-name="afii10023" unicode="&#x401;" horiz-adv-x="1099" 
d="M952 0h-887l228 1365h863l-36 -214h-618l-59 -354h512l-34 -202h-512l-64 -381h643zM595 1512q-48 0 -79.5 31.5t-31.5 75.5t31 77.5t80 33.5q46 0 80 -29.5t34 -80.5q0 -50 -33.5 -79t-80.5 -29zM930 1512q-49 0 -80.5 32t-31.5 75q0 44 31.5 77.5t80.5 33.5
q45 0 79.5 -29.5t34.5 -80.5q0 -50 -33.5 -79t-80.5 -29z" />
    <glyph glyph-name="afii10051" unicode="&#x402;" horiz-adv-x="1283" 
d="M129 0l195 1165h-226l33 200h976l-33 -200h-506l-71 -426q165 176 380 176q314 0 314 -281q0 -157 -60.5 -465.5t-185.5 -415t-355 -108.5l21 183q90 8 135 32.5t83.5 100.5t75 293t36.5 315q0 163 -163 163q-282 0 -330 -287l-75 -445h-244z" />
    <glyph glyph-name="afii10052" unicode="&#x403;" horiz-adv-x="893" 
d="M66 0l228 1365h743l-35 -211h-499l-193 -1154h-244zM908 1800l66 -136l-417 -190l-42 107z" />
    <glyph glyph-name="afii10053" unicode="&#x404;" horiz-adv-x="1244" 
d="M899 800l-30 -180h-504q-5 -49 -5 -82q0 -162 75 -265t223 -103q234 0 347 262l223 -45q-61 -177 -211.5 -295.5t-378.5 -118.5q-267 0 -398.5 170t-131.5 437q0 322 172 567.5t493 245.5q414 0 499 -376l-231 -50q-55 228 -274 228q-163 0 -258 -116t-123 -279h513z" />
    <glyph glyph-name="afii10054" unicode="&#x405;" horiz-adv-x="1127" 
d="M1105 1106l-224 -83q-72 170 -260 170q-114 0 -177.5 -53.5t-63.5 -132.5q0 -61 43 -99.5t142 -66.5l187 -55q81 -23 154 -73t109 -125t36 -158q0 -186 -138.5 -322.5t-404.5 -136.5q-412 0 -534 340l223 79q81 -214 326 -214q140 0 208 64.5t68 146.5q0 47 -25.5 81.5
t-64.5 52.5t-156 51q-163 47 -243.5 89t-131 122t-50.5 190q0 187 135 306t368 119q344 0 474 -292z" />
    <glyph glyph-name="afii10055" unicode="&#x406;" horiz-adv-x="553" 
d="M318 0h-253l228 1365h253z" />
    <glyph glyph-name="afii10056" unicode="&#x407;" horiz-adv-x="553" 
d="M318 0h-253l228 1365h253zM276 1512q-48 0 -79.5 31.5t-31.5 75.5t31 77.5t80 33.5q46 0 80 -29.5t34 -80.5q0 -50 -33.5 -79t-80.5 -29zM611 1512q-49 0 -80.5 32t-31.5 75q0 44 31.5 77.5t80.5 33.5q45 0 79.5 -29.5t34.5 -80.5q0 -50 -33.5 -79t-80.5 -29z" />
    <glyph glyph-name="afii10057" unicode="&#x408;" horiz-adv-x="767" 
d="M-85 -3l39 204q74 -8 136 -8q155 0 207 60t77 209l151 903h250l-145 -863q-33 -200 -77.5 -299.5t-149 -163.5t-278.5 -64q-93 0 -210 22z" />
    <glyph glyph-name="afii10058" unicode="&#x409;" horiz-adv-x="1715" 
d="M908 842h280q203 0 293.5 -36t144 -119t53.5 -208q0 -200 -131.5 -339.5t-419.5 -139.5h-400l-87 1136h-14l-529 -1136h-214l662 1365h311zM928 643l42 -431h174q149 0 213 71.5t64 181.5q0 178 -232 178h-261z" />
    <glyph glyph-name="afii10059" unicode="&#x40a;" horiz-adv-x="1929" 
d="M903 623h-489l-105 -623h-244l228 1365h245l-91 -543h490l91 543h244l-87 -523h207q203 0 293 -36t144 -119t54 -208q0 -200 -131.5 -339.5t-420.5 -139.5h-532zM1079 212h269q149 0 213 71.5t64 181.5q0 178 -232 178h-242z" />
    <glyph glyph-name="afii10060" unicode="&#x40b;" horiz-adv-x="1302" 
d="M568 1165l-70 -417q167 168 367 168q149 0 238.5 -76.5t89.5 -241.5q0 -41 -14 -125l-79 -473h-244l80 484q10 58 10 90q0 160 -176 160q-214 0 -304 -180l-93 -554h-244l195 1165h-226l33 200h981l-34 -200h-510z" />
    <glyph glyph-name="afii10061" unicode="&#x40c;" horiz-adv-x="1264" 
d="M1145 0h-258l-203 685l-318 -348l-57 -337h-244l228 1365h245l-100 -595q-3 -17 -31 -144q36 56 77 101l576 638h262l-447 -487zM1050 1800l66 -136l-417 -190l-42 107z" />
    <glyph glyph-name="afii10062" unicode="&#x40e;" horiz-adv-x="1056" 
d="M446 398l-327 967h267l224 -691l387 691h235l-591 -1027q-114 -199 -216.5 -268.5t-267.5 -69.5h-91l35 212h92q89 0 134.5 31t90.5 107zM441 1766h132q0 -82 45.5 -107t105.5 -25q149 0 193 132h132q-27 -124 -124 -199t-228 -75q-122 0 -190.5 64.5t-68.5 159.5
q0 18 3 50z" />
    <glyph glyph-name="afii10145" unicode="&#x40f;" horiz-adv-x="1308" 
d="M346 212h519l193 1153h244l-228 -1365h-404l-62 -287h-179l34 287h-397l228 1365h245z" />
    <glyph glyph-name="afii10017" unicode="&#x410;" horiz-adv-x="1186" 
d="M1129 0h-273l-56 330h-495l-152 -330h-231l654 1365h303zM777 520l-107 606l-281 -606h388z" />
    <glyph glyph-name="afii10018" unicode="&#x411;" horiz-adv-x="1231" 
d="M66 0l228 1365h858l-33 -198h-613l-60 -356h201q183 0 284 -28.5t158.5 -110.5t57.5 -209q0 -192 -129 -327.5t-396 -135.5h-556zM346 212h281q133 0 202 65t69 168q0 73 -47.5 122t-194.5 49h-243z" />
    <glyph glyph-name="afii10019" unicode="&#x412;" horiz-adv-x="1251" 
d="M66 0l228 1365h478q129 0 212.5 -26t148.5 -110.5t65 -202.5q0 -243 -256 -324q213 -94 213 -309q0 -141 -98.5 -267t-383.5 -126h-607zM444 800h243q161 0 213.5 63.5t52.5 133.5q0 179 -230 179h-216zM344 201h278q110 0 163 18.5t88 70t35 126.5q0 68 -36.5 116.5
t-83 64t-127.5 15.5h-248z" />
    <glyph glyph-name="afii10020" unicode="&#x413;" horiz-adv-x="893" 
d="M66 0l228 1365h743l-35 -211h-499l-193 -1154h-244z" />
    <glyph glyph-name="afii10021" unicode="&#x414;" horiz-adv-x="1256" 
d="M60 212l554 1153h366l131 -1153h100l-83 -499h-164l18 287h-863l-78 -287h-164l83 499h100zM270 212h581l-82 924h-74z" />
    <glyph glyph-name="afii10022" unicode="&#x415;" horiz-adv-x="1099" 
d="M952 0h-887l228 1365h863l-36 -214h-618l-59 -354h512l-34 -202h-512l-64 -381h643z" />
    <glyph glyph-name="afii10024" unicode="&#x416;" horiz-adv-x="1665" 
d="M1268 765l378 -765h-273l-313 641l-88 -24l-103 -617h-235l103 617l-80 24l-527 -641h-239l595 724l-331 641h269l287 -572l54 -14l98 586h234l-98 -586l59 14l478 572h254z" />
    <glyph glyph-name="afii10025" unicode="&#x417;" horiz-adv-x="1165" 
d="M2 395l228 37q21 -261 290 -261q140 0 217.5 71.5t77.5 188.5q0 185 -214 185h-129l30 181h108q113 0 180 62t67 159q0 81 -62.5 129t-166.5 48q-135 0 -206 -58t-103 -169l-210 32q101 393 541 393q218 0 340 -96.5t122 -242.5q0 -248 -286 -328q255 -61 255 -298
q0 -190 -151 -322.5t-432 -132.5q-243 0 -369.5 113.5t-126.5 308.5z" />
    <glyph glyph-name="afii10026" unicode="&#x418;" horiz-adv-x="1352" 
d="M329 111l-19 -111h-244l228 1365h245l-126 -752q-17 -102 -41 -206q83 126 212 271l501 563l21 124h240l-228 -1365h-241l116 693q16 94 52 251q-76 -110 -219 -271z" />
    <glyph glyph-name="afii10027" unicode="&#x419;" horiz-adv-x="1352" 
d="M329 111l-19 -111h-244l228 1365h245l-126 -752q-17 -102 -41 -206q83 126 212 271l501 563l21 124h240l-228 -1365h-241l116 693q16 94 52 251q-76 -110 -219 -271zM587 1766h132q0 -82 45.5 -107t105.5 -25q149 0 193 132h132q-27 -124 -124 -199t-228 -75
q-122 0 -190.5 64.5t-68.5 159.5q0 18 3 50z" />
    <glyph glyph-name="afii10028" unicode="&#x41a;" horiz-adv-x="1264" 
d="M1145 0h-258l-203 685l-318 -348l-57 -337h-244l228 1365h245l-100 -595q-3 -17 -31 -144q36 56 77 101l576 638h262l-447 -487z" />
    <glyph glyph-name="afii10029" unicode="&#x41b;" horiz-adv-x="1096" 
d="M136 0h-232l617 1365h310l220 -1365h-275l-152 1136h-18z" />
    <glyph glyph-name="afii10030" unicode="&#x41c;" horiz-adv-x="1633" 
d="M1399 0h-245l208 1243l-582 -1243h-133l-184 1232l-206 -1232h-191l228 1365h375l141 -917l417 917h400z" />
    <glyph glyph-name="afii10031" unicode="&#x41d;" horiz-adv-x="1323" 
d="M1088 0h-245l99 591h-534l-99 -591h-244l228 1365h245l-94 -559h534l94 559h244z" />
    <glyph glyph-name="afii10032" unicode="&#x41e;" horiz-adv-x="1324" 
d="M104 581q0 314 176 568.5t471 254.5q246 0 387.5 -165t141.5 -453q0 -322 -179 -572.5t-476 -250.5q-217 0 -369 169.5t-152 448.5zM363 538q0 -200 79 -285t192 -85q198 0 291 219t93 454q0 358 -282 358q-188 0 -280.5 -225.5t-92.5 -435.5z" />
    <glyph glyph-name="afii10033" unicode="&#x41f;" horiz-adv-x="1281" 
d="M66 0l228 1365h981l-228 -1365h-245l195 1165h-492l-195 -1165h-244z" />
    <glyph glyph-name="afii10034" unicode="&#x420;" horiz-adv-x="1223" 
d="M320 0h-255l228 1365h366q178 0 260 -7.5t160 -53.5t126 -132.5t48 -193.5q0 -142 -77.5 -251.5t-181 -144.5t-253.5 -35h-329zM515 1166l-69 -418h242q128 0 179 16.5t90 72t39 134.5q0 74 -35 121.5t-83 60.5t-172 13h-191z" />
    <glyph glyph-name="afii10035" unicode="&#x421;" horiz-adv-x="1211" 
d="M1145 374q-175 -410 -541 -410q-222 0 -361.5 160.5t-139.5 436.5q0 345 179 592.5t460 247.5q219 0 347 -127t146 -352l-222 -40q-30 314 -276 314q-199 0 -286.5 -236t-87.5 -449q0 -166 73.5 -250t187.5 -84q105 0 190.5 81.5t130.5 198.5z" />
    <glyph glyph-name="afii10036" unicode="&#x422;" horiz-adv-x="945" 
d="M1053 1151h-347l-193 -1151h-251l193 1151h-347l36 214h945z" />
    <glyph glyph-name="afii10037" unicode="&#x423;" horiz-adv-x="1056" 
d="M446 398l-327 967h267l224 -691l387 691h235l-591 -1027q-114 -199 -216.5 -268.5t-267.5 -69.5h-91l35 212h92q89 0 134.5 31t90.5 107z" />
    <glyph glyph-name="afii10038" unicode="&#x424;" horiz-adv-x="1527" 
d="M1010 1233q465 -61 465 -477q0 -235 -152 -417t-499 -213l-28 -167h-241l28 173q-465 62 -465 478q0 241 156.5 421.5t494.5 207.5l28 167h242zM739 1063q-202 -29 -290.5 -150.5t-88.5 -294.5q0 -253 254 -307zM854 304q379 56 379 447q0 253 -253 305z" />
    <glyph glyph-name="afii10039" unicode="&#x425;" horiz-adv-x="1153" 
d="M1057 0h-269l-218 522l-394 -522h-250l548 709l-285 656h271l191 -456l342 456h245l-496 -636z" />
    <glyph glyph-name="afii10040" unicode="&#x426;" horiz-adv-x="1346" 
d="M79 0l228 1365h245l-193 -1153h522l193 1153h245l-193 -1153h170l-83 -499h-171l21 287h-984z" />
    <glyph glyph-name="afii10041" unicode="&#x427;" horiz-adv-x="1244" 
d="M766 0l99 588q-182 -150 -376 -150q-154 0 -241 82.5t-87 219.5q0 58 32 254l63 371h244l-71 -424q-19 -113 -19 -166q0 -140 167 -140q174 0 316 124l102 606h244l-228 -1365h-245z" />
    <glyph glyph-name="afii10042" unicode="&#x428;" horiz-adv-x="1918" 
d="M79 0l228 1365h245l-193 -1153h429l193 1153h244l-193 -1153h429l193 1153h244l-228 -1365h-1591z" />
    <glyph glyph-name="afii10043" unicode="&#x429;" horiz-adv-x="1933" 
d="M1705 212h179l-84 -499h-168l18 287h-1571l228 1365h245l-193 -1153h429l193 1153h244l-193 -1153h429l193 1153h244z" />
    <glyph glyph-name="afii10044" unicode="&#x42a;" horiz-adv-x="1331" 
d="M211 0l193 1154h-343l35 211h588l-88 -523h208q203 0 293 -36t143.5 -119t53.5 -208q0 -200 -131.5 -339.5t-419.5 -139.5h-532zM490 212h269q150 0 214 71.5t64 181.5q0 178 -233 178h-241z" />
    <glyph glyph-name="afii10045" unicode="&#x42b;" horiz-adv-x="1744" 
d="M1251 0l228 1365h244l-228 -1365h-244zM79 0l228 1365h245l-88 -523h208q203 0 293 -36t143.5 -118.5t53.5 -208.5q0 -200 -131 -339.5t-420 -139.5h-532zM359 212h269q150 0 213.5 72t63.5 181q0 178 -232 178h-242z" />
    <glyph glyph-name="afii10046" unicode="&#x42c;" horiz-adv-x="1185" 
d="M66 0l228 1365h245l-88 -523h208q203 0 293 -36t143.5 -118.5t53.5 -208.5q0 -200 -131 -339.5t-420 -139.5h-532zM346 212h269q150 0 213.5 72t63.5 181q0 178 -232 178h-242z" />
    <glyph glyph-name="afii10047" unicode="&#x42d;" horiz-adv-x="1250" 
d="M431 620l30 180h495q1 28 1 43q0 144 -67.5 248t-224.5 104q-217 0 -326 -228l-219 50q58 146 200.5 260.5t372.5 114.5q236 0 376 -148t140 -437q0 -352 -184.5 -593.5t-499.5 -241.5q-232 0 -359 125.5t-147 289.5l233 45q49 -262 287 -262q166 0 271 130.5t126 319.5
h-505z" />
    <glyph glyph-name="afii10048" unicode="&#x42e;" horiz-adv-x="1883" 
d="M678 614h-265l-103 -614h-244l228 1365h245l-92 -549h258q60 256 218.5 416.5t387.5 160.5q259 0 393.5 -169.5t134.5 -439.5q0 -326 -180.5 -568.5t-463.5 -242.5q-145 0 -261 73t-186.5 211t-70.5 315q0 16 1 42zM923 543q0 -207 83 -286.5t189 -79.5q197 0 290 211.5
t93 445.5q0 354 -284 354q-187 0 -279 -218.5t-92 -426.5z" />
    <glyph glyph-name="afii10049" unicode="&#x42f;" horiz-adv-x="1266" 
d="M880 567h-331l-358 -567h-247l391 612q-198 95 -198 303q0 114 63 225.5t180.5 168t254.5 56.5h625l-229 -1365h-246zM981 1166h-325q-134 0 -197 -62.5t-63 -152.5q0 -79 50.5 -135t173.5 -56h293z" />
    <glyph glyph-name="afii10065" unicode="&#x430;" horiz-adv-x="1087" 
d="M896 0h-221q-2 27 -2 44q0 73 18 175q-50 -114 -144 -179.5t-207 -65.5q-136 0 -221.5 84.5t-85.5 208.5q0 171 152.5 272t477.5 101q42 0 98 -4q7 46 7 73q0 82 -56.5 124t-140.5 42q-161 0 -235 -141l-200 63q126 248 445 248q190 0 300 -86t110 -229q0 -61 -48 -322
q-51 -275 -51 -349q0 -27 4 -59zM741 519q-261 -14 -363 -69t-102 -161q0 -61 41 -99.5t112 -38.5q102 0 189 89.5t123 278.5z" />
    <glyph glyph-name="afii10066" unicode="&#x431;" horiz-adv-x="1107" 
d="M800 1457h228q-19 -99 -87 -150.5t-219 -80.5q-121 -24 -180 -52t-102 -90.5t-71 -167.5q140 115 282 115q173 0 278 -110.5t105 -315.5q0 -278 -140 -455t-390 -177q-201 0 -308 111.5t-107 329.5q0 156 48 359t126.5 326.5t165 174.5t221.5 80q82 18 110 37t40 66z
M598 859q-139 0 -211.5 -122t-72.5 -318q0 -256 206 -256q138 0 208.5 122.5t70.5 317.5q0 256 -201 256z" />
    <glyph glyph-name="afii10067" unicode="&#x432;" horiz-adv-x="1080" 
d="M52 0l170 1017h481q114 0 175.5 -21t101.5 -74t40 -129q0 -197 -242 -256q197 -58 197 -231q0 -132 -94 -219t-259 -87h-570zM376 598h261q84 0 121.5 44t37.5 104q0 107 -143 107h-234zM306 180h261q186 0 186 160q0 125 -165 125h-234z" />
    <glyph glyph-name="afii10068" unicode="&#x433;" horiz-adv-x="754" 
d="M840 1017l-30 -180h-394l-140 -837h-224l170 1017h618z" />
    <glyph glyph-name="afii10069" unicode="&#x434;" horiz-adv-x="1000" 
d="M42 177l375 833h351l91 -833h92l-69 -409h-148l12 232h-651l-66 -232h-148l69 409h92zM225 177h415l-50 656h-89z" />
    <glyph glyph-name="afii10070" unicode="&#x435;" horiz-adv-x="1068" 
d="M942 287q-140 -312 -444 -312q-200 0 -314.5 123t-114.5 327q0 260 144.5 439t371.5 179q204 0 308.5 -129t104.5 -352q0 -37 -3 -80h-699q-7 -43 -7 -76q0 -115 55.5 -185t157.5 -70q158 0 240 189zM786 627q0 258 -200 258q-207 0 -266 -258h466z" />
    <glyph glyph-name="afii10072" unicode="&#x436;" horiz-adv-x="1312" 
d="M1011 613l262 -613h-241l-204 460l-73 -20l-74 -440h-214l74 440l-67 20l-366 -460h-217l446 539l-240 478h231l203 -404l37 -14l70 418h214l-71 -418l42 14l338 404h220z" />
    <glyph glyph-name="afii10073" unicode="&#x437;" horiz-adv-x="937" 
d="M331 446l27 157q163 0 211.5 47t48.5 108q0 119 -139 119q-157 0 -207 -154l-198 38q94 284 426 284q177 0 267 -68.5t90 -180.5q0 -181 -218 -255q193 -48 193 -216q0 -138 -108.5 -245t-325.5 -107q-358 0 -403 311l208 37q22 -183 189 -183q97 0 151 52t54 129
q0 49 -29.5 80.5t-77.5 39t-159 7.5z" />
    <glyph glyph-name="afii10074" unicode="&#x438;" horiz-adv-x="1118" 
d="M291 88l-15 -88h-224l170 1017h224l-72 -428q-11 -70 -43 -221q73 95 181 207l312 326l20 116h223l-170 -1017h-224l67 404q22 130 45 232q-64 -85 -168 -197z" />
    <glyph glyph-name="afii10075" unicode="&#x439;" horiz-adv-x="1118" 
d="M291 88l-15 -88h-224l170 1017h224l-72 -428q-11 -70 -43 -221q73 95 181 207l312 326l20 116h223l-170 -1017h-224l67 404q22 130 45 232q-64 -85 -168 -197zM402 1455h132q0 -82 45.5 -107t105.5 -25q149 0 193 132h132q-27 -124 -124 -199t-228 -75
q-122 0 -190.5 64.5t-68.5 159.5q0 18 3 50z" />
    <glyph glyph-name="afii10076" unicode="&#x43a;" horiz-adv-x="1022" 
d="M47 0l170 1017h224l-73 -438l476 438h232l-384 -354l252 -663h-253l-179 497l-185 -159l-56 -338h-224z" />
    <glyph glyph-name="afii10077" unicode="&#x43b;" horiz-adv-x="887" 
d="M-94 0l492 1010h269l145 -1010h-229l-98 833l-394 -833h-185z" />
    <glyph glyph-name="afii10078" unicode="&#x43c;" horiz-adv-x="1460" 
d="M52 0l170 1017h338l118 -847l414 847h317l-170 -1017h-206l141 842h-17l-413 -842h-229l-126 842h-17l-141 -842h-179z" />
    <glyph glyph-name="afii10079" unicode="&#x43d;" horiz-adv-x="1115" 
d="M52 0l170 1017h224l-65 -388h394l65 388h224l-170 -1017h-224l75 449h-394l-75 -449h-224z" />
    <glyph glyph-name="afii10080" unicode="&#x43e;" horiz-adv-x="1075" 
d="M506 -26q-113 0 -218.5 50t-161 158.5t-55.5 258.5q0 243 143 420.5t374 177.5q190 0 304 -127.5t114 -342.5q0 -221 -136 -408t-364 -187zM508 157q136 0 200 140.5t64 294.5q0 264 -204 264q-143 0 -205 -151t-62 -301q0 -127 60 -187t147 -60z" />
    <glyph glyph-name="afii10081" unicode="&#x43f;" horiz-adv-x="1071" 
d="M52 0l170 1017h798l-170 -1017h-224l143 854h-350l-143 -854h-224z" />
    <glyph glyph-name="afii10082" unicode="&#x440;" horiz-adv-x="1092" 
d="M216 -355h-224l230 1372h200l-35 -210q126 244 316 244q143 0 232 -116t89 -313q0 -245 -120.5 -448t-314.5 -203q-209 0 -284 209zM547 154q117 0 180.5 147.5t63.5 303.5q0 263 -160 263q-121 0 -202.5 -143.5t-81.5 -316.5q0 -127 58.5 -190.5t141.5 -63.5z" />
    <glyph glyph-name="afii10083" unicode="&#x441;" horiz-adv-x="979" 
d="M908 302q-144 -324 -432 -324q-179 0 -292 120.5t-113 338.5q0 246 139 428t349 182q159 0 265.5 -92.5t133.5 -262.5l-190 -37q-40 200 -199 200q-118 0 -192 -134t-74 -309q0 -133 56 -188.5t133 -55.5q150 0 228 201z" />
    <glyph glyph-name="afii10084" unicode="&#x442;" horiz-adv-x="754" 
d="M183 0l140 837h-278l30 180h775l-30 -180h-273l-140 -837h-224z" />
    <glyph glyph-name="afii10085" unicode="&#x443;" horiz-adv-x="953" 
d="M-36 -361l10 194q59 -9 134 -9q71 0 117.5 29.5t84.5 110.5l38 81l-249 972h240l154 -700l336 700h203l-522 -1053q-72 -145 -113 -201.5t-116.5 -94.5t-194.5 -38q-58 0 -122 9z" />
    <glyph glyph-name="afii10086" unicode="&#x444;" horiz-adv-x="1326" 
d="M704 1352h210l-57 -340q157 -12 280.5 -118.5t123.5 -311.5q0 -243 -150.5 -403.5t-422.5 -179.5l-59 -354h-210l60 360q-196 24 -300.5 139.5t-104.5 288.5q0 240 153 402.5t421 182.5zM624 871q-164 -33 -245.5 -149t-81.5 -269q0 -234 208 -294zM712 145
q165 34 245.5 149.5t80.5 265.5q0 238 -206 301z" />
    <glyph glyph-name="afii10087" unicode="&#x445;" horiz-adv-x="936" 
d="M870 0h-256l-181 390l-307 -390h-222l443 539l-239 478h259l141 -314l245 314h220l-377 -458z" />
    <glyph glyph-name="afii10088" unicode="&#x446;" horiz-adv-x="1098" 
d="M52 0l170 1017h224l-140 -837h366l140 837h224l-140 -837h147l-69 -413h-147l14 233h-789z" />
    <glyph glyph-name="afii10089" unicode="&#x447;" horiz-adv-x="1022" 
d="M576 0l68 403q-128 -91 -274 -91q-122 0 -190.5 59.5t-68.5 148.5q0 38 29 216l48 281h224l-53 -316q-14 -82 -14 -103q0 -103 127 -103q108 0 195 45l79 477h224l-170 -1017h-224z" />
    <glyph glyph-name="afii10090" unicode="&#x448;" horiz-adv-x="1619" 
d="M62 0l170 1017h224l-140 -837h327l140 837h224l-140 -837h327l140 837h224l-170 -1017h-1326z" />
    <glyph glyph-name="afii10091" unicode="&#x449;" horiz-adv-x="1637" 
d="M66 0l170 1017h224l-140 -837h327l140 837h224l-140 -837h327l140 837h224l-140 -837h163l-70 -413h-145l12 233h-1316z" />
    <glyph glyph-name="afii10092" unicode="&#x44a;" horiz-adv-x="1082" 
d="M533 1017l-62 -373h225q325 0 325 -280q0 -157 -101.5 -260.5t-317.5 -103.5h-463l140 837h-269l30 180h493zM393 180h222q186 0 186 171q0 129 -163 129h-194z" />
    <glyph glyph-name="afii10093" unicode="&#x44b;" horiz-adv-x="1471" 
d="M1016 0l170 1017h224l-170 -1017h-224zM62 0l170 1017h224l-62 -373h225q324 0 324 -279q0 -158 -101 -261.5t-317 -103.5h-463zM316 180h221q187 0 187 172q0 128 -164 128h-194z" />
    <glyph glyph-name="afii10094" unicode="&#x44c;" horiz-adv-x="994" 
d="M52 0l170 1017h224l-62 -373h225q324 0 324 -279q0 -158 -101 -261.5t-317 -103.5h-463zM306 180h221q187 0 187 172q0 128 -164 128h-194z" />
    <glyph glyph-name="afii10095" unicode="&#x44d;" horiz-adv-x="1006" 
d="M293 438l27 165h387q1 20 1 35q0 94 -51.5 159t-155.5 65q-163 0 -228 -144l-202 42q135 285 454 285q199 0 306 -118t107 -334q0 -283 -136 -451.5t-387 -168.5q-210 0 -301 87t-115 214l208 40q37 -158 212 -158q117 0 188 74.5t81 207.5h-395z" />
    <glyph glyph-name="afii10096" unicode="&#x44e;" horiz-adv-x="1558" 
d="M568 445h-218l-74 -445h-224l170 1017h224l-65 -392h209q49 188 175.5 304t306.5 116q191 0 304 -130.5t113 -334.5q0 -234 -136.5 -420.5t-369.5 -186.5q-198 0 -306.5 120.5t-108.5 351.5zM992 156q136 0 199.5 141.5t63.5 294.5q0 270 -204 270q-145 0 -206.5 -158
t-61.5 -298q0 -124 58.5 -187t150.5 -63z" />
    <glyph glyph-name="afii10097" unicode="&#x44f;" horiz-adv-x="1059" 
d="M615 0l67 400h-242l-256 -400h-237l323 449q-149 82 -149 238q0 125 90.5 227.5t303.5 102.5h494l-170 -1017h-224zM709 565l48 288h-248q-165 0 -165 -176q0 -112 124 -112h241z" />
    <glyph glyph-name="afii10071" unicode="&#x451;" horiz-adv-x="1068" 
d="M942 287q-140 -312 -444 -312q-200 0 -314.5 123t-114.5 327q0 260 144.5 439t371.5 179q204 0 308.5 -129t104.5 -352q0 -37 -3 -80h-699q-7 -43 -7 -76q0 -115 55.5 -185t157.5 -70q158 0 240 189zM786 627q0 258 -200 258q-207 0 -266 -258h466zM469 1188
q-48 0 -79.5 31.5t-31.5 75.5t31 77.5t80 33.5q46 0 80 -29.5t34 -80.5q0 -50 -33.5 -79t-80.5 -29zM804 1188q-49 0 -80.5 32t-31.5 75q0 44 31.5 77.5t80.5 33.5q45 0 79.5 -29.5t34.5 -80.5q0 -50 -33.5 -79t-80.5 -29z" />
    <glyph glyph-name="afii10099" unicode="&#x452;" horiz-adv-x="1070" 
d="M49 0l188 1126h-178l25 149h178l20 118h224l-20 -118h399l-25 -149h-399l-53 -318q134 190 323 190q258 0 258 -280q0 -91 -59.5 -466.5t-168.5 -485t-309 -109.5l10 169q120 9 167.5 102.5t90.5 363.5t43 353q0 155 -130 155q-89 0 -170 -74.5t-103 -206.5l-87 -519
h-224z" />
    <glyph glyph-name="afii10100" unicode="&#x453;" horiz-adv-x="754" 
d="M840 1017l-30 -180h-394l-140 -837h-224l170 1017h618zM788 1487l66 -136l-417 -190l-42 107z" />
    <glyph glyph-name="afii10101" unicode="&#x454;" horiz-adv-x="1025" 
d="M722 603l-27 -165h-387q-4 -37 -4 -58q0 -100 55.5 -162.5t156.5 -62.5q173 0 244 159l200 -40q-123 -302 -449 -302q-207 0 -322.5 109.5t-115.5 333.5q0 256 136.5 443t399.5 187q319 0 391 -285l-212 -42q-31 144 -193 144q-218 0 -268 -259h395z" />
    <glyph glyph-name="afii10102" unicode="&#x455;" horiz-adv-x="945" 
d="M184 299q59 -152 241 -152q91 0 143.5 37.5t52.5 95.5q0 43 -35.5 68t-120.5 49q-137 38 -203 70t-111 98t-45 151q0 133 101 231.5t285 98.5q299 0 420 -240l-193 -62q-67 133 -221 133q-69 0 -117 -32t-48 -86q0 -38 23.5 -63t94.5 -45q162 -48 240.5 -83.5t124 -101
t45.5 -150.5q0 -144 -110.5 -241t-327.5 -97q-347 0 -453 269z" />
    <glyph glyph-name="afii10103" unicode="&#x456;" horiz-adv-x="508" 
d="M477 1135h-235l41 244h235zM287 0h-235l170 1017h235z" />
    <glyph glyph-name="afii10104" unicode="&#x457;" horiz-adv-x="508" 
d="M287 0h-235l170 1017h235zM210 1188q-48 0 -79.5 31.5t-31.5 75.5t31 77.5t80 33.5q46 0 80 -29.5t34 -80.5q0 -50 -33.5 -79t-80.5 -29zM545 1188q-49 0 -80.5 32t-31.5 75q0 44 31.5 77.5t80.5 33.5q45 0 79.5 -29.5t34.5 -80.5q0 -50 -33.5 -79t-80.5 -29z" />
    <glyph glyph-name="afii10105" unicode="&#x458;" horiz-adv-x="554" 
d="M503 1139h-235l41 240h235zM483 1017l-155 -927q-31 -187 -68.5 -275.5t-127 -143.5t-225.5 -55q-82 0 -154 12l13 192q60 -13 111 -13q112 0 149 52t61 193l161 965h235z" />
    <glyph glyph-name="afii10106" unicode="&#x459;" horiz-adv-x="1364" 
d="M694 644h286q324 0 324 -280q0 -157 -101 -260.5t-318 -103.5h-346l-54 833l-394 -833h-185l492 1010h269zM706 480l22 -300h170q186 0 186 172q0 128 -163 128h-215z" />
    <glyph glyph-name="afii10107" unicode="&#x45a;" horiz-adv-x="1590" 
d="M643 0l75 449h-367l-75 -449h-224l170 1017h224l-65 -388h367l65 388h224l-62 -373h225q325 0 325 -280q0 -157 -101.5 -260.5t-317.5 -103.5h-463zM897 180h222q186 0 186 172q0 128 -163 128h-194z" />
    <glyph glyph-name="afii10108" unicode="&#x45b;" horiz-adv-x="1079" 
d="M262 1275l20 118h224l-20 -118h395l-25 -149h-395l-52 -316q135 188 330 188q130 0 200.5 -71.5t70.5 -178.5q0 -39 -19 -152l-99 -596h-224l96 574q11 70 11 98q0 66 -41 97t-89 31q-94 0 -178.5 -74.5t-106.5 -206.5l-87 -519h-224l188 1126h-178l25 149h178z" />
    <glyph glyph-name="afii10109" unicode="&#x45c;" horiz-adv-x="1022" 
d="M47 0l170 1017h224l-73 -438l476 438h232l-384 -354l252 -663h-253l-179 497l-185 -159l-56 -338h-224zM890 1487l66 -136l-417 -190l-42 107z" />
    <glyph glyph-name="afii10110" unicode="&#x45e;" horiz-adv-x="953" 
d="M-36 -361l10 194q59 -9 134 -9q71 0 117.5 29.5t84.5 110.5l38 81l-249 972h240l154 -700l336 700h203l-522 -1053q-72 -145 -113 -201.5t-116.5 -94.5t-194.5 -38q-58 0 -122 9zM334 1455h132q0 -82 45.5 -107t105.5 -25q149 0 193 132h132q-27 -124 -124 -199t-228 -75
q-122 0 -190.5 64.5t-68.5 159.5q0 18 3 50z" />
    <glyph glyph-name="afii10193" unicode="&#x45f;" horiz-adv-x="1086" 
d="M52 0l170 1017h224l-140 -837h365l140 837h224l-170 -1017h-311l-62 -233h-144l17 233h-313z" />
    <glyph glyph-name="afii10050" unicode="&#x490;" horiz-adv-x="934" 
d="M1120 1616l-77 -462h-540l-193 -1154h-244l228 1365h586l42 251h198z" />
    <glyph glyph-name="afii10098" unicode="&#x491;" horiz-adv-x="754" 
d="M670 1017l35 209h170l-65 -389h-394l-140 -837h-224l170 1017h448z" />
    <glyph glyph-name="Wgrave" unicode="&#x1e80;" horiz-adv-x="1782" 
d="M1332 -10h-246l-120 1028l-421 -1028h-237l-160 1375h264l91 -1031l419 1031h243l109 -1031l415 1031h216zM950 1800l343 -219l-49 -107l-373 196z" />
    <glyph glyph-name="wgrave" unicode="&#x1e81;" horiz-adv-x="1432" 
d="M1031 0h-210l-77 723l-294 -723h-206l-152 1017h231l92 -703l294 703h202l74 -701l314 701h198zM722 1487l343 -219l-49 -107l-373 196z" />
    <glyph glyph-name="Wacute" unicode="&#x1e82;" horiz-adv-x="1782" 
d="M1332 -10h-246l-120 1028l-421 -1028h-237l-160 1375h264l91 -1031l419 1031h243l109 -1031l415 1031h216zM1218 1800l66 -136l-417 -190l-42 107z" />
    <glyph glyph-name="wacute" unicode="&#x1e83;" horiz-adv-x="1432" 
d="M1031 0h-210l-77 723l-294 -723h-206l-152 1017h231l92 -703l294 703h202l74 -701l314 701h198zM1027 1487l66 -136l-417 -190l-42 107z" />
    <glyph glyph-name="Wdieresis" unicode="&#x1e84;" horiz-adv-x="1782" 
d="M1332 -10h-246l-120 1028l-421 -1028h-237l-160 1375h264l91 -1031l419 1031h243l109 -1031l415 1031h216zM905 1512q-48 0 -79.5 31.5t-31.5 75.5t31 77.5t80 33.5q46 0 80 -29.5t34 -80.5q0 -50 -33.5 -79t-80.5 -29zM1240 1512q-49 0 -80.5 32t-31.5 75
q0 44 31.5 77.5t80.5 33.5q45 0 79.5 -29.5t34.5 -80.5q0 -50 -33.5 -79t-80.5 -29z" />
    <glyph glyph-name="wdieresis" unicode="&#x1e85;" horiz-adv-x="1432" 
d="M1031 0h-210l-77 723l-294 -723h-206l-152 1017h231l92 -703l294 703h202l74 -701l314 701h198zM662 1188q-48 0 -79.5 31.5t-31.5 75.5t31 77.5t80 33.5q46 0 80 -29.5t34 -80.5q0 -50 -33.5 -79t-80.5 -29zM997 1188q-49 0 -80.5 32t-31.5 75q0 44 31.5 77.5t80.5 33.5
q45 0 79.5 -29.5t34.5 -80.5q0 -50 -33.5 -79t-80.5 -29z" />
    <glyph glyph-name="Ygrave" unicode="&#x1ef2;" horiz-adv-x="1061" 
d="M593 0h-257l96 575l-347 790h281l242 -590l388 590h236l-545 -802zM548 1800l343 -219l-49 -107l-373 196z" />
    <glyph glyph-name="ygrave" unicode="&#x1ef3;" horiz-adv-x="933" 
d="M-57 -361l10 194q58 -9 134 -9q71 0 117.5 29.5t84.5 110.5l38 81l-249 972h240l154 -700l336 700h196l-522 -1053q-73 -146 -112 -202t-113.5 -94t-192.5 -38q-56 0 -121 9zM428 1487l343 -219l-49 -107l-373 196z" />
    <glyph glyph-name="afii00208" unicode="&#x2015;" horiz-adv-x="1365" 
d="M1403 414h-1472l31 183h1471z" />
    <glyph glyph-name="underscoredbl" unicode="&#x2017;" horiz-adv-x="1024" 
d="M29 -101h1024v-144h-1024v144zM29 -341h1024v-144h-1024v144z" />
    <glyph glyph-name="quotereversed" unicode="&#x201b;" horiz-adv-x="493" 
d="M306 885l-60 274l37 206h217l-40 -221h-112l35 -259h-77z" />
    <glyph glyph-name="minute" unicode="&#x2032;" horiz-adv-x="431" 
d="M248 823h-150l248 542h218z" />
    <glyph glyph-name="second" unicode="&#x2033;" horiz-adv-x="768" 
d="M248 823h-150l248 542h218zM626 823h-150l248 542h217z" />
    <glyph glyph-name="exclamdbl" unicode="&#x203c;" horiz-adv-x="1010" 
d="M276 380h-104l34 985h290zM291 0h-246l42 253h246zM788 380h-104l34 985h290zM803 0h-246l42 253h246z" />
    <glyph glyph-name="uni203E" unicode="&#x203e;" horiz-adv-x="1135" 
d="M-42 1869h1219v-74h-1219v74z" />
    <glyph glyph-name="uni2044" unicode="&#x2044;" horiz-adv-x="437" 
d="M-174 0h-153l998 1365h150z" />
    <glyph glyph-name="nsuperior" unicode="&#x207f;" horiz-adv-x="723" 
d="M636 546h-161l62 367q7 39 7 68q0 73 -71 73q-56 0 -101 -58.5t-64 -172.5l-46 -277h-161l103 614h150l-16 -96q64 112 188 112q68 0 124.5 -44t56.5 -132q0 -30 -12 -99z" />
    <glyph glyph-name="lira" unicode="&#x20a4;" horiz-adv-x="1201" 
d="M131 455l25 150h172l1 109h-155l25 150h132q4 123 21 201t82 167.5t165 138.5t221 49q258 0 350 -252l-207 -90q-39 153 -168 153q-69 0 -124.5 -47.5t-70.5 -114t-17 -205.5h266l-25 -150h-246q-3 -49 -10 -109h238l-25 -150h-247q-61 -156 -181 -227h269
q158 0 240.5 42t119.5 155l197 -110q-73 -164 -205.5 -239.5t-340.5 -75.5h-723l38 230q126 7 182.5 23.5t105 69t73.5 132.5h-178z" />
    <glyph glyph-name="peseta" unicode="&#x20a7;" horiz-adv-x="2144" 
d="M321 0h-231l228 1365h274q178 0 259.5 -7.5t160 -53.5t126 -132.5t47.5 -194.5q0 -141 -77.5 -250.5t-181 -144.5t-252.5 -35h-262zM516 1166l-70 -418h188q128 0 179 16.5t90 72t39 134.5q0 74 -35 121.5t-83 60.5t-172 13h-136zM1400 0q-75 -10 -99 -10q-92 0 -136 39
t-44 98q0 30 13 107l44 258h-93l20 122h96l36 161l148 9l-29 -170h137l-21 -122h-136l-44 -260q-8 -48 -8 -62q0 -52 80 -52q19 0 57 5zM1627 192q32 -91 144 -91q109 0 109 71q0 39 -90 62q-125 33 -178.5 76t-53.5 120q0 81 65.5 141t184.5 60q195 0 274 -152l-139 -43
q-1 2 -7 11q-41 70 -126 70q-90 0 -90 -61q0 -41 66 -58q150 -41 207 -84t57 -121q0 -88 -71.5 -147t-210.5 -59q-226 0 -294 169z" />
    <glyph glyph-name="afii61248" unicode="&#x2105;" horiz-adv-x="1879" 
d="M718 905q-103 -220 -309 -220q-133 0 -210 84t-77 223q0 165 98.5 286t247.5 121q238 0 284 -242l-141 -25q-27 132 -136 132q-81 0 -131.5 -87.5t-50.5 -200.5q0 -157 128 -157q104 0 157 134zM546 0h-153l998 1365h150zM1437 -27q-145 0 -227 83t-82 230
q0 164 102 281.5t264 117.5q133 0 215 -84.5t82 -230.5t-96.5 -271.5t-257.5 -125.5zM1438 103q94 0 137.5 92t43.5 191q0 170 -139 170q-98 0 -140.5 -99t-42.5 -196q0 -81 40.5 -119.5t100.5 -38.5z" />
    <glyph glyph-name="afii61289" unicode="&#x2113;" horiz-adv-x="1201" 
d="M651 547q-59 -312 -59 -384q0 -63 33 -63q43 0 89 102q18 40 43 40q33 0 33 -39q0 -73 -68.5 -152.5t-152.5 -79.5q-153 0 -153 244q0 66 8 166q-63 -61 -77 -61t-25.5 14t-11.5 31q0 26 33 59q43 43 96 107q64 358 167 607t253 249q69 0 110 -50.5t41 -133.5
q0 -296 -359 -656zM680 717q101 113 161 241t60 228q0 83 -40 83q-85 0 -181 -552z" />
    <glyph glyph-name="afii61352" unicode="&#x2116;" horiz-adv-x="2048" 
d="M1094 0h-195l-466 1026l-171 -1026h-197l228 1365h253l425 -937l157 937h195zM1656 363q-130 0 -213 76t-83 224q0 155 96 265t249 110q144 0 215 -89t71 -203q0 -156 -93.5 -269.5t-241.5 -113.5zM1659 501q76 0 113 79t37 176q0 144 -118 144q-82 0 -116.5 -87
t-34.5 -170q0 -142 119 -142zM1872 0h-622l31 183h621z" />
    <glyph glyph-name="estimated" unicode="&#x212e;" horiz-adv-x="1229" 
d="M283 531v-371q120 -121 298 -121q254 0 395 246l72 -43q-118 -170 -231.5 -223t-235.5 -53q-232 0 -380.5 158.5t-148.5 406.5q0 252 149.5 408.5t379.5 156.5q214 0 366 -142t163 -423h-827zM879 605v297q-124 121 -300 121q-175 0 -296 -122v-296h596z" />
    <glyph glyph-name="oneeighth" unicode="&#x215b;" horiz-adv-x="1802" 
d="M696 546h-619l23 139h227l82 490q-116 -68 -238 -68q-10 0 -27 1l22 136q237 18 329 151h113l-119 -710h230zM474 0h-153l1069 1365h150zM1255 414q-117 65 -117 177q0 100 89.5 174.5t245.5 74.5q132 0 215.5 -58t83.5 -149q0 -129 -169 -195q141 -65 141 -191
q0 -110 -97.5 -187.5t-253.5 -77.5q-172 0 -254.5 61.5t-82.5 152.5q0 158 199 218zM1488 490q132 50 132 131q0 44 -42.5 72.5t-115.5 28.5q-70 0 -110 -28t-40 -71t39.5 -73t136.5 -60zM1383 354q-166 -45 -166 -141q0 -49 47 -80t128 -31q92 0 136.5 35.5t44.5 76.5
q0 80 -190 140z" />
    <glyph glyph-name="threeeighths" unicode="&#x215c;" horiz-adv-x="1802" 
d="M200 795q11 -62 62 -100t121 -38q77 0 123 37t46 94q0 45 -26.5 74.5t-61.5 34.5t-162 5l22 128q26 -1 45 -1q220 0 220 121q0 47 -40 75t-97 28q-127 0 -186 -119l-146 61q118 190 337 190q133 0 217.5 -64.5t84.5 -157.5q0 -139 -170 -192q134 -48 134 -187
q0 -102 -89 -179.5t-253 -77.5q-265 0 -334 231zM473 0h-152l1068 1365h151zM1255 414q-118 64 -118 177q0 100 89.5 174.5t246.5 74.5q132 0 215.5 -58t83.5 -149q0 -129 -169 -195q141 -65 141 -191q0 -110 -98 -187.5t-254 -77.5q-165 0 -250.5 60t-85.5 154
q0 158 199 218zM1488 490q132 50 132 131q0 43 -42.5 72t-115.5 29q-71 0 -111 -28t-40 -71t38.5 -72.5t138.5 -60.5zM1382 354q-165 -45 -165 -141q0 -50 47 -80.5t127 -30.5q93 0 137.5 35.5t44.5 76.5q0 80 -191 140z" />
    <glyph glyph-name="fiveeighths" unicode="&#x215d;" horiz-adv-x="1802" 
d="M72 736l150 37q13 -53 60.5 -86t106.5 -33q72 0 124.5 48.5t52.5 117.5q0 68 -45 107.5t-105 39.5q-97 0 -157 -91l-134 54l120 435h528l-36 -136h-389l-56 -198q80 70 174 70q117 0 196 -78t79 -186q0 -133 -102 -223t-246 -90q-115 0 -204.5 58t-116.5 154zM473 0h-152
l1068 1365h151zM1255 414q-118 65 -118 177q0 100 90 174.5t246 74.5q142 0 220.5 -61t78.5 -146q0 -129 -169 -195q141 -65 141 -192q0 -109 -97.5 -186.5t-254.5 -77.5q-165 0 -250.5 60t-85.5 154q0 158 199 218zM1488 490q132 50 132 131q0 44 -42.5 72.5t-115.5 28.5
q-71 0 -111 -28t-40 -71t38.5 -72.5t138.5 -60.5zM1382 354q-165 -45 -165 -141q0 -50 47 -80.5t127 -30.5q93 0 137.5 35.5t44.5 76.5q0 80 -191 140z" />
    <glyph glyph-name="seveneighths" unicode="&#x215e;" horiz-adv-x="1802" 
d="M400 546h-193q1 1 15 63q83 365 396 614h-479l45 142h613l-21 -123q-91 -66 -224 -262.5t-152 -433.5zM474 0h-153l1069 1365h150zM1256 414q-118 64 -118 177q0 100 89.5 174.5t246.5 74.5q131 0 214.5 -58t83.5 -149q0 -129 -169 -195q142 -65 142 -191
q0 -110 -98 -187.5t-254 -77.5q-165 0 -250.5 60t-85.5 154q0 158 199 218zM1489 490q132 50 132 131q0 41 -40.5 71t-117.5 30q-71 0 -111 -28t-40 -71t38.5 -72.5t138.5 -60.5zM1383 354q-165 -45 -165 -141q0 -50 47 -80.5t127 -30.5q92 0 136.5 35.5t44.5 76.5
q0 80 -190 140z" />
    <glyph glyph-name="arrowleft" unicode="&#x2190;" horiz-adv-x="2048" 
d="M492 876h76q-81 -170 -195 -309h1595v-101h-1595q102 -102 198 -309h-78q-223 253 -414 341v45q177 71 413 333z" />
    <glyph glyph-name="arrowup" unicode="&#x2191;" horiz-adv-x="1024" 
d="M153 926q262 237 333 413h46q87 -191 340 -414v-77q-207 95 -309 197v-1474h-101v1474q-139 -114 -309 -195v76z" />
    <glyph glyph-name="arrowright" unicode="&#x2192;" horiz-adv-x="2048" 
d="M1555 876q237 -262 413 -333v-45q-191 -88 -414 -341h-77q95 207 197 309h-1595v101h1595q-114 139 -195 309h76z" />
    <glyph glyph-name="arrowdown" unicode="&#x2193;" horiz-adv-x="1024" 
d="M153 -16v76q170 -81 309 -195v1474h101v-1474q102 102 309 197v-77q-253 -223 -340 -414h-46q-71 176 -333 413z" />
    <glyph glyph-name="arrowboth" unicode="&#x2194;" horiz-adv-x="2048" 
d="M1968 540v-45q-181 -79 -406 -337h-80q69 172 194 311h-1305q125 -139 194 -311h-80q-224 258 -406 337v45q182 79 406 338h80q-69 -172 -194 -311h1305q-125 139 -194 311h80q225 -259 406 -338z" />
    <glyph glyph-name="arrowupdn" unicode="&#x2195;" horiz-adv-x="1024" 
d="M489 1463h45q79 -182 337 -407v-80q-171 69 -311 195v-1306q140 126 311 194v-79q-258 -225 -337 -407h-45q-79 182 -337 407v79q171 -68 311 -194v1306q-140 -126 -311 -195v80q258 225 337 407z" />
    <glyph glyph-name="arrowupdnbse" unicode="&#x21a8;" horiz-adv-x="1024" 
d="M489 1463h45q79 -182 337 -407v-80q-171 69 -311 195v-1306q140 126 311 194v-79q-258 -225 -337 -407h-45q-79 182 -337 407v79q171 -68 311 -194v1306q-140 -126 -311 -195v80q258 225 337 407zM154 -522h717v-98h-717v98z" />
    <glyph glyph-name="orthogonal" unicode="&#x221f;" horiz-adv-x="2005" 
d="M362 1279h100v-1179h1181v-100h-1281v1279z" />
    <glyph glyph-name="intersection" unicode="&#x2229;" horiz-adv-x="1472" 
d="M302 0h-110v473q0 265 13 373t76 210t188 171.5t267 69.5q144 0 268.5 -70t186 -167.5t76 -206.5t14.5 -380v-473h-109v480q0 232 -12 333t-60 182.5t-149.5 138.5t-214.5 57q-114 0 -215.5 -58t-148 -137t-58.5 -181.5t-12 -334.5v-480z" />
    <glyph glyph-name="equivalence" unicode="&#x2261;" horiz-adv-x="1201" 
d="M187 1112h887v-208h-887v208zM187 793h887v-209h-887v209zM187 474h887v-209h-887v209z" />
    <glyph glyph-name="house" unicode="&#x2302;" horiz-adv-x="1229" 
d="M153 0v634l461 519l462 -519v-634h-923zM234 81h761v519l-381 427l-380 -427v-519z" />
    <glyph glyph-name="revlogicalnot" unicode="&#x2310;" horiz-adv-x="1201" 
d="M419 0h-232v546h887v-208h-655v-338z" />
    <glyph glyph-name="integraltp" unicode="&#x2320;" horiz-adv-x="1237" 
d="M691 -515h-145v1811q0 219 89.5 330t202.5 111q67 0 102.5 -32.5t35.5 -76.5q0 -40 -25.5 -66t-62.5 -26q-30 0 -57 15q-18 10 -41.5 46.5t-46.5 36.5q-17 0 -31 -12q-10 -8 -14 -27q-7 -33 -7 -139v-1971z" />
    <glyph glyph-name="integralbt" unicode="&#x2321;" horiz-adv-x="1237" 
d="M546 1737h145v-1811q0 -219 -89.5 -330t-202.5 -111q-67 0 -102.5 32.5t-35.5 76.5q0 40 25.5 66t61.5 26q31 0 59 -16q18 -10 41 -46t46 -36q17 0 31 11q10 8 14 29q7 32 7 138v1971z" />
    <glyph glyph-name="SF100000" unicode="&#x2500;" 
d="M1473 534h-1496v175h1496v-175z" />
    <glyph glyph-name="SF110000" unicode="&#x2502;" 
d="M638 -621v2485h175v-2485h-175z" />
    <glyph glyph-name="SF010000" unicode="&#x250c;" 
d="M1474 709v-175h-661v-1155h-175v1330h836z" />
    <glyph glyph-name="SF030000" unicode="&#x2510;" 
d="M637 534h-660v175h835v-1330h-175v1155z" />
    <glyph glyph-name="SF020000" unicode="&#x2514;" 
d="M638 534v1330h175v-1155h661v-175h-836z" />
    <glyph glyph-name="SF040000" unicode="&#x2518;" 
d="M812 534h-835v175h660v1155h175v-1330z" />
    <glyph glyph-name="SF080000" unicode="&#x251c;" 
d="M638 -621v2485h175v-1155h661v-175h-661v-1155h-175z" />
    <glyph glyph-name="SF090000" unicode="&#x2524;" 
d="M637 -621v1155h-660v175h660v1155h175v-2485h-175z" />
    <glyph glyph-name="SF060000" unicode="&#x252c;" 
d="M637 534h-660v175h1496v-175h-661v-1155h-175v1155z" />
    <glyph glyph-name="SF070000" unicode="&#x2534;" 
d="M1473 534h-1496v175h660v1155h175v-1155h661v-175z" />
    <glyph glyph-name="SF050000" unicode="&#x253c;" 
d="M637 534h-660v175h660v1155h175v-1155h661v-175h-661v-1155h-175v1155z" />
    <glyph glyph-name="SF430000" unicode="&#x2550;" 
d="M1473 724h-1496v175h1496v-175zM1473 344h-1496v175h1496v-175z" />
    <glyph glyph-name="SF240000" unicode="&#x2551;" 
d="M829 -621v2485h175v-2485h-175zM448 -621v2485h175v-2485h-175z" />
    <glyph glyph-name="SF510000" unicode="&#x2552;" 
d="M638 -621v1520h836v-175h-661v-205h661v-175h-661v-965h-175z" />
    <glyph glyph-name="SF520000" unicode="&#x2553;" 
d="M448 -621v1330h1027v-175h-471v-1155h-175v1155h-206v-1155h-175z" />
    <glyph glyph-name="SF390000" unicode="&#x2554;" 
d="M623 -621h-175v1520h1026v-175h-851v-1345zM1004 344v-965h-175v1140h645v-175h-470z" />
    <glyph glyph-name="SF220000" unicode="&#x2555;" 
d="M637 344h-660v175h660v205h-660v175h835v-1520h-175v965z" />
    <glyph glyph-name="SF210000" unicode="&#x2556;" 
d="M448 -621v1155h-471v175h1026v-1330h-175v1155h-206v-1155h-174z" />
    <glyph glyph-name="SF250000" unicode="&#x2557;" 
d="M828 -621v1345h-851v175h1026v-1520h-175zM447 344h-470v175h645v-1140h-175v965z" />
    <glyph glyph-name="SF500000" unicode="&#x2558;" 
d="M638 344v1520h175v-965h661v-175h-661v-205h661v-175h-836z" />
    <glyph glyph-name="SF490000" unicode="&#x2559;" 
d="M1475 534h-1027v1330h175v-1155h206v1155h175v-1155h471v-175z" />
    <glyph glyph-name="SF380000" unicode="&#x255a;" 
d="M623 1864v-1345h850v-175h-1025v1520h175zM1004 899h470v-175h-645v1140h175v-965z" />
    <glyph glyph-name="SF280000" unicode="&#x255b;" 
d="M812 344h-835v175h660v205h-660v175h660v965h175v-1520z" />
    <glyph glyph-name="SF270000" unicode="&#x255c;" 
d="M1003 534h-1026v175h470v1155h175v-1155h206v1155h175v-1330z" />
    <glyph glyph-name="SF260000" unicode="&#x255d;" 
d="M828 1864h175v-1520h-1026v175h851v1345zM447 899v965h175v-1140h-645v175h470z" />
    <glyph glyph-name="SF360000" unicode="&#x255e;" 
d="M638 -621v2485h175v-965h661v-175h-661v-205h661v-175h-661v-965h-175z" />
    <glyph glyph-name="SF370000" unicode="&#x255f;" 
d="M829 -621v2485h175v-1155h470v-175h-470v-1155h-175zM448 -621v2485h175v-2485h-175z" />
    <glyph glyph-name="SF420000" unicode="&#x2560;" 
d="M448 -621v2485h175v-2485h-175zM829 724v1140h175v-965h470v-175h-645zM829 -621v1140h645v-175h-470v-965h-175z" />
    <glyph glyph-name="SF190000" unicode="&#x2561;" 
d="M637 344h-660v175h660v205h-660v175h660v965h175v-2485h-175v965z" />
    <glyph glyph-name="SF200000" unicode="&#x2562;" 
d="M447 -621l1 1155h-471v175h470v1155h175v-2485h-175zM828 -621v2485h175v-2485h-175z" />
    <glyph glyph-name="SF230000" unicode="&#x2563;" 
d="M828 -621v2485h175v-2485h-175zM622 1864v-1140h-645v175h470v965h175zM447 344h-470v175h645v-1140h-175v965z" />
    <glyph glyph-name="SF470000" unicode="&#x2564;" 
d="M1473 724h-1496v175h1496v-175zM637 344h-660v175h1496v-175h-661v-965h-175v965z" />
    <glyph glyph-name="SF480000" unicode="&#x2565;" 
d="M447 -621v1155h-470v175h1496v-175h-470v-1155h-175v1155h-206v-1155h-175z" />
    <glyph glyph-name="SF410000" unicode="&#x2566;" 
d="M1473 724h-1496v175h1496v-175zM447 344h-470v175h645v-1140h-175v965zM828 -621v1140h645v-175h-470v-965h-175z" />
    <glyph glyph-name="SF450000" unicode="&#x2567;" 
d="M1473 724h-1496v175h660v965h175v-965h661v-175zM1473 344h-1496v175h1496v-175z" />
    <glyph glyph-name="SF460000" unicode="&#x2568;" 
d="M1473 534h-1496v175h470v1155h175v-1155h206v1155h175v-1155h470v-175z" />
    <glyph glyph-name="SF400000" unicode="&#x2569;" 
d="M622 724h-645v175h470v965h175v-1140zM1473 724h-645v1140h175v-965h470v-175zM1473 344h-1496v175h1496v-175z" />
    <glyph glyph-name="SF540000" unicode="&#x256a;" 
d="M637 344h-660v175h660v205h-660v175h660v965h175v-965h661v-175h-661v-205h661v-175h-661v-965h-175v965z" />
    <glyph glyph-name="SF530000" unicode="&#x256b;" 
d="M447 -621v1155h-470v175h470v1155h175v-1155h206v1155h175v-1155h470v-175h-470v-1155h-175v1155h-206v-1155h-175z" />
    <glyph glyph-name="SF440000" unicode="&#x256c;" 
d="M1003 899h470v-175h-645v1140h175v-965zM447 899v965h175v-1140h-645v175h470zM447 344h-470v175h645v-1140h-175v965zM1003 344v-965h-175v1140h645v-175h-470z" />
    <glyph glyph-name="upblock" unicode="&#x2580;" 
d="M1473 621h-1496v1243h1496v-1243z" />
    <glyph glyph-name="dnblock" unicode="&#x2584;" 
d="M1473 -621h-1496v1242h1496v-1242z" />
    <glyph glyph-name="block" unicode="&#x2588;" 
d="M-23 -621v2485h1496v-2485h-1496z" />
    <glyph glyph-name="lfblock" unicode="&#x258c;" 
d="M-23 -621v2485h748v-2485h-748z" />
    <glyph glyph-name="rtblock" unicode="&#x2590;" 
d="M726 -621v2485h748v-2485h-748z" />
    <glyph glyph-name="ltshade" unicode="&#x2591;" 
d="M0 1864h121v-125h-121v125zM482 1864h121v-125h-121v125zM965 1864h121v-125h-121v125zM241 1615h121v-125h-121v125zM723 1615h121v-125h-121v125zM1206 1615h121v-125h-121v125zM965 1366h121v-125h-121v125zM482 1366h121v-125h-121v125zM0 1366h121v-125h-121v125z
M1206 1117h121v-125h-121v125zM723 1117h121v-125h-121v125zM241 1117h121v-125h-121v125zM0 867h121v-125h-121v125zM482 867h121v-125h-121v125zM965 867h121v-125h-121v125zM1206 618h121v-125h-121v125zM723 618h121v-125h-121v125zM241 618h121v-125h-121v125zM0 369
h121v-125h-121v125zM482 369h121v-125h-121v125zM965 369h121v-125h-121v125zM241 120h121v-125h-121v125zM723 120h121v-125h-121v125zM1206 120h121v-125h-121v125zM965 -130h121v-125h-121v125zM482 -130h121v-125h-121v125zM0 -130h121v-125h-121v125zM241 -379h121
v-125h-121v125zM723 -379h121v-125h-121v125zM1206 -379h121v-125h-121v125z" />
    <glyph glyph-name="shade" unicode="&#x2592;" 
d="M121 1864h120v-125h-120v125zM362 1864h120v-125h-120v125zM603 1864h121v-125h-121v125zM844 1864h121v-125h-121v125zM1086 1864h120v-125h-120v125zM1327 1864h120v-125h-120v125zM0 1615h121v-125h-121v125zM241 1615h121v-125h-121v125zM482 1615h121v-125h-121v125
zM724 1615h120v-125h-120v125zM965 1615h121v-125h-121v125zM1206 1615h121v-125h-121v125zM121 1366h120v-125h-120v125zM362 1366h120v-125h-120v125zM603 1366h121v-125h-121v125zM844 1366h121v-125h-121v125zM1086 1366h120v-125h-120v125zM1327 1366h120v-125h-120
v125zM241 1116h121v-124h-121v124zM482 1116h121v-124h-121v124zM724 1116h120v-124h-120v124zM965 1116h121v-124h-121v124zM1206 1116h121v-124h-121v124zM0 1116h121v-124h-121v124zM121 867h120v-125h-120v125zM362 867h120v-125h-120v125zM603 867h121v-125h-121v125z
M844 867h121v-125h-121v125zM1086 867h120v-125h-120v125zM1327 867h120v-125h-120v125zM0 618h121v-125h-121v125zM482 618h121v-125h-121v125zM724 618h120v-125h-120v125zM965 618h121v-125h-121v125zM1206 618h121v-125h-121v125zM241 618h121v-125h-121v125zM1327 369
h120v-125h-120v125zM1086 369h120v-125h-120v125zM844 369h121v-125h-121v125zM603 369h121v-125h-121v125zM362 369h120v-125h-120v125zM121 369h120v-125h-120v125zM0 119h121v-124h-121v124zM241 119h121v-124h-121v124zM482 119h121v-124h-121v124zM724 119h120v-124
h-120v124zM965 119h121v-124h-121v124zM1206 119h121v-124h-121v124zM1327 -130h120v-125h-120v125zM1086 -130h120v-125h-120v125zM844 -130h121v-125h-121v125zM603 -130h121v-125h-121v125zM362 -130h120v-125h-120v125zM121 -130h120v-125h-120v125zM0 -379h121v-125
h-121v125zM241 -379h121v-125h-121v125zM482 -379h121v-125h-121v125zM724 -379h120v-125h-120v125zM965 -380l121 1v-125h-121v124zM1206 -379h121v-125h-121v125z" />
    <glyph glyph-name="dkshade" unicode="&#x2593;" 
d="M1447 1490v-374h-120v-124h120v-374h-120v-125h120v-374h-120v-124h120v-374h-120v-125h120v-124h-1447v373h121v125h-121v374h121v125h-121v373h121v125h-121v374h121v125h-121v373h121v125h120v-125h121v125h120v-125h121v125h121v-125h120v125h121v-125h121v125h120
v-125h121v125h120v-249h-120v-125h120zM121 1615v-125h120v125h-120zM362 1615v-125h120v125h-120zM603 1615v-125h121v125h-121zM844 1615v-125h121v125h-121zM1086 1615v-125h120v125h-120zM1327 1366h-121v-125h121v125zM1086 1366h-121v-125h121v125zM844 1366h-120
v-125h120v125zM603 1366h-121v-125h121v125zM362 1366h-121v-125h121v125zM121 1116v-124h120v124h-120zM362 1116v-124h120v124h-120zM603 1116v-124h121v124h-121zM844 1116v-124h121v124h-121zM1086 1116v-124h120v124h-120zM362 867h-121v-125h121v125zM482 867v-125
h121v125h-121zM724 867v-125h120v125h-120zM965 867v-125h121v125h-121zM1206 867v-125h121v125h-121zM121 618v-125h120v125h-120zM603 618v-125h121v125h-121zM482 493v125h-120v-125h120zM844 618v-125h121v125h-121zM1086 618v-125h120v125h-120zM1327 244v125h-121
v-125h121zM1086 244v125h-121v-125h121zM844 244v125h-120v-125h120zM603 244v125h-121v-125h121zM362 244v125h-121v-125h121zM121 119v-124h120v124h-120zM362 119v-124h120v124h-120zM603 119v-124h121v124h-121zM844 119v-124h121v124h-121zM1086 119v-124h120v124h-120
zM1327 -255v125h-121v-125h121zM1086 -255v125h-121v-125h121zM844 -255v125h-120v-125h120zM603 -255v125h-121v-125h121zM362 -255v125h-121v-125h121zM121 -379v-125h120v125h-120zM362 -379v-125h120v125h-120zM603 -379v-125h121v125h-121zM844 -379v-125h121v125h-121
zM1086 -379v-125h120v125h-120z" />
    <glyph glyph-name="filledbox" unicode="&#x25a0;" horiz-adv-x="1237" 
d="M146 944h944v-944h-944v944z" />
    <glyph glyph-name="H22073" unicode="&#x25a1;" horiz-adv-x="1237" 
d="M146 944h944v-944h-944v944zM222 868v-792h792v792h-792z" />
    <glyph glyph-name="H18543" unicode="&#x25aa;" horiz-adv-x="727" 
d="M635 948v-543h-543v543h543z" />
    <glyph glyph-name="H18551" unicode="&#x25ab;" horiz-adv-x="727" 
d="M635 948v-543h-543v543h543zM559 872h-391v-391h391v391z" />
    <glyph glyph-name="filledrect" unicode="&#x25ac;" horiz-adv-x="2048" 
d="M0 703h2047v-386h-2047v386z" />
    <glyph glyph-name="triagup" unicode="&#x25b2;" horiz-adv-x="2027" 
d="M304 0l710 1419l710 -1419h-1420z" />
    <glyph glyph-name="triagrt" unicode="&#x25ba;" horiz-adv-x="2027" 
d="M288 1417l1451 -724l-1451 -724v1448z" />
    <glyph glyph-name="triagdn" unicode="&#x25bc;" horiz-adv-x="2027" 
d="M1724 1388l-710 -1419l-710 1419h1420z" />
    <glyph glyph-name="triaglf" unicode="&#x25c4;" horiz-adv-x="2027" 
d="M1739 1417v-1448l-1451 724z" />
    <glyph glyph-name="circle" unicode="&#x25cb;" horiz-adv-x="1237" 
d="M619 1018q110 0 216 -57t165 -163t59 -220q0 -183 -129 -312t-311 -129q-183 0 -312 129t-129 312q0 115 59 220.5t165 162.5t217 57zM619 942q-93 0 -180 -47t-136 -135t-49 -182q0 -151 107 -258t258 -107t257.5 107t106.5 258q0 94 -49 182t-136 135t-179 47z" />
    <glyph glyph-name="H18533" unicode="&#x25cf;" horiz-adv-x="1237" 
d="M1059 578q0 -182 -129.5 -311.5t-310.5 -129.5q-183 0 -312 129t-129 312q0 182 129.5 311t311.5 129q181 0 310.5 -129.5t129.5 -310.5z" />
    <glyph glyph-name="invbullet" unicode="&#x25d8;" horiz-adv-x="1237" 
d="M128 0v980h980v-980h-980zM618 692q-84 0 -143 -59t-59 -143q0 -83 59.5 -142.5t142.5 -59.5q84 0 143 59.5t59 142.5q0 84 -59 143t-143 59z" />
    <glyph glyph-name="invcircle" unicode="&#x25d9;" horiz-adv-x="1237" 
d="M42 0v1155h1155v-1155h-1155zM619 1018q-111 0 -216.5 -57t-164.5 -163t-59 -221q0 -182 129 -311t311 -129q183 0 312 129t129 311q0 115 -59 221t-164.5 163t-217.5 57zM620 942q91 0 178.5 -47t136.5 -134.5t49 -183.5q0 -151 -106.5 -257.5t-257.5 -106.5
q-152 0 -258.5 106.5t-106.5 257.5q0 96 49 183.5t136.5 134.5t179.5 47z" />
    <glyph glyph-name="openbullet" unicode="&#x25e6;" horiz-adv-x="727" 
d="M649 676q0 -118 -83.5 -202t-201.5 -84t-202 84t-84 202t84 202t202 84t201.5 -84t83.5 -202zM574 676q0 87 -62 148.5t-148 61.5t-148 -61.5t-62 -148.5q0 -86 61.5 -148t148.5 -62t148.5 62t61.5 148z" />
    <glyph glyph-name="smileface" unicode="&#x263a;" horiz-adv-x="2048" 
d="M1024 1156q160 0 313 -82.5t239 -236t86 -319.5q0 -165 -84.5 -316.5t-236.5 -236t-317 -84.5q-166 0 -317.5 84.5t-236 236t-84.5 316.5q0 166 85.5 319.5t238.5 236t314 82.5zM1024 1063q-137 0 -267.5 -70.5t-204 -201.5t-73.5 -273q0 -141 72 -270.5t202 -201.5
t271 -72t271 72t202 201.5t72 270.5q0 142 -73.5 273t-204 201.5t-267.5 70.5zM779 731q34 0 57.5 -23.5t23.5 -57.5q0 -33 -23.5 -57t-57.5 -24q-33 0 -57 24t-24 57q0 34 24 57.5t57 23.5zM1268 731q34 0 57.5 -23.5t23.5 -57.5q0 -33 -23.5 -57t-57.5 -24q-33 0 -57 24
t-24 57q0 34 23.5 57.5t57.5 23.5zM730 313l62 36q79 -144 232 -144t231 144l63 -36q-50 -95 -123.5 -145t-170.5 -50q-98 0 -171 50t-123 145z" />
    <glyph glyph-name="invsmileface" unicode="&#x263b;" horiz-adv-x="2048" 
d="M1024 1156q160 0 313 -82.5t239 -236t86 -319.5q0 -165 -84.5 -316.5t-236.5 -236t-317 -84.5q-166 0 -317.5 84.5t-236 236t-84.5 316.5q0 166 85.5 319.5t238.5 236t314 82.5zM779 731q-33 0 -57 -23.5t-24 -57.5q0 -33 24 -57t57 -24q34 0 57.5 24t23.5 57
q0 34 -23.5 57.5t-57.5 23.5zM1268 731q-34 0 -57.5 -23.5t-23.5 -57.5q0 -33 24 -57t57 -24q34 0 57.5 24t23.5 57q0 34 -23.5 57.5t-57.5 23.5zM730 313q50 -95 123 -145t171 -50q97 0 170.5 50t123.5 145l-63 36q-78 -144 -231 -144t-232 144z" />
    <glyph glyph-name="sun" unicode="&#x263c;" horiz-adv-x="1877" 
d="M902 1621h76v-337q102 -7 181.5 -38.5t167.5 -102.5l290 284l52 -53l-286 -286q73 -95 103 -169q38 -96 41 -185h335v-69h-335q-19 -193 -143 -351l285 -291l-57 -50l-283 282q-98 -72 -171 -100.5t-180 -40.5v-337h-76v337q-112 15 -188.5 46t-156.5 92l-294 -278
l-51 51l285 286q-66 84 -100 166t-45 188h-336v69h336q9 106 42 185.5t102 163.5l-284 287l48 57l292 -282q101 70 179.5 100.5t170.5 38.5v337zM937 1211q-129 0 -252 -66t-191.5 -189.5t-68.5 -256.5t67.5 -255t189.5 -190t255 -68t255 68t190 190t68 255t-69 256.5
t-192 189.5t-252 66z" />
    <glyph glyph-name="female" unicode="&#x2640;" horiz-adv-x="1536" 
d="M796 461v-402h459v-59h-459v-439h-59v439h-460v59h460v402q-103 0 -225.5 65.5t-195 191t-72.5 265.5q0 136 69.5 261t193.5 194t261 69q136 0 260.5 -69.5t193.5 -194t69 -260.5q0 -209 -143.5 -360.5t-351.5 -161.5zM767 1451q-118 0 -230.5 -60.5t-175.5 -173.5
t-63 -235q0 -195 137.5 -332.5t331.5 -137.5q195 0 332.5 137.5t137.5 332.5q0 122 -63 235t-175.5 173.5t-231.5 60.5z" />
    <glyph glyph-name="male" unicode="&#x2642;" horiz-adv-x="1536" 
d="M1216 1620l36 -16l163 -666l-57 -15l-142 581l-358 -768q148 -75 224 -202t76 -272q0 -136 -69 -260.5t-193.5 -194t-261.5 -69.5q-136 0 -260.5 69.5t-193.5 194t-69 260.5q0 217 153.5 370t372.5 153q78 0 166 -27l360 771l-537 -265l-24 53zM634 731
q-118 0 -230.5 -60.5t-175.5 -173.5t-63 -235q0 -195 137.5 -332.5t331.5 -137.5q195 0 332.5 137.5t137.5 332.5q0 122 -63 235t-175.5 173.5t-231.5 60.5z" />
    <glyph glyph-name="spade" unicode="&#x2660;" horiz-adv-x="1344" 
d="M673 1231q26 -108 80 -193t192.5 -210.5t175.5 -193t37 -136.5q0 -95 -64 -159t-154 -64q-82 0 -154 57q-54 42 -101 133q1 -147 38.5 -233.5t119.5 -136t219 -58.5l7 -37h-792l7 37q184 0 285.5 107.5t97.5 320.5q-45 -95 -111.5 -142.5t-149.5 -47.5q-90 0 -155 65
t-65 154q0 74 32 133q45 83 146.5 166t149.5 137q74 83 107.5 148t51.5 153z" />
    <glyph glyph-name="club" unicode="&#x2663;" horiz-adv-x="1344" 
d="M1098 0h-848l8 34q165 35 219 69q81 51 132.5 151t51.5 210q0 16 -1 47q-61 -124 -148.5 -181t-178.5 -57q-116 0 -197 81t-81 199q0 116 74 195.5t165 81.5q63 -2 166 -53q-42 69 -54.5 105t-12.5 77q0 115 79 193.5t198 78.5q117 0 197.5 -78.5t80.5 -189.5
q0 -88 -69 -186q84 40 101 45q27 8 61 8q100 0 173.5 -78.5t73.5 -194.5q0 -120 -80.5 -201.5t-196.5 -82.5q-77 4 -134.5 33t-107.5 80q-35 37 -87 125q4 -159 48.5 -251.5t136.5 -153.5q62 -41 223 -72z" />
    <glyph glyph-name="heart" unicode="&#x2665;" horiz-adv-x="1344" 
d="M674 -24q-31 118 -88.5 221.5t-222.5 321.5q-121 160 -149 203q-46 70 -66.5 128.5t-20.5 118.5q0 111 74 186t180 76q113 -1 194 -79q61 -58 99 -173q32 112 92 171q83 81 191 81q109 0 184.5 -74t75.5 -176q0 -91 -43.5 -188t-170.5 -257q-164 -207 -239 -340
q-59 -105 -90 -220z" />
    <glyph glyph-name="diamond" unicode="&#x2666;" horiz-adv-x="1344" 
d="M671 1234q88 -154 218 -327q150 -200 242 -303q-74 -78 -242 -302q-136 -182 -218 -326q-27 52 -74 121q-81 120 -201 279q-26 35 -183 228q101 115 260 328q118 158 198 302z" />
    <glyph glyph-name="musicalnote" unicode="&#x266a;" horiz-adv-x="1024" 
d="M486 1363h38q172 0 227 -14q79 -20 139 -77q45 -42 71 -118.5t26 -178.5v-103h-99v43q0 68 -28.5 115.5t-84.5 72.5q-73 32 -162 32h-28v-835q0 -121 -32 -188.5t-110 -108t-170 -40.5q-109 0 -172.5 61.5t-63.5 161.5q0 105 76 176.5t199 71.5q78 0 174 -46v975z" />
    <glyph glyph-name="musicalnotedbl" unicode="&#x266b;" horiz-adv-x="1536" 
d="M534 1271l796 248v-1108q0 -124 -31.5 -187t-107 -104t-170.5 -41q-109 0 -174 62.5t-65 161.5q0 100 77 172.5t199 72.5q40 0 70.5 -7t99.5 -36v724l-595 -185v-836q0 -121 -32 -188.5t-110 -107.5t-170 -40q-109 0 -172.5 61.5t-63.5 160.5q0 105 76 176.5t199 71.5
q78 0 174 -46v975z" />
    <glyph glyph-name="uniF001" horiz-adv-x="1105" 
d="M325 0h-242l140 834h-128l29 183h137q69 259 170.5 328.5t257.5 69.5q53 0 117 -9l-32 -189q-52 7 -78 7q-60 0 -113 -32.5t-84 -174.5h215l-33 -183h-221zM1072 1126h-235l41 245h234zM883 0h-235l171 1017h234z" />
    <glyph glyph-name="uniF002" horiz-adv-x="1103" 
d="M325 0h-242l140 834h-127l27 183h138q53 219 148 308.5t284 89.5q53 0 111 -9l-31 -187q-56 7 -85 7q-56 0 -107 -34.5t-83 -174.5h216l-32 -183h-221zM882 0h-235l229 1371h235z" />
    <glyph glyph-name="uniF003" unicode="&#x2074;" horiz-adv-x="792" 
d="M609 546h-164l31 183h-381l23 138l463 526h170l-89 -529h135l-22 -135h-135zM510 853l59 352l-314 -354z" />
    <glyph glyph-name="uniF004" horiz-adv-x="1024" 
d="M587 968h-93l105 397h205z" />
    <glyph glyph-name="uniF005" horiz-adv-x="1024" 
d="M301 -479h-93l105 370h205z" />
    <glyph glyph-name="currency" unicode="&#xa4;" horiz-adv-x="1502" 
d="M174 273l205 205q-94 133 -94 284q0 153 94 284l-208 208l127 127l208 -207q134 94 294 94q147 0 280 -92l205 204l127 -126l-205 -205q97 -141 97 -287q0 -149 -94 -282l207 -207l-125 -127l-207 206q-136 -96 -291 -96q-147 0 -289 95l-206 -204zM1092 762
q0 123 -87.5 211t-210.5 88q-122 0 -209.5 -88t-87.5 -211t87.5 -211t209.5 -88t210 87.5t88 211.5z" />
    </font>
</defs>
</svg>
